<svg version="1.1" id="Layer_1" xmlns="http://www.w3.org/2000/svg" xmlns:xlink="http://www.w3.org/1999/xlink" x="0px" y="0px"
	 width="100%" viewBox="0 0 3360 2400" enable-background="new 0 0 3360 2400" xml:space="preserve">
<path fill="#FFFFFF" opacity="1.000000" stroke="none" 
	d="
M1798.000000,2402.000000 
	C1198.666748,2402.000000 600.333557,2402.000000 2.000161,2402.000000 
	C2.000000,2002.000122 2.000000,1602.000366 2.000000,1202.000488 
	C2.000000,802.000549 2.000000,402.000671 2.000000,2.000563 
	C1121.999512,2.000375 2241.999023,2.000375 3361.999023,2.000188 
	C3361.999268,801.999451 3361.999268,1601.998901 3361.999512,2401.999023 
	C2841.000000,2402.000000 2320.000000,2402.000000 1798.000000,2402.000000 
M2377.999512,1064.000000 
	C2377.999512,1064.000000 2377.932861,1064.104004 2377.593506,1063.152222 
	C2377.031494,1062.813843 2376.469238,1062.475464 2374.895752,1061.270874 
	C2354.363525,1035.086914 2328.211426,1016.174194 2298.277832,1002.203064 
	C2267.809326,987.982239 2235.879150,977.785095 2203.804199,967.971741 
	C2194.345459,965.077820 2185.052734,961.640320 2176.078613,956.849915 
	C2176.593506,955.267944 2177.270996,953.718872 2177.598877,952.099121 
	C2182.449219,928.127747 2197.026611,916.488037 2221.620850,915.854248 
	C2251.328857,915.088684 2279.514404,922.602051 2307.529053,930.898743 
	C2335.638184,939.223328 2362.362305,951.147034 2389.037354,963.235718 
	C2399.826172,968.125122 2411.434570,971.442993 2422.933350,974.479431 
	C2445.694824,980.489929 2466.086182,954.381958 2461.012939,935.972290 
	C2457.754639,924.149475 2454.749756,912.243713 2452.072266,900.276489 
	C2445.021973,868.764771 2441.170166,836.917908 2441.796143,804.532959 
	C2442.091797,789.240417 2441.181152,773.765808 2444.908447,758.906311 
	C2449.815186,739.346313 2434.197266,715.321228 2415.412109,711.270264 
	C2415.024902,710.752686 2414.552490,710.330505 2413.879883,708.576660 
	C2408.840088,695.224854 2399.908691,685.932190 2385.287598,680.663208 
	C2379.515625,665.754150 2369.074463,655.807617 2353.859863,650.775146 
	C2338.192383,645.592712 2322.936768,646.823914 2308.277100,653.995483 
	C2299.788818,658.148071 2291.096191,659.541321 2282.152832,657.072510 
	C2268.379883,653.270630 2254.848633,648.598511 2241.095459,644.718933 
	C2194.912598,631.691406 2148.080566,621.454407 2100.131592,618.580200 
	C2064.612061,616.451050 2029.006958,616.426514 1993.480225,621.546875 
	C1950.849365,627.691101 1910.235229,639.432129 1872.682373,660.696533 
	C1822.115601,689.329773 1785.869019,730.518250 1765.422852,785.151062 
	C1749.013916,828.996704 1744.574707,874.252686 1749.640991,920.667114 
	C1752.122681,943.402954 1758.118896,965.026672 1767.922729,985.653442 
	C1781.389893,1013.988159 1802.802490,1035.716431 1826.448242,1056.832642 
	C1827.006958,1057.174194 1827.565552,1057.515747 1828.005127,1058.001831 
	C1828.005127,1058.001831 1828.142944,1057.873413 1828.445435,1058.839233 
	C1829.005493,1059.176025 1829.565674,1059.512695 1830.033447,1059.953491 
	C1830.033447,1059.953491 1830.135864,1059.834473 1830.608398,1060.990967 
	C1831.734131,1061.375122 1832.859741,1061.759277 1833.976562,1062.008301 
	C1833.976562,1062.008301 1833.853027,1062.063477 1833.838501,1063.463013 
	C1836.865479,1066.883667 1839.699951,1070.501709 1842.960815,1073.682861 
	C1849.261108,1079.829102 1855.801636,1085.729004 1862.523804,1093.066650 
	C1879.047729,1112.343994 1900.064331,1125.751099 1921.938965,1137.849121 
	C1951.758667,1154.341187 1984.057251,1164.867920 2016.333862,1177.641724 
	C2017.304077,1197.772705 2005.148438,1217.719482 1978.580933,1221.561768 
	C1968.843750,1222.969971 1958.507568,1222.581543 1948.745605,1221.069824 
	C1906.140991,1214.472290 1866.773193,1198.734375 1829.596558,1177.183960 
	C1807.714111,1164.499146 1785.876465,1151.727295 1763.760620,1139.460083 
	C1757.764893,1136.134399 1750.985474,1133.078247 1744.298340,1132.348389 
	C1720.731812,1129.776245 1701.094604,1151.560059 1704.748901,1175.951538 
	C1706.812988,1189.729126 1710.306274,1203.286743 1712.653687,1217.029175 
	C1716.004639,1236.646973 1718.895020,1256.343384 1720.894043,1275.012939 
	C1711.641235,1244.183472 1703.294434,1213.046143 1692.943237,1182.589966 
	C1672.628662,1122.819580 1651.864136,1063.182739 1630.018433,1003.958069 
	C1612.665649,956.913513 1593.761841,910.428711 1574.922485,863.948486 
	C1558.179565,822.640503 1539.985474,781.938538 1519.072998,742.544495 
	C1512.550171,730.257080 1505.314087,718.201111 1497.063843,707.029358 
	C1491.507446,699.505676 1485.642456,691.404541 1475.314819,687.072021 
	C1474.148804,686.080688 1472.982910,685.089417 1471.416870,682.800659 
	C1464.332886,673.064575 1458.359253,662.194763 1445.164795,656.837463 
	C1438.632080,649.306580 1432.442627,641.439087 1425.474976,634.334717 
	C1417.713135,626.420837 1407.753418,622.417419 1396.687012,622.517151 
	C1388.068848,622.594727 1379.437744,623.634033 1370.853271,624.606079 
	C1344.788086,627.557556 1318.809204,631.590820 1292.672485,633.510681 
	C1260.514404,635.872742 1228.230835,636.529175 1195.062500,637.043030 
	C1192.708740,637.373657 1190.354858,637.704285 1186.126343,638.030762 
	C1154.536743,637.396179 1122.947388,636.756531 1091.357666,636.129089 
	C1072.928467,635.763062 1058.317871,643.320862 1048.064209,658.386902 
	C1041.723633,667.703369 1035.953125,677.531128 1031.022827,687.662842 
	C1009.155396,732.601135 991.929382,779.436401 975.779602,826.645752 
	C940.784973,928.943237 911.678162,1032.947266 887.585388,1138.320557 
	C877.446228,1182.665894 868.925232,1227.381348 858.312378,1271.861694 
	C856.235901,1270.367310 854.168579,1268.860107 852.081177,1267.381104 
	C846.214600,1263.224365 840.356445,1259.037354 832.408997,1259.603882 
	C832.408997,1259.603882 832.277466,1259.743774 832.235474,1258.170898 
	C830.272705,1241.347412 820.194336,1231.612183 802.421387,1228.045410 
	C800.978699,1213.954590 792.952087,1205.284668 779.691467,1201.565552 
	C774.731873,1200.174561 769.353516,1200.276245 764.100098,1197.902954 
	C765.400940,1184.133423 761.302673,1171.081543 759.037781,1157.745972 
	C755.011414,1134.038330 751.357727,1110.255615 748.184326,1086.419434 
	C746.184082,1071.395020 745.975891,1056.124756 743.810303,1041.131348 
	C741.332397,1023.975708 734.221313,1010.429932 713.739868,1006.553040 
	C709.533325,991.146545 701.616577,979.602173 683.733948,976.626465 
	C679.655212,960.299438 670.782227,948.791016 649.855408,947.140137 
	C649.825256,946.783691 649.795044,946.427246 651.668518,946.084595 
	C676.945679,945.049744 701.884705,947.916870 726.881409,951.450867 
	C738.455261,953.087219 750.229492,955.053345 762.350891,952.138855 
	C780.175964,947.852905 792.005920,933.885803 789.800720,916.698425 
	C789.182678,911.880859 787.360229,906.994385 785.113281,902.644104 
	C764.936218,863.580505 749.366272,822.690308 735.878601,780.918396 
	C732.833130,771.486389 729.342285,761.943909 724.330811,753.473206 
	C719.429138,745.188171 714.025391,736.012024 701.493896,734.950317 
	C700.386902,733.933105 699.279907,732.915833 697.993042,730.478333 
	C695.653076,726.226379 693.499512,721.857849 690.931274,717.748535 
	C686.602356,710.822144 680.651367,706.139404 671.272827,704.456543 
	C669.076843,700.748596 666.942566,697.002502 664.673157,693.340027 
	C658.263672,682.996338 649.956787,674.941162 637.175415,674.119629 
	C629.942627,673.654663 622.479065,674.008423 615.343872,675.266602 
	C580.661194,681.382202 546.099609,688.187378 511.407257,694.244995 
	C480.032288,699.723328 448.573792,704.745605 417.096588,709.609680 
	C388.199738,714.075012 359.241394,718.150146 330.287048,722.233521 
	C300.018036,726.502319 269.754730,730.839783 239.427979,734.663574 
	C206.793854,738.778259 174.096848,742.401733 141.410690,746.092651 
	C129.529099,747.434387 117.596985,748.324646 105.692757,749.471069 
	C90.520775,750.932251 75.368706,752.625122 60.180416,753.885010 
	C43.878685,755.237427 29.637583,766.898132 25.950405,782.864502 
	C22.738571,796.772400 24.854578,809.995789 32.750999,821.971191 
	C36.405495,827.513550 40.447968,832.868164 44.844460,837.839294 
	C54.759819,849.050537 61.760117,861.699646 64.952332,876.339844 
	C66.792320,884.778442 68.637199,893.236450 69.938972,901.768188 
	C73.531555,925.313599 76.845009,948.901550 80.258018,972.474304 
	C82.400612,987.272583 84.528023,1002.073059 86.654617,1016.873657 
	C91.096565,1047.788574 95.573822,1078.698242 99.959915,1109.621094 
	C103.599792,1135.282715 107.085571,1160.966431 110.720940,1186.628906 
	C114.449074,1212.945923 118.312805,1239.243774 122.048866,1265.559692 
	C125.536697,1290.127075 128.966522,1314.702881 132.363998,1339.282959 
	C136.185287,1366.929077 140.289490,1394.542480 143.611679,1422.249268 
	C146.075226,1442.794922 143.710129,1462.777588 133.447647,1481.318481 
	C131.366882,1485.077759 129.858200,1489.200928 128.467331,1493.286255 
	C123.402534,1508.162598 126.023048,1522.094482 133.956009,1535.319214 
	C139.486191,1544.538330 148.607590,1548.470459 158.188599,1553.357422 
	C162.535507,1567.385986 170.819489,1577.274292 186.870728,1580.390381 
	C187.432739,1580.752075 187.867798,1581.229370 188.168060,1583.316772 
	C188.782303,1585.209717 189.267380,1587.156738 190.031250,1588.987183 
	C196.082672,1603.488525 214.282288,1614.208130 228.673615,1611.374146 
	C255.948151,1606.003174 283.122986,1600.117065 310.430725,1594.926147 
	C331.550232,1590.911621 352.769379,1587.371216 374.019012,1584.106812 
	C390.692200,1581.545288 407.489044,1579.797485 424.214020,1577.561768 
	C442.565979,1575.108521 460.898956,1572.513550 479.239349,1569.973999 
	C491.685699,1568.250610 504.125580,1566.479248 516.577637,1564.797852 
	C528.706299,1563.160278 540.837036,1561.529663 552.984863,1560.043579 
	C566.124207,1558.436157 579.306274,1557.165649 592.430298,1555.447510 
	C610.133362,1553.129639 627.770996,1550.299072 645.488159,1548.104004 
	C664.532898,1545.744507 683.646301,1543.945557 702.713318,1541.758789 
	C730.645020,1538.555054 758.587769,1535.424438 786.472656,1531.848145 
	C797.599487,1530.420898 808.697083,1528.355957 819.602295,1525.727783 
	C830.102966,1523.197388 837.198364,1516.074951 839.738892,1505.576538 
	C841.828491,1496.941284 842.623718,1487.994751 844.041138,1479.194092 
	C844.654419,1475.385864 845.389893,1471.597290 847.208374,1468.526611 
	C853.210876,1474.430298 859.004150,1480.674072 868.989868,1481.852661 
	C868.989868,1481.852661 869.811707,1482.263306 869.927734,1483.728149 
	C872.261902,1499.228149 892.376953,1513.802246 907.449585,1512.140137 
	C918.647400,1510.905273 929.953674,1510.689087 941.180725,1509.676758 
	C960.968079,1507.892700 980.721985,1505.737671 1000.509460,1503.955688 
	C1011.077026,1503.003784 1021.683838,1502.480225 1032.275879,1501.810059 
	C1052.130615,1500.553345 1071.974487,1498.692505 1091.847290,1498.293823 
	C1108.087280,1497.968018 1124.365356,1499.345825 1140.620483,1500.099365 
	C1144.905884,1500.298096 1149.171509,1500.957397 1153.441284,1501.449097 
	C1172.210693,1503.609619 1185.131104,1497.635010 1192.472168,1482.147705 
	C1201.573120,1462.946899 1200.894775,1443.553101 1187.234741,1425.881958 
	C1183.783691,1421.417480 1180.374023,1416.884521 1177.378784,1412.111084 
	C1167.823364,1396.882812 1167.247681,1380.858276 1173.803833,1364.389526 
	C1176.374878,1357.930908 1181.015991,1353.531250 1187.184570,1350.211548 
	C1200.112793,1343.254028 1214.142700,1341.133301 1228.423950,1340.115601 
	C1241.330811,1339.195923 1254.265381,1338.540527 1267.199341,1338.150024 
	C1295.448730,1337.296997 1323.705566,1336.686401 1351.787720,1337.374023 
	C1347.691162,1344.152222 1343.881592,1351.124756 1339.446167,1357.673462 
	C1324.299561,1380.036133 1331.001709,1418.158325 1360.913574,1427.689941 
	C1362.126953,1428.076660 1363.167847,1429.004395 1364.255005,1431.162598 
	C1369.000854,1444.355957 1377.281250,1453.738037 1392.216919,1457.304932 
	C1392.704346,1457.699097 1393.218994,1458.053589 1393.881104,1459.822388 
	C1395.446289,1466.877319 1399.113281,1472.670776 1404.457642,1477.460815 
	C1414.639038,1486.586670 1426.434326,1490.280396 1440.050049,1488.387573 
	C1447.253906,1487.385986 1454.511719,1486.748657 1461.756470,1486.068237 
	C1477.236450,1484.614868 1492.722900,1483.231079 1508.208374,1481.836060 
	C1529.617432,1479.907471 1550.993652,1477.295654 1572.446167,1476.248779 
	C1600.626465,1474.873413 1628.864502,1474.538208 1657.083008,1474.130371 
	C1678.706055,1473.817749 1700.337646,1474.080322 1721.965454,1474.101440 
	C1724.292358,1474.103760 1726.789185,1473.670288 1728.916992,1474.348755 
	C1738.197510,1477.307617 1747.327271,1475.605103 1756.465210,1473.917969 
	C1770.603638,1471.307373 1780.029297,1462.305664 1783.251953,1449.798462 
	C1784.093994,1449.973267 1784.936035,1450.147949 1785.846313,1451.833740 
	C1787.917847,1456.221680 1789.182373,1461.292236 1792.209595,1464.872070 
	C1802.021851,1476.475342 1815.406128,1480.893433 1830.180664,1482.030518 
	C1843.831299,1483.081055 1855.556763,1477.512695 1867.050903,1471.406738 
	C1876.927612,1466.160278 1886.912231,1464.247925 1897.771362,1467.855835 
	C1904.064697,1469.946899 1910.474243,1471.730835 1916.906860,1473.353271 
	C1949.703003,1481.625244 1982.380615,1490.443970 2015.387817,1497.774536 
	C2036.357178,1502.431519 2057.881104,1504.534668 2079.061279,1508.315308 
	C2101.033936,1512.237427 2123.252930,1512.676758 2145.421143,1513.753174 
	C2151.973145,1514.071411 2158.609375,1512.147095 2165.206543,1512.150513 
	C2186.545654,1512.161499 2207.602051,1509.126343 2228.417725,1505.264526 
	C2256.793457,1499.999878 2284.721924,1492.701050 2311.812744,1482.378174 
	C2338.440430,1472.231445 2363.835938,1459.710449 2385.446533,1441.114136 
	C2414.821289,1415.837402 2437.715820,1385.552734 2452.489502,1349.270874 
	C2462.858154,1323.806641 2469.542480,1297.427979 2471.563477,1270.268433 
	C2473.358887,1246.139771 2473.010742,1221.788574 2467.997314,1197.764526 
	C2461.638916,1167.294067 2449.694580,1139.439087 2429.875977,1115.358643 
	C2424.960449,1109.386108 2420.299316,1102.468018 2411.033447,1099.189453 
	C2405.348877,1092.796997 2399.664307,1086.404541 2393.527588,1078.761108 
	C2388.977051,1074.530273 2384.426270,1070.299561 2379.969727,1065.984619 
	C2379.969727,1065.984619 2379.927979,1066.103271 2379.604004,1065.124756 
	C2379.034668,1064.772827 2378.465576,1064.420898 2377.999512,1064.000000 
M2899.686523,758.639832 
	C2895.420410,743.771790 2885.908936,734.504456 2870.240479,730.020996 
	C2865.527100,713.303101 2854.138184,703.571838 2837.420654,700.975586 
	C2825.094238,699.061279 2812.483154,698.981995 2799.375977,697.286926 
	C2798.250732,697.532959 2797.125488,697.778992 2794.208984,697.990662 
	C2785.593018,697.325256 2776.967285,696.768616 2768.363525,695.970581 
	C2752.811035,694.528076 2737.220215,693.338501 2721.738525,691.326843 
	C2695.060059,687.860168 2668.350098,684.445190 2641.841553,679.909607 
	C2607.477051,674.029846 2573.287109,667.123230 2539.042236,660.553528 
	C2527.303955,658.301575 2515.769043,654.638550 2503.585693,655.809021 
	C2489.348633,657.176636 2478.333008,663.567017 2471.617432,676.534912 
	C2466.210938,686.975586 2464.227051,698.232300 2467.251465,709.440552 
	C2470.000488,719.629333 2474.341553,729.453735 2478.659424,739.136169 
	C2483.205566,749.330261 2485.810547,759.714355 2486.061768,770.926147 
	C2486.426025,787.218384 2487.422607,803.498535 2488.280273,819.776917 
	C2488.769775,829.061768 2489.004150,838.403687 2490.266846,847.594360 
	C2492.386963,863.023254 2495.339600,878.335693 2497.760254,893.725708 
	C2506.616943,950.033691 2519.739746,1005.259399 2539.963379,1058.637817 
	C2550.836426,1087.336670 2563.508789,1115.149048 2581.927734,1140.018433 
	C2594.009766,1156.331299 2605.990234,1172.734863 2617.474854,1189.469360 
	C2625.181885,1200.699219 2632.397949,1212.327271 2638.983398,1224.246948 
	C2644.547607,1234.317993 2646.173828,1245.375732 2644.482178,1257.029053 
	C2640.664551,1283.330688 2637.415771,1309.714355 2633.702148,1336.031738 
	C2629.931641,1362.751221 2623.188721,1388.288696 2603.203125,1408.197876 
	C2602.506592,1408.891602 2602.122070,1409.889771 2601.461182,1410.629150 
	C2593.893066,1419.097046 2589.629150,1428.866455 2588.686523,1440.293945 
	C2587.641113,1452.972656 2590.278809,1464.515625 2600.083984,1472.831421 
	C2605.753662,1477.639893 2613.152588,1480.409302 2619.883789,1485.582153 
	C2623.634521,1500.291748 2633.245850,1508.886963 2648.225342,1513.201538 
	C2648.632812,1513.735962 2649.158936,1514.097412 2649.905273,1515.752808 
	C2653.438965,1530.239746 2663.143799,1539.271606 2677.178711,1541.624756 
	C2696.076172,1544.793213 2715.298828,1546.089844 2734.410645,1547.885376 
	C2745.634766,1548.939819 2756.962158,1548.974609 2768.158447,1550.226807 
	C2788.215576,1552.469971 2808.238037,1555.077148 2828.220459,1557.916626 
	C2851.811035,1561.268677 2875.458252,1564.412964 2898.869873,1568.778687 
	C2923.934570,1573.452759 2948.866699,1578.981934 2973.632324,1585.053345 
	C2986.205811,1588.135864 3006.095703,1580.328247 3012.692139,1568.936035 
	C3021.259766,1554.140137 3022.562500,1538.851929 3017.229248,1522.957397 
	C3015.017578,1516.366577 3011.755859,1510.120483 3008.858398,1503.769287 
	C3004.389893,1493.974121 3001.161621,1483.854614 3002.025391,1472.963257 
	C3003.256104,1457.443970 3004.642334,1441.929932 3006.370117,1426.459106 
	C3007.985352,1411.995239 3010.077393,1397.583008 3012.063721,1383.162476 
	C3013.418701,1373.323975 3014.572754,1363.435181 3016.489746,1353.701294 
	C3019.822754,1336.776855 3030.479248,1324.627441 3043.527588,1314.239746 
	C3064.813232,1297.294556 3086.887207,1281.239014 3107.207764,1263.206909 
	C3132.595703,1240.677856 3155.623291,1215.603149 3175.677490,1188.154297 
	C3191.336914,1166.720581 3206.522461,1144.830933 3220.293457,1122.156860 
	C3235.813721,1096.602661 3249.960205,1070.176880 3263.847656,1043.681274 
	C3273.100586,1026.027466 3280.990479,1007.649475 3289.244873,989.484131 
	C3298.183838,969.812561 3307.154785,950.144287 3315.491455,930.215027 
	C3320.180176,919.006226 3326.083252,908.988953 3334.524170,900.117126 
	C3340.631836,893.697876 3345.833008,886.229858 3350.452148,878.630066 
	C3355.722412,869.959290 3354.178467,859.895447 3354.012207,850.298828 
	C3353.715820,833.192078 3343.084717,822.040405 3325.075928,819.982117 
	C3325.075928,819.982117 3324.361816,819.780518 3324.239014,818.205017 
	C3322.032227,801.281250 3313.104980,792.458130 3295.233154,788.831238 
	C3290.308594,766.130554 3275.749512,759.464539 3258.423828,759.820923 
	C3243.164795,760.134644 3227.828369,759.302612 3212.604248,758.036804 
	C3192.413330,756.358093 3172.139404,754.716797 3152.183105,751.375549 
	C3105.356445,743.535522 3058.339600,736.624634 3012.153320,725.238525 
	C3006.536621,723.853821 3000.105225,723.824219 2994.423584,724.986389 
	C2968.186523,730.353271 2951.680420,759.531677 2960.096436,785.140076 
	C2962.689697,793.031250 2966.435059,800.557739 2968.806152,808.503784 
	C2970.968994,815.751282 2974.025146,823.607483 2973.095459,830.726257 
	C2970.952393,847.131409 2967.641602,863.548828 2962.985840,879.428101 
	C2951.865479,917.356750 2933.604004,952.134766 2913.263672,985.832153 
	C2909.347900,992.319824 2904.503174,998.246826 2899.996826,1002.708313 
	C2897.351318,983.723328 2893.880859,964.805847 2892.318604,945.732117 
	C2891.046143,930.193420 2891.378906,914.428101 2892.292236,898.838989 
	C2892.904053,888.394104 2893.423584,877.541321 2898.886719,867.991577 
	C2905.129883,857.078735 2910.797363,845.747742 2917.984131,835.487549 
	C2925.901611,824.184692 2930.413330,812.557922 2930.293945,798.519287 
	C2930.162842,783.108276 2921.500732,765.631409 2900.127930,760.857422 
	C2900.127930,760.857422 2899.684082,760.107239 2899.686523,758.639832 
z"/>
<path fill="#FFDE59" opacity="1.000000" stroke="none" 
	d="
M2175.684082,958.451904 
	C2185.052734,961.640320 2194.345459,965.077820 2203.804199,967.971741 
	C2235.879150,977.785095 2267.809326,987.982239 2298.277832,1002.203064 
	C2328.211426,1016.174194 2354.363525,1035.086914 2375.605469,1062.154053 
	C2376.705566,1063.618286 2377.244873,1063.973877 2377.932861,1064.104004 
	C2377.932861,1064.104004 2377.999512,1064.000000 2378.133301,1064.508789 
	C2378.820801,1065.379395 2379.374512,1065.741333 2379.927979,1066.103271 
	C2379.927979,1066.103271 2379.969727,1065.984619 2379.928223,1066.744141 
	C2382.539307,1071.665283 2385.192383,1075.826660 2387.950439,1080.709595 
	C2391.298340,1088.354858 2394.874268,1095.144165 2397.729492,1102.224121 
	C2414.644287,1144.166504 2415.647217,1187.873657 2409.336182,1231.652100 
	C2404.676025,1263.978638 2394.047119,1294.811523 2376.549072,1322.898438 
	C2360.932861,1347.964966 2341.936768,1369.904175 2318.366455,1387.826782 
	C2295.072266,1405.539429 2268.917236,1417.766113 2241.430420,1427.033936 
	C2212.199707,1436.889648 2182.445312,1444.999268 2151.593262,1448.161377 
	C2132.175049,1450.151489 2112.781738,1452.697266 2093.310059,1453.770142 
	C2072.760254,1454.902588 2052.226807,1453.719971 2031.809570,1450.263062 
	C2015.181274,1447.447632 1998.215454,1446.530518 1981.660889,1443.391724 
	C1934.753662,1434.498047 1888.214722,1423.941772 1842.703735,1409.291016 
	C1830.174072,1405.257446 1817.989136,1404.409058 1806.601318,1412.619873 
	C1805.800903,1413.197021 1804.817627,1413.514282 1803.944946,1413.998169 
	C1788.705444,1422.449219 1772.597900,1424.193359 1755.328125,1420.183594 
	C1754.904541,1420.115723 1754.048218,1420.064209 1753.599854,1419.532715 
	C1739.438599,1414.165039 1729.502197,1405.318359 1724.311523,1389.338379 
	C1717.793457,1408.522949 1704.441040,1415.520874 1687.630981,1415.822998 
	C1626.711792,1416.917480 1565.746582,1414.015015 1504.853638,1417.939453 
	C1491.271118,1418.814941 1477.664185,1419.311646 1464.081909,1420.190796 
	C1456.146606,1420.704346 1448.220947,1421.483887 1440.320801,1422.401123 
	C1424.201782,1424.272949 1408.102783,1426.318848 1391.136963,1428.223267 
	C1381.615234,1428.662231 1372.952148,1429.171143 1364.289062,1429.679932 
	C1363.167847,1429.004395 1362.126953,1428.076660 1360.913574,1427.689941 
	C1331.001709,1418.158325 1324.299561,1380.036133 1339.446167,1357.673462 
	C1343.881592,1351.124756 1347.691162,1344.152222 1352.267822,1335.942383 
	C1353.070923,1325.685181 1353.393799,1316.859619 1353.717041,1307.300537 
	C1350.924683,1292.288696 1341.371582,1284.003540 1328.428223,1279.527588 
	C1322.272705,1277.399048 1315.465088,1276.178711 1308.962524,1276.216187 
	C1290.041504,1276.325317 1271.119873,1277.138550 1252.208984,1277.929932 
	C1223.028687,1279.151245 1193.866211,1280.864746 1164.677490,1281.773926 
	C1154.538330,1282.089600 1144.917603,1283.787598 1135.476807,1287.198364 
	C1119.499146,1292.970459 1110.527100,1305.886108 1109.929321,1322.784424 
	C1109.419678,1337.197266 1113.847900,1349.712646 1123.348999,1360.255859 
	C1134.976074,1373.158203 1140.012451,1387.941162 1138.042114,1405.183960 
	C1135.638672,1426.218262 1124.301514,1442.069580 1100.225586,1441.861084 
	C1092.960083,1441.798218 1085.708618,1440.290283 1078.441650,1440.202148 
	C1038.526733,1439.717041 998.607422,1439.371216 958.742126,1442.124634 
	C958.078552,1442.170410 957.417236,1442.249390 956.754517,1442.308960 
	C942.905029,1443.552612 929.054626,1444.785645 915.206360,1446.042480 
	C906.957153,1446.791382 898.683411,1447.359985 890.472534,1448.413818 
	C883.622253,1449.293213 876.847412,1450.760742 869.131287,1451.958496 
	C858.745544,1452.092529 849.267639,1452.235474 839.088501,1452.176392 
	C829.145142,1450.047729 822.551636,1443.945557 815.706116,1437.125000 
	C805.925537,1419.308472 805.846741,1402.171631 815.531250,1385.042236 
	C816.497375,1383.333374 817.268494,1381.514282 818.660767,1379.398193 
	C820.810059,1376.966187 822.332581,1374.798584 824.063049,1372.812134 
	C834.822937,1360.460693 843.686218,1346.972168 847.330200,1330.793579 
	C851.734985,1311.237671 855.580933,1291.555786 859.668701,1271.928467 
	C868.925232,1227.381348 877.446228,1182.665894 887.585388,1138.320557 
	C911.678162,1032.947266 940.784973,928.943237 975.779602,826.645752 
	C991.929382,779.436401 1009.155396,732.601135 1031.022827,687.662842 
	C1035.953125,677.531128 1041.723633,667.703369 1048.064209,658.386902 
	C1058.317871,643.320862 1072.928467,635.763062 1091.357666,636.129089 
	C1122.947388,636.756531 1154.536743,637.396179 1187.523804,638.492676 
	C1191.281372,638.610718 1193.641479,638.266785 1196.001587,637.922791 
	C1228.230835,636.529175 1260.514404,635.872742 1292.672485,633.510681 
	C1318.809204,631.590820 1344.788086,627.557556 1370.853271,624.606079 
	C1379.437744,623.634033 1388.068848,622.594727 1396.687012,622.517151 
	C1407.753418,622.417419 1417.713135,626.420837 1425.474976,634.334717 
	C1432.442627,641.439087 1438.632080,649.306580 1445.641235,658.075012 
	C1450.702026,666.895447 1455.286255,674.478394 1459.973877,682.777222 
	C1471.362793,707.589478 1482.779175,731.625427 1493.893433,755.800415 
	C1503.197266,776.037842 1512.711182,796.206787 1521.153687,816.806885 
	C1551.524902,890.914612 1579.535278,965.932495 1606.027588,1041.505615 
	C1632.188477,1116.133423 1656.424316,1191.425171 1675.283569,1268.230469 
	C1683.651978,1302.311890 1703.577393,1328.799316 1723.946167,1356.379517 
	C1723.946167,1351.803589 1723.946167,1347.819946 1724.007812,1342.969971 
	C1724.611328,1334.850220 1725.670532,1327.590210 1725.575317,1320.345337 
	C1725.427734,1309.100220 1724.599121,1297.858398 1723.831665,1286.630615 
	C1723.587891,1283.063721 1722.619019,1279.546265 1721.982056,1276.006226 
	C1718.895020,1256.343384 1716.004639,1236.646973 1712.653687,1217.029175 
	C1710.306274,1203.286743 1706.812988,1189.729126 1704.748901,1175.951538 
	C1701.094604,1151.560059 1720.731812,1129.776245 1744.298340,1132.348389 
	C1750.985474,1133.078247 1757.764893,1136.134399 1763.760620,1139.460083 
	C1785.876465,1151.727295 1807.714111,1164.499146 1829.596558,1177.183960 
	C1866.773193,1198.734375 1906.140991,1214.472290 1948.745605,1221.069824 
	C1958.507568,1222.581543 1968.843750,1222.969971 1978.580933,1221.561768 
	C2005.148438,1217.719482 2017.304077,1197.772705 2016.260010,1175.938477 
	C2015.961548,1168.499878 2016.783447,1162.507202 2012.060791,1157.156494 
	C2008.501831,1147.316040 2001.193359,1141.503296 1993.782471,1135.919678 
	C1977.388062,1123.567627 1958.285278,1116.745605 1939.181519,1110.153687 
	C1909.384155,1099.871826 1880.013672,1088.722900 1852.837646,1072.454102 
	C1846.652710,1068.751465 1840.188599,1065.514771 1833.853027,1062.063477 
	C1833.853027,1062.063477 1833.976562,1062.008301 1833.720459,1061.526855 
	C1832.354858,1060.641724 1831.245361,1060.238037 1830.135864,1059.834473 
	C1830.135864,1059.834473 1830.033447,1059.953491 1829.881836,1059.455688 
	C1829.325439,1058.414551 1828.796265,1058.053101 1828.142944,1057.873413 
	C1828.142944,1057.873413 1828.005127,1058.001831 1827.852295,1057.490723 
	C1827.288208,1056.446533 1826.761475,1056.078857 1826.119385,1055.876831 
	C1802.802490,1035.716431 1781.389893,1013.988159 1767.922729,985.653442 
	C1758.118896,965.026672 1752.122681,943.402954 1749.640991,920.667114 
	C1744.574707,874.252686 1749.013916,828.996704 1765.422852,785.151062 
	C1785.869019,730.518250 1822.115601,689.329773 1872.682373,660.696533 
	C1910.235229,639.432129 1950.849365,627.691101 1993.480225,621.546875 
	C2029.006958,616.426514 2064.612061,616.451050 2100.131592,618.580200 
	C2148.080566,621.454407 2194.912598,631.691406 2241.095459,644.718933 
	C2254.848633,648.598511 2268.379883,653.270630 2282.152832,657.072510 
	C2291.096191,659.541321 2299.788818,658.148071 2308.277100,653.995483 
	C2322.936768,646.823914 2338.192383,645.592712 2353.859863,650.775146 
	C2369.074463,655.807617 2379.515625,665.754150 2385.615234,682.178406 
	C2385.406006,691.766541 2384.869385,699.839539 2384.226318,708.768921 
	C2383.408447,719.195618 2382.071777,728.769775 2382.131592,738.335266 
	C2382.222900,752.910217 2382.786865,767.522583 2384.065430,782.038452 
	C2385.368652,796.835632 2387.120850,811.659485 2389.878418,826.244446 
	C2392.949463,842.488953 2397.490723,858.450867 2401.186279,874.582947 
	C2407.451904,901.934082 2381.383789,921.599670 2359.640625,914.641663 
	C2344.213623,909.704773 2328.989990,903.783081 2314.305908,896.947021 
	C2285.014893,883.310791 2254.964844,871.958740 2223.584717,864.341980 
	C2203.303711,859.419189 2182.909912,854.630005 2161.751221,856.058044 
	C2140.926270,857.463562 2123.578125,867.905640 2119.065186,888.413147 
	C2117.453369,895.737427 2117.662598,903.639282 2118.138428,911.208557 
	C2119.064941,925.950073 2133.683105,943.289612 2148.291992,946.923584 
	C2156.894531,953.079651 2165.824219,956.910095 2175.684082,958.451904 
M1259.949951,928.317078 
	C1253.981689,914.800903 1248.013428,901.284729 1241.864136,886.356750 
	C1238.529541,879.492920 1235.557861,872.421387 1231.775391,865.813904 
	C1226.078979,855.863342 1218.479736,853.463135 1209.409424,858.730469 
	C1206.414551,860.469788 1203.688354,863.434570 1201.981812,866.479370 
	C1197.766602,874.000366 1193.497070,881.627014 1190.514282,889.679749 
	C1176.129639,928.516113 1162.958252,967.767273 1154.941650,1008.494507 
	C1152.526123,1020.765747 1151.066040,1033.302856 1150.284546,1045.788086 
	C1149.826172,1053.110474 1152.121216,1060.645996 1158.704590,1065.065796 
	C1165.029663,1069.312134 1172.051758,1072.561035 1181.980469,1071.904907 
	C1192.750488,1071.669312 1203.520386,1071.433594 1215.918823,1071.499390 
	C1227.191895,1070.976318 1238.475098,1070.605835 1249.734253,1069.870361 
	C1256.006226,1069.460449 1262.341553,1068.921997 1268.468628,1067.605591 
	C1284.324219,1064.198853 1293.961670,1051.130249 1291.443848,1035.416016 
	C1285.589844,998.880676 1274.440430,963.841553 1259.949951,928.317078 
z"/>
<path fill="#FFDE59" opacity="1.000000" stroke="none" 
	d="
M764.166138,1199.697388 
	C769.353516,1200.276245 774.731873,1200.174561 779.691467,1201.565552 
	C792.952087,1205.284668 800.978699,1213.954590 802.372742,1229.759521 
	C800.925049,1243.653931 799.526001,1255.834229 797.976196,1268.815918 
	C797.242493,1271.859253 796.363159,1274.070190 796.122986,1276.348389 
	C793.972534,1296.751221 791.632141,1317.141235 789.948792,1337.584351 
	C788.263428,1358.051758 787.423401,1378.587280 785.915039,1399.071045 
	C784.895142,1412.922119 783.880554,1426.809814 781.917847,1440.545898 
	C779.666809,1456.300171 770.334473,1465.524048 754.689941,1467.961182 
	C738.681335,1470.455078 722.573547,1472.332886 706.488159,1474.309204 
	C690.077026,1476.325439 673.636230,1478.099243 657.216003,1480.042969 
	C644.402710,1481.559937 631.594421,1483.123291 618.795959,1484.760620 
	C605.676514,1486.439087 592.584595,1488.336670 579.456970,1489.946167 
	C566.317871,1491.557129 553.124329,1492.737305 540.000366,1494.455322 
	C522.298584,1496.772461 504.661957,1499.588257 486.958344,1501.889893 
	C464.323517,1504.832886 441.626160,1507.298462 418.999512,1510.299805 
	C396.383148,1513.300049 373.826630,1516.748901 351.233063,1519.923828 
	C330.922882,1522.777954 310.478271,1524.859253 290.306396,1528.472900 
	C256.110626,1534.598633 222.082886,1541.662598 187.194397,1548.344482 
	C176.971085,1549.530762 167.537872,1550.704590 158.104675,1551.878418 
	C148.607590,1548.470459 139.486191,1544.538330 133.956009,1535.319214 
	C126.023048,1522.094482 123.402534,1508.162598 128.467331,1493.286255 
	C129.858200,1489.200928 131.366882,1485.077759 133.447647,1481.318481 
	C143.710129,1462.777588 146.075226,1442.794922 143.611679,1422.249268 
	C140.289490,1394.542480 136.185287,1366.929077 132.363998,1339.282959 
	C128.966522,1314.702881 125.536697,1290.127075 122.048866,1265.559692 
	C118.312805,1239.243774 114.449074,1212.945923 110.720940,1186.628906 
	C107.085571,1160.966431 103.599792,1135.282715 99.959915,1109.621094 
	C95.573822,1078.698242 91.096565,1047.788574 86.654617,1016.873657 
	C84.528023,1002.073059 82.400612,987.272583 80.258018,972.474304 
	C76.845009,948.901550 73.531555,925.313599 69.938972,901.768188 
	C68.637199,893.236450 66.792320,884.778442 64.952332,876.339844 
	C61.760117,861.699646 54.759819,849.050537 44.844460,837.839294 
	C40.447968,832.868164 36.405495,827.513550 32.750999,821.971191 
	C24.854578,809.995789 22.738571,796.772400 25.950405,782.864502 
	C29.637583,766.898132 43.878685,755.237427 60.180416,753.885010 
	C75.368706,752.625122 90.520775,750.932251 105.692757,749.471069 
	C117.596985,748.324646 129.529099,747.434387 141.410690,746.092651 
	C174.096848,742.401733 206.793854,738.778259 239.427979,734.663574 
	C269.754730,730.839783 300.018036,726.502319 330.287048,722.233521 
	C359.241394,718.150146 388.199738,714.075012 417.096588,709.609680 
	C448.573792,704.745605 480.032288,699.723328 511.407257,694.244995 
	C546.099609,688.187378 580.661194,681.382202 615.343872,675.266602 
	C622.479065,674.008423 629.942627,673.654663 637.175415,674.119629 
	C649.956787,674.941162 658.263672,682.996338 664.673157,693.340027 
	C666.942566,697.002502 669.076843,700.748596 671.658691,705.768372 
	C675.305481,716.064819 678.566467,725.049438 681.865845,734.815430 
	C682.309875,737.200867 682.636719,738.829590 683.132751,740.405151 
	C693.939453,774.732178 707.554932,807.903992 723.877319,839.982178 
	C726.274780,844.693787 728.365295,849.678284 729.747986,854.767334 
	C733.624695,869.035217 728.031067,880.678223 714.735352,887.753784 
	C704.058838,893.435486 692.554016,894.832153 680.885498,893.751892 
	C668.712463,892.624878 656.693420,889.857300 644.522766,888.675232 
	C630.667786,887.329651 616.727417,886.657532 602.808167,886.272705 
	C596.567078,886.100220 590.296692,887.481384 584.022766,887.911865 
	C562.517944,889.387512 540.958923,890.263855 519.509705,892.305420 
	C499.426239,894.217102 479.447296,897.253235 459.438507,899.916077 
	C439.756744,902.535583 420.027710,904.898682 400.445007,908.134460 
	C382.754181,911.057556 376.662720,924.925964 378.417755,939.517578 
	C379.958130,952.324097 382.209625,965.043884 384.048737,977.816101 
	C386.588593,995.454529 394.269531,1002.460754 413.207825,1003.617798 
	C422.025360,1002.559692 430.033417,1001.391968 438.921509,1000.259216 
	C442.119904,1000.151489 444.459686,1000.162659 446.753265,999.842712 
	C475.898987,995.776733 505.000122,991.365234 534.189697,987.646973 
	C562.560547,984.032959 588.926270,975.179565 613.585022,960.632812 
	C621.185608,956.148987 629.899963,953.552979 638.895752,950.138794 
	C643.111755,949.526367 646.536377,948.867676 649.960999,948.208984 
	C670.782227,948.791016 679.655212,960.299438 683.903198,978.175537 
	C685.410889,990.470276 686.749390,1001.215942 688.051270,1012.863159 
	C689.433838,1028.937378 690.083679,1044.231445 692.453308,1059.254395 
	C695.959106,1081.480835 700.541138,1103.543579 704.939697,1125.621216 
	C708.358337,1142.780396 697.144958,1161.291016 680.483765,1166.040894 
	C668.169189,1169.551392 656.176636,1167.854492 644.100769,1165.093750 
	C627.938232,1161.398804 611.734314,1157.756226 595.018005,1158.177979 
	C588.744385,1158.336182 582.493103,1159.348633 576.229797,1159.952515 
	C567.323853,1160.811523 558.382080,1161.393066 549.516418,1162.556519 
	C531.801941,1164.880981 514.118469,1167.450195 496.441772,1170.051025 
	C480.728088,1172.363159 464.981049,1174.531128 449.368622,1177.412109 
	C442.280121,1178.720093 435.204193,1180.979614 428.625458,1183.929199 
	C421.432739,1187.154053 417.446838,1193.332642 417.953949,1201.575562 
	C418.666534,1213.158203 419.211914,1224.773804 420.576721,1236.286621 
	C421.664001,1245.458130 423.937714,1254.485107 425.558350,1263.598755 
	C426.812408,1270.651245 431.271667,1274.833618 437.745819,1276.736450 
	C442.444763,1278.117310 447.408203,1278.598267 453.135406,1279.594238 
	C462.016632,1279.116089 470.016113,1278.523926 478.917358,1277.998047 
	C486.747406,1277.413086 493.723541,1277.082275 500.596039,1276.056763 
	C536.307434,1270.727661 572.181763,1266.219604 607.632141,1259.490723 
	C641.566650,1253.049805 674.466370,1242.448486 706.544556,1227.537720 
	C717.697937,1221.681641 728.282654,1216.169556 738.606262,1210.205444 
	C746.690125,1205.535034 754.787903,1201.119385 764.166138,1199.697388 
z"/>
<path fill="#FFDE59" opacity="1.000000" stroke="none" 
	d="
M2900.086914,1004.432434 
	C2904.503174,998.246826 2909.347900,992.319824 2913.263672,985.832153 
	C2933.604004,952.134766 2951.865479,917.356750 2962.985840,879.428101 
	C2967.641602,863.548828 2970.952393,847.131409 2973.095459,830.726257 
	C2974.025146,823.607483 2970.968994,815.751282 2968.806152,808.503784 
	C2966.435059,800.557739 2962.689697,793.031250 2960.096436,785.140076 
	C2951.680420,759.531677 2968.186523,730.353271 2994.423584,724.986389 
	C3000.105225,723.824219 3006.536621,723.853821 3012.153320,725.238525 
	C3058.339600,736.624634 3105.356445,743.535522 3152.183105,751.375549 
	C3172.139404,754.716797 3192.413330,756.358093 3212.604248,758.036804 
	C3227.828369,759.302612 3243.164795,760.134644 3258.423828,759.820923 
	C3275.749512,759.464539 3290.308594,766.130554 3295.555420,790.363525 
	C3294.578613,801.239624 3293.279541,810.583313 3291.446289,820.329224 
	C3287.071289,825.731445 3283.425049,830.896362 3279.350342,835.698059 
	C3269.645996,847.134216 3260.737061,858.920715 3254.573975,872.854797 
	C3238.565674,909.047791 3222.789795,945.386169 3205.309326,980.872559 
	C3190.623047,1010.686279 3174.416504,1039.823730 3157.542725,1068.470947 
	C3131.107422,1113.350464 3098.828613,1153.882446 3062.020264,1190.753540 
	C3057.100098,1195.682129 3051.710693,1200.154785 3046.407715,1204.685181 
	C3034.796143,1214.605103 3023.154053,1224.490479 3011.425537,1234.271606 
	C2998.421631,1245.116211 2985.252197,1255.761963 2972.262939,1266.623779 
	C2964.267090,1273.310059 2959.874512,1282.185303 2957.958496,1292.272339 
	C2955.983154,1302.674438 2954.019531,1313.093506 2952.568848,1323.576782 
	C2950.752441,1336.700562 2949.507080,1349.902466 2947.935791,1363.061035 
	C2946.287109,1376.869385 2944.269287,1390.640503 2942.962891,1404.479858 
	C2942.346680,1411.007202 2941.858887,1417.936523 2943.372314,1424.184814 
	C2945.699463,1433.793335 2949.053711,1443.328979 2953.315186,1452.254272 
	C2960.759033,1467.843262 2964.409912,1483.289551 2957.837891,1500.160767 
	C2951.036133,1517.621582 2933.407959,1528.694214 2915.053467,1525.702515 
	C2903.620117,1523.838989 2892.360840,1520.922852 2880.997314,1518.609131 
	C2859.891846,1514.312134 2838.830566,1509.751831 2817.630859,1505.977905 
	C2799.384277,1502.729980 2780.998535,1500.208008 2762.621094,1497.765381 
	C2745.885254,1495.540771 2729.085449,1493.781738 2712.298584,1491.961182 
	C2703.729248,1491.031738 2695.124512,1490.433228 2686.538330,1489.656616 
	C2674.347168,1488.553711 2662.158447,1487.424316 2649.079102,1486.210938 
	C2638.717773,1485.442505 2629.245361,1484.769409 2619.773193,1484.096436 
	C2613.152588,1480.409302 2605.753662,1477.639893 2600.083984,1472.831421 
	C2590.278809,1464.515625 2587.641113,1452.972656 2588.686523,1440.293945 
	C2589.629150,1428.866455 2593.893066,1419.097046 2601.461182,1410.629150 
	C2602.122070,1409.889771 2602.506592,1408.891602 2603.203125,1408.197876 
	C2623.188721,1388.288696 2629.931641,1362.751221 2633.702148,1336.031738 
	C2637.415771,1309.714355 2640.664551,1283.330688 2644.482178,1257.029053 
	C2646.173828,1245.375732 2644.547607,1234.317993 2638.983398,1224.246948 
	C2632.397949,1212.327271 2625.181885,1200.699219 2617.474854,1189.469360 
	C2605.990234,1172.734863 2594.009766,1156.331299 2581.927734,1140.018433 
	C2563.508789,1115.149048 2550.836426,1087.336670 2539.963379,1058.637817 
	C2519.739746,1005.259399 2506.616943,950.033691 2497.760254,893.725708 
	C2495.339600,878.335693 2492.386963,863.023254 2490.266846,847.594360 
	C2489.004150,838.403687 2488.769775,829.061768 2488.280273,819.776917 
	C2487.422607,803.498535 2486.426025,787.218384 2486.061768,770.926147 
	C2485.810547,759.714355 2483.205566,749.330261 2478.659424,739.136169 
	C2474.341553,729.453735 2470.000488,719.629333 2467.251465,709.440552 
	C2464.227051,698.232300 2466.210938,686.975586 2471.617432,676.534912 
	C2478.333008,663.567017 2489.348633,657.176636 2503.585693,655.809021 
	C2515.769043,654.638550 2527.303955,658.301575 2539.042236,660.553528 
	C2573.287109,667.123230 2607.477051,674.029846 2641.841553,679.909607 
	C2668.350098,684.445190 2695.060059,687.860168 2721.738525,691.326843 
	C2737.220215,693.338501 2752.811035,694.528076 2768.363525,695.970581 
	C2776.967285,696.768616 2785.593018,697.325256 2795.415527,698.406982 
	C2797.747559,698.577271 2798.873047,698.331238 2799.998779,698.085205 
	C2812.483154,698.981995 2825.094238,699.061279 2837.420654,700.975586 
	C2854.138184,703.571838 2865.527100,713.303101 2870.328613,731.550293 
	C2870.784912,736.890930 2871.550049,740.716187 2871.417480,744.510132 
	C2871.261230,748.982666 2870.328369,753.428040 2869.224854,758.334412 
	C2864.276611,766.185425 2860.659668,774.263611 2855.242676,780.864258 
	C2837.856689,802.048523 2832.325684,826.692749 2832.009277,853.240479 
	C2831.763672,873.851746 2833.187500,894.293579 2835.781250,914.756836 
	C2839.215820,941.851624 2844.777832,968.386047 2854.456787,993.907959 
	C2857.247559,1001.266052 2861.604492,1008.174377 2866.098145,1014.700256 
	C2870.314209,1020.823242 2875.541016,1021.957275 2882.824219,1019.830811 
	C2891.301758,1017.124451 2896.670166,1011.829102 2900.086914,1004.432434 
z"/>
<path fill="#E6DFC4" opacity="1.000000" stroke="none" 
	d="
M3325.763916,820.260071 
	C3343.084717,822.040405 3353.715820,833.192078 3354.012207,850.298828 
	C3354.178467,859.895447 3355.722412,869.959290 3350.452148,878.630066 
	C3345.833008,886.229858 3340.631836,893.697876 3334.524170,900.117126 
	C3326.083252,908.988953 3320.180176,919.006226 3315.491455,930.215027 
	C3307.154785,950.144287 3298.183838,969.812561 3289.244873,989.484131 
	C3280.990479,1007.649475 3273.100586,1026.027466 3263.847656,1043.681274 
	C3249.960205,1070.176880 3235.813721,1096.602661 3220.293457,1122.156860 
	C3206.522461,1144.830933 3191.336914,1166.720581 3175.677490,1188.154297 
	C3155.623291,1215.603149 3132.595703,1240.677856 3107.207764,1263.206909 
	C3086.887207,1281.239014 3064.813232,1297.294556 3043.527588,1314.239746 
	C3030.479248,1324.627441 3019.822754,1336.776855 3016.489746,1353.701294 
	C3014.572754,1363.435181 3013.418701,1373.323975 3012.063721,1383.162476 
	C3010.077393,1397.583008 3007.985352,1411.995239 3006.370117,1426.459106 
	C3004.642334,1441.929932 3003.256104,1457.443970 3002.025391,1472.963257 
	C3001.161621,1483.854614 3004.389893,1493.974121 3008.858398,1503.769287 
	C3011.755859,1510.120483 3015.017578,1516.366577 3017.229248,1522.957397 
	C3022.562500,1538.851929 3021.259766,1554.140137 3012.692139,1568.936035 
	C3006.095703,1580.328247 2986.205811,1588.135864 2973.632324,1585.053345 
	C2948.866699,1578.981934 2923.934570,1573.452759 2898.869873,1568.778687 
	C2875.458252,1564.412964 2851.811035,1561.268677 2828.220459,1557.916626 
	C2808.238037,1555.077148 2788.215576,1552.469971 2768.158447,1550.226807 
	C2756.962158,1548.974609 2745.634766,1548.939819 2734.410645,1547.885376 
	C2715.298828,1546.089844 2696.076172,1544.793213 2677.178711,1541.624756 
	C2663.143799,1539.271606 2653.438965,1530.239746 2650.764160,1514.886841 
	C2658.215088,1514.638794 2664.800537,1515.344116 2671.400635,1515.858032 
	C2689.248535,1517.247559 2707.132568,1518.247925 2724.947021,1519.971069 
	C2749.333008,1522.329956 2773.721680,1524.803589 2798.009277,1527.990356 
	C2820.983887,1531.004761 2843.930908,1534.459717 2866.704346,1538.714478 
	C2892.426514,1543.519897 2917.941650,1549.433838 2943.546875,1554.864868 
	C2959.039062,1558.150879 2973.733398,1552.385010 2982.486816,1539.119751 
	C2992.052002,1524.623657 2994.257324,1509.163940 2987.353516,1492.872192 
	C2984.629639,1486.444824 2981.768799,1480.073853 2978.881104,1473.717896 
	C2974.573486,1464.235840 2971.260498,1454.455322 2972.107666,1443.907104 
	C2973.354004,1428.389282 2974.784424,1412.875732 2976.626953,1397.418945 
	C2978.820557,1379.017944 2981.277832,1360.639160 2984.122314,1342.328613 
	C2985.688721,1332.247559 2986.140625,1322.000732 2990.568848,1312.331055 
	C2997.394775,1297.425171 3009.471680,1287.778931 3021.826172,1278.119263 
	C3039.343018,1264.423218 3057.500488,1251.412964 3073.974121,1236.546875 
	C3100.662842,1212.461914 3125.259521,1186.206055 3147.007324,1157.488281 
	C3176.791016,1118.158813 3201.939453,1075.887451 3224.716553,1032.213379 
	C3234.714111,1013.043701 3243.973145,993.470581 3253.021973,973.829407 
	C3262.476074,953.308899 3271.236572,932.469421 3280.372559,911.801392 
	C3287.633301,895.375916 3294.877197,879.102173 3308.381104,866.305481 
	C3321.370361,853.996765 3326.539795,838.092224 3325.763916,820.260071 
z"/>
<path fill="#CABB80" opacity="1.000000" stroke="none" 
	d="
M3325.419922,820.121094 
	C3326.539795,838.092224 3321.370361,853.996765 3308.381104,866.305481 
	C3294.877197,879.102173 3287.633301,895.375916 3280.372559,911.801392 
	C3271.236572,932.469421 3262.476074,953.308899 3253.021973,973.829407 
	C3243.973145,993.470581 3234.714111,1013.043701 3224.716553,1032.213379 
	C3201.939453,1075.887451 3176.791016,1118.158813 3147.007324,1157.488281 
	C3125.259521,1186.206055 3100.662842,1212.461914 3073.974121,1236.546875 
	C3057.500488,1251.412964 3039.343018,1264.423218 3021.826172,1278.119263 
	C3009.471680,1287.778931 2997.394775,1297.425171 2990.568848,1312.331055 
	C2986.140625,1322.000732 2985.688721,1332.247559 2984.122314,1342.328613 
	C2981.277832,1360.639160 2978.820557,1379.017944 2976.626953,1397.418945 
	C2974.784424,1412.875732 2973.354004,1428.389282 2972.107666,1443.907104 
	C2971.260498,1454.455322 2974.573486,1464.235840 2978.881104,1473.717896 
	C2981.768799,1480.073853 2984.629639,1486.444824 2987.353516,1492.872192 
	C2994.257324,1509.163940 2992.052002,1524.623657 2982.486816,1539.119751 
	C2973.733398,1552.385010 2959.039062,1558.150879 2943.546875,1554.864868 
	C2917.941650,1549.433838 2892.426514,1543.519897 2866.704346,1538.714478 
	C2843.930908,1534.459717 2820.983887,1531.004761 2798.009277,1527.990356 
	C2773.721680,1524.803589 2749.333008,1522.329956 2724.947021,1519.971069 
	C2707.132568,1518.247925 2689.248535,1517.247559 2671.400635,1515.858032 
	C2664.800537,1515.344116 2658.215088,1514.638794 2650.713379,1514.153320 
	C2649.158936,1514.097412 2648.632812,1513.735962 2648.077637,1511.833984 
	C2648.609375,1502.413086 2649.289062,1494.359619 2649.968750,1486.306274 
	C2662.158447,1487.424316 2674.347168,1488.553711 2686.538330,1489.656616 
	C2695.124512,1490.433228 2703.729248,1491.031738 2712.298584,1491.961182 
	C2729.085449,1493.781738 2745.885254,1495.540771 2762.621094,1497.765381 
	C2780.998535,1500.208008 2799.384277,1502.729980 2817.630859,1505.977905 
	C2838.830566,1509.751831 2859.891846,1514.312134 2880.997314,1518.609131 
	C2892.360840,1520.922852 2903.620117,1523.838989 2915.053467,1525.702515 
	C2933.407959,1528.694214 2951.036133,1517.621582 2957.837891,1500.160767 
	C2964.409912,1483.289551 2960.759033,1467.843262 2953.315186,1452.254272 
	C2949.053711,1443.328979 2945.699463,1433.793335 2943.372314,1424.184814 
	C2941.858887,1417.936523 2942.346680,1411.007202 2942.962891,1404.479858 
	C2944.269287,1390.640503 2946.287109,1376.869385 2947.935791,1363.061035 
	C2949.507080,1349.902466 2950.752441,1336.700562 2952.568848,1323.576782 
	C2954.019531,1313.093506 2955.983154,1302.674438 2957.958496,1292.272339 
	C2959.874512,1282.185303 2964.267090,1273.310059 2972.262939,1266.623779 
	C2985.252197,1255.761963 2998.421631,1245.116211 3011.425537,1234.271606 
	C3023.154053,1224.490479 3034.796143,1214.605103 3046.407715,1204.685181 
	C3051.710693,1200.154785 3057.100098,1195.682129 3062.020264,1190.753540 
	C3098.828613,1153.882446 3131.107422,1113.350464 3157.542725,1068.470947 
	C3174.416504,1039.823730 3190.623047,1010.686279 3205.309326,980.872559 
	C3222.789795,945.386169 3238.565674,909.047791 3254.573975,872.854797 
	C3260.737061,858.920715 3269.645996,847.134216 3279.350342,835.698059 
	C3283.425049,830.896362 3287.071289,825.731445 3292.382324,820.344604 
	C3304.022217,819.898621 3314.192139,819.839539 3324.361816,819.780518 
	C3324.361816,819.780518 3325.075928,819.982117 3325.419922,820.121094 
z"/>
<path fill="#E6DFC4" opacity="1.000000" stroke="none" 
	d="
M2412.185547,1099.856567 
	C2420.299316,1102.468018 2424.960449,1109.386108 2429.875977,1115.358643 
	C2449.694580,1139.439087 2461.638916,1167.294067 2467.997314,1197.764526 
	C2473.010742,1221.788574 2473.358887,1246.139771 2471.563477,1270.268433 
	C2469.542480,1297.427979 2462.858154,1323.806641 2452.489502,1349.270874 
	C2437.715820,1385.552734 2414.821289,1415.837402 2385.446533,1441.114136 
	C2363.835938,1459.710449 2338.440430,1472.231445 2311.812744,1482.378174 
	C2284.721924,1492.701050 2256.793457,1499.999878 2228.417725,1505.264526 
	C2207.602051,1509.126343 2186.545654,1512.161499 2165.206543,1512.150513 
	C2158.609375,1512.147095 2151.973145,1514.071411 2145.421143,1513.753174 
	C2123.252930,1512.676758 2101.033936,1512.237427 2079.061279,1508.315308 
	C2057.881104,1504.534668 2036.357178,1502.431519 2015.387817,1497.774536 
	C1982.380615,1490.443970 1949.703003,1481.625244 1916.906860,1473.353271 
	C1910.474243,1471.730835 1904.064697,1469.946899 1897.771362,1467.855835 
	C1886.912231,1464.247925 1876.927612,1466.160278 1867.050903,1471.406738 
	C1855.556763,1477.512695 1843.831299,1483.081055 1830.180664,1482.030518 
	C1815.406128,1480.893433 1802.021851,1476.475342 1792.209595,1464.872070 
	C1789.182373,1461.292236 1787.917847,1456.221680 1786.661377,1451.062256 
	C1791.397827,1450.881714 1795.302124,1451.654663 1799.244141,1452.029907 
	C1812.051025,1453.249634 1823.655273,1449.259399 1834.351318,1442.794556 
	C1847.357544,1434.933350 1860.319458,1435.230957 1874.522583,1439.595337 
	C1898.942139,1447.098633 1923.628540,1453.838379 1948.439209,1459.937500 
	C1980.946655,1467.928467 2013.866211,1473.880005 2047.070435,1478.427124 
	C2071.123535,1481.720947 2095.204102,1483.749268 2119.443359,1483.804321 
	C2127.041748,1483.821655 2134.661865,1482.867188 2142.238770,1482.048218 
	C2161.667725,1479.948486 2181.270020,1478.728760 2200.451416,1475.229980 
	C2230.843506,1469.686401 2260.564941,1461.349976 2289.418945,1449.985840 
	C2328.623779,1434.545288 2362.123535,1411.316650 2388.378662,1378.267700 
	C2419.873291,1338.623657 2436.875732,1292.835815 2441.500244,1242.851807 
	C2443.353271,1222.822754 2441.369873,1202.337036 2439.995361,1182.136475 
	C2438.205322,1155.822021 2428.716064,1131.724731 2416.297852,1108.691895 
	C2414.759033,1105.837524 2413.548340,1102.806030 2412.185547,1099.856567 
z"/>
<path fill="#CABB80" opacity="1.000000" stroke="none" 
	d="
M2411.609375,1099.522949 
	C2413.548340,1102.806030 2414.759033,1105.837524 2416.297852,1108.691895 
	C2428.716064,1131.724731 2438.205322,1155.822021 2439.995361,1182.136475 
	C2441.369873,1202.337036 2443.353271,1222.822754 2441.500244,1242.851807 
	C2436.875732,1292.835815 2419.873291,1338.623657 2388.378662,1378.267700 
	C2362.123535,1411.316650 2328.623779,1434.545288 2289.418945,1449.985840 
	C2260.564941,1461.349976 2230.843506,1469.686401 2200.451416,1475.229980 
	C2181.270020,1478.728760 2161.667725,1479.948486 2142.238770,1482.048218 
	C2134.661865,1482.867188 2127.041748,1483.821655 2119.443359,1483.804321 
	C2095.204102,1483.749268 2071.123535,1481.720947 2047.070435,1478.427124 
	C2013.866211,1473.880005 1980.946655,1467.928467 1948.439209,1459.937500 
	C1923.628540,1453.838379 1898.942139,1447.098633 1874.522583,1439.595337 
	C1860.319458,1435.230957 1847.357544,1434.933350 1834.351318,1442.794556 
	C1823.655273,1449.259399 1812.051025,1453.249634 1799.244141,1452.029907 
	C1795.302124,1451.654663 1791.397827,1450.881714 1786.627197,1450.306763 
	C1784.936035,1450.147949 1784.093994,1449.973267 1782.211914,1449.256836 
	C1777.828491,1446.719971 1774.452759,1444.776611 1771.148193,1442.719482 
	C1762.742798,1437.486816 1757.032471,1430.379761 1755.751587,1420.251587 
	C1772.597900,1424.193359 1788.705444,1422.449219 1803.944946,1413.998169 
	C1804.817627,1413.514282 1805.800903,1413.197021 1806.601318,1412.619873 
	C1817.989136,1404.409058 1830.174072,1405.257446 1842.703735,1409.291016 
	C1888.214722,1423.941772 1934.753662,1434.498047 1981.660889,1443.391724 
	C1998.215454,1446.530518 2015.181274,1447.447632 2031.809570,1450.263062 
	C2052.226807,1453.719971 2072.760254,1454.902588 2093.310059,1453.770142 
	C2112.781738,1452.697266 2132.175049,1450.151489 2151.593262,1448.161377 
	C2182.445312,1444.999268 2212.199707,1436.889648 2241.430420,1427.033936 
	C2268.917236,1417.766113 2295.072266,1405.539429 2318.366455,1387.826782 
	C2341.936768,1369.904175 2360.932861,1347.964966 2376.549072,1322.898438 
	C2394.047119,1294.811523 2404.676025,1263.978638 2409.336182,1231.652100 
	C2415.647217,1187.873657 2414.644287,1144.166504 2397.729492,1102.224121 
	C2394.874268,1095.144165 2391.298340,1088.354858 2388.720215,1080.710938 
	C2390.916504,1079.997925 2392.448242,1080.005005 2393.979736,1080.012085 
	C2399.664307,1086.404541 2405.348877,1092.796997 2411.609375,1099.522949 
z"/>
<path fill="#CABB80" opacity="1.000000" stroke="none" 
	d="
M187.984497,1548.332275 
	C222.082886,1541.662598 256.110626,1534.598633 290.306396,1528.472900 
	C310.478271,1524.859253 330.922882,1522.777954 351.233063,1519.923828 
	C373.826630,1516.748901 396.383148,1513.300049 418.999512,1510.299805 
	C441.626160,1507.298462 464.323517,1504.832886 486.958344,1501.889893 
	C504.661957,1499.588257 522.298584,1496.772461 540.000366,1494.455322 
	C553.124329,1492.737305 566.317871,1491.557129 579.456970,1489.946167 
	C592.584595,1488.336670 605.676514,1486.439087 618.795959,1484.760620 
	C631.594421,1483.123291 644.402710,1481.559937 657.216003,1480.042969 
	C673.636230,1478.099243 690.077026,1476.325439 706.488159,1474.309204 
	C722.573547,1472.332886 738.681335,1470.455078 754.689941,1467.961182 
	C770.334473,1465.524048 779.666809,1456.300171 781.917847,1440.545898 
	C783.880554,1426.809814 784.895142,1412.922119 785.915039,1399.071045 
	C787.423401,1378.587280 788.263428,1358.051758 789.948792,1337.584351 
	C791.632141,1317.141235 793.972534,1296.751221 796.122986,1276.348389 
	C796.363159,1274.070190 797.242493,1271.859253 798.693726,1268.733643 
	C809.846252,1262.641846 820.385254,1258.462280 832.277466,1259.743774 
	C832.277466,1259.743774 832.408997,1259.603882 832.332947,1260.558350 
	C830.971008,1271.676880 829.743347,1281.848755 828.374146,1292.001709 
	C827.710449,1296.923462 826.620972,1301.789185 826.004456,1306.715332 
	C824.442322,1319.197754 822.944397,1331.689819 821.598572,1344.197144 
	C820.324829,1356.034180 819.277222,1367.895630 818.130188,1379.746338 
	C817.268494,1381.514282 816.497375,1383.333374 815.531250,1385.042236 
	C805.846741,1402.171631 805.925537,1419.308472 815.399902,1437.917236 
	C814.950256,1442.957031 814.590820,1446.566528 814.057129,1450.149902 
	C812.695251,1459.293091 812.189209,1468.700073 809.596924,1477.487061 
	C806.738770,1487.175171 799.838318,1494.233765 789.337402,1496.049072 
	C772.399414,1498.977417 755.396057,1501.545288 738.386414,1504.033813 
	C730.855652,1505.135620 723.231995,1505.586914 715.667969,1506.480713 
	C700.559021,1508.266479 685.466187,1510.188354 670.359009,1511.989380 
	C657.538879,1513.517578 644.689880,1514.815186 631.886047,1516.466187 
	C613.515198,1518.834717 595.193787,1521.590698 576.814392,1523.886597 
	C558.092957,1526.225098 539.294983,1527.962036 520.588745,1530.407837 
	C498.286377,1533.323608 476.066223,1536.864136 453.772980,1539.854614 
	C431.467957,1542.846680 409.086243,1545.273682 386.794495,1548.356201 
	C365.825409,1551.255737 344.866974,1554.327637 324.017365,1557.972778 
	C295.983002,1562.874023 268.068970,1568.460083 240.081360,1573.633423 
	C222.854218,1576.817871 205.964767,1582.187378 188.175903,1581.822510 
	C187.867798,1581.229370 187.432739,1580.752075 186.447678,1579.209106 
	C186.677917,1568.129272 187.331223,1558.230835 187.984497,1548.332275 
z"/>
<path fill="#E6DFC4" opacity="1.000000" stroke="none" 
	d="
M188.171982,1582.569580 
	C205.964767,1582.187378 222.854218,1576.817871 240.081360,1573.633423 
	C268.068970,1568.460083 295.983002,1562.874023 324.017365,1557.972778 
	C344.866974,1554.327637 365.825409,1551.255737 386.794495,1548.356201 
	C409.086243,1545.273682 431.467957,1542.846680 453.772980,1539.854614 
	C476.066223,1536.864136 498.286377,1533.323608 520.588745,1530.407837 
	C539.294983,1527.962036 558.092957,1526.225098 576.814392,1523.886597 
	C595.193787,1521.590698 613.515198,1518.834717 631.886047,1516.466187 
	C644.689880,1514.815186 657.538879,1513.517578 670.359009,1511.989380 
	C685.466187,1510.188354 700.559021,1508.266479 715.667969,1506.480713 
	C723.231995,1505.586914 730.855652,1505.135620 738.386414,1504.033813 
	C755.396057,1501.545288 772.399414,1498.977417 789.337402,1496.049072 
	C799.838318,1494.233765 806.738770,1487.175171 809.596924,1477.487061 
	C812.189209,1468.700073 812.695251,1459.293091 814.057129,1450.149902 
	C814.590820,1446.566528 814.950256,1442.957031 815.695312,1438.567261 
	C822.551636,1443.945557 829.145142,1450.047729 839.150635,1452.889160 
	C841.966003,1458.469116 844.017944,1463.134521 846.069824,1467.799805 
	C845.389893,1471.597290 844.654419,1475.385864 844.041138,1479.194092 
	C842.623718,1487.994751 841.828491,1496.941284 839.738892,1505.576538 
	C837.198364,1516.074951 830.102966,1523.197388 819.602295,1525.727783 
	C808.697083,1528.355957 797.599487,1530.420898 786.472656,1531.848145 
	C758.587769,1535.424438 730.645020,1538.555054 702.713318,1541.758789 
	C683.646301,1543.945557 664.532898,1545.744507 645.488159,1548.104004 
	C627.770996,1550.299072 610.133362,1553.129639 592.430298,1555.447510 
	C579.306274,1557.165649 566.124207,1558.436157 552.984863,1560.043579 
	C540.837036,1561.529663 528.706299,1563.160278 516.577637,1564.797852 
	C504.125580,1566.479248 491.685699,1568.250610 479.239349,1569.973999 
	C460.898956,1572.513550 442.565979,1575.108521 424.214020,1577.561768 
	C407.489044,1579.797485 390.692200,1581.545288 374.019012,1584.106812 
	C352.769379,1587.371216 331.550232,1590.911621 310.430725,1594.926147 
	C283.122986,1600.117065 255.948151,1606.003174 228.673615,1611.374146 
	C214.282288,1614.208130 196.082672,1603.488525 190.031250,1588.987183 
	C189.267380,1587.156738 188.782303,1585.209717 188.171982,1582.569580 
z"/>
<path fill="#E6DFC4" opacity="1.000000" stroke="none" 
	d="
M1353.716797,1308.033936 
	C1353.393799,1316.859619 1353.070923,1325.685181 1352.353638,1335.243774 
	C1323.705566,1336.686401 1295.448730,1337.296997 1267.199341,1338.150024 
	C1254.265381,1338.540527 1241.330811,1339.195923 1228.423950,1340.115601 
	C1214.142700,1341.133301 1200.112793,1343.254028 1187.184570,1350.211548 
	C1181.015991,1353.531250 1176.374878,1357.930908 1173.803833,1364.389526 
	C1167.247681,1380.858276 1167.823364,1396.882812 1177.378784,1412.111084 
	C1180.374023,1416.884521 1183.783691,1421.417480 1187.234741,1425.881958 
	C1200.894775,1443.553101 1201.573120,1462.946899 1192.472168,1482.147705 
	C1185.131104,1497.635010 1172.210693,1503.609619 1153.441284,1501.449097 
	C1149.171509,1500.957397 1144.905884,1500.298096 1140.620483,1500.099365 
	C1124.365356,1499.345825 1108.087280,1497.968018 1091.847290,1498.293823 
	C1071.974487,1498.692505 1052.130615,1500.553345 1032.275879,1501.810059 
	C1021.683838,1502.480225 1011.077026,1503.003784 1000.509460,1503.955688 
	C980.721985,1505.737671 960.968079,1507.892700 941.180725,1509.676758 
	C929.953674,1510.689087 918.647400,1510.905273 907.449585,1512.140137 
	C892.376953,1513.802246 872.261902,1499.228149 870.818115,1482.924072 
	C880.356750,1481.964233 889.053162,1482.331665 897.642944,1481.540649 
	C914.100891,1480.025146 930.483276,1477.707520 946.926147,1476.003906 
	C957.141174,1474.945312 967.414734,1474.464722 977.652832,1473.613647 
	C991.171997,1472.489990 1004.664917,1470.548096 1018.199829,1470.217896 
	C1047.701294,1469.498047 1077.222900,1469.606323 1106.733887,1470.143311 
	C1111.012695,1470.221069 1115.282593,1470.973999 1119.549927,1471.471191 
	C1140.555176,1473.918091 1154.634399,1469.700562 1164.423218,1448.738647 
	C1169.183716,1438.544434 1168.804688,1427.460327 1167.173096,1416.449341 
	C1165.583130,1405.720459 1159.277832,1397.585083 1152.639648,1389.690308 
	C1142.177734,1377.247925 1138.085571,1362.961792 1140.104492,1347.002808 
	C1142.116943,1331.095215 1152.090454,1321.537354 1166.458862,1316.175293 
	C1178.389404,1311.722900 1191.061157,1310.959473 1203.605713,1310.188232 
	C1213.558716,1309.576172 1223.586548,1310.243774 1233.551514,1309.748535 
	C1253.737793,1308.745239 1273.890869,1307.011963 1294.082642,1306.206299 
	C1309.039307,1305.609619 1324.037964,1305.831909 1339.012451,1306.053223 
	C1343.922607,1306.125854 1348.815796,1307.341187 1353.716797,1308.033936 
z"/>
<path fill="#CABB80" opacity="1.000000" stroke="none" 
	d="
M1353.717041,1307.300537 
	C1348.815796,1307.341187 1343.922607,1306.125854 1339.012451,1306.053223 
	C1324.037964,1305.831909 1309.039307,1305.609619 1294.082642,1306.206299 
	C1273.890869,1307.011963 1253.737793,1308.745239 1233.551514,1309.748535 
	C1223.586548,1310.243774 1213.558716,1309.576172 1203.605713,1310.188232 
	C1191.061157,1310.959473 1178.389404,1311.722900 1166.458862,1316.175293 
	C1152.090454,1321.537354 1142.116943,1331.095215 1140.104492,1347.002808 
	C1138.085571,1362.961792 1142.177734,1377.247925 1152.639648,1389.690308 
	C1159.277832,1397.585083 1165.583130,1405.720459 1167.173096,1416.449341 
	C1168.804688,1427.460327 1169.183716,1438.544434 1164.423218,1448.738647 
	C1154.634399,1469.700562 1140.555176,1473.918091 1119.549927,1471.471191 
	C1115.282593,1470.973999 1111.012695,1470.221069 1106.733887,1470.143311 
	C1077.222900,1469.606323 1047.701294,1469.498047 1018.199829,1470.217896 
	C1004.664917,1470.548096 991.171997,1472.489990 977.652832,1473.613647 
	C967.414734,1474.464722 957.141174,1474.945312 946.926147,1476.003906 
	C930.483276,1477.707520 914.100891,1480.025146 897.642944,1481.540649 
	C889.053162,1482.331665 880.356750,1481.964233 870.760132,1482.191650 
	C869.811707,1482.263306 868.989868,1481.852661 868.533691,1480.772095 
	C868.731323,1470.450195 869.385254,1461.208984 870.039185,1451.967651 
	C876.847412,1450.760742 883.622253,1449.293213 890.472534,1448.413818 
	C898.683411,1447.359985 906.957153,1446.791382 915.206360,1446.042480 
	C929.054626,1444.785645 942.905029,1443.552612 956.754517,1442.308960 
	C957.417236,1442.249390 958.078552,1442.170410 958.742126,1442.124634 
	C998.607422,1439.371216 1038.526733,1439.717041 1078.441650,1440.202148 
	C1085.708618,1440.290283 1092.960083,1441.798218 1100.225586,1441.861084 
	C1124.301514,1442.069580 1135.638672,1426.218262 1138.042114,1405.183960 
	C1140.012451,1387.941162 1134.976074,1373.158203 1123.348999,1360.255859 
	C1113.847900,1349.712646 1109.419678,1337.197266 1109.929321,1322.784424 
	C1110.527100,1305.886108 1119.499146,1292.970459 1135.476807,1287.198364 
	C1144.917603,1283.787598 1154.538330,1282.089600 1164.677490,1281.773926 
	C1193.866211,1280.864746 1223.028687,1279.151245 1252.208984,1277.929932 
	C1271.119873,1277.138550 1290.041504,1276.325317 1308.962524,1276.216187 
	C1315.465088,1276.178711 1322.272705,1277.399048 1328.428223,1279.527588 
	C1341.371582,1284.003540 1350.924683,1292.288696 1353.717041,1307.300537 
z"/>
<path fill="#CABB80" opacity="1.000000" stroke="none" 
	d="
M412.398315,1003.508240 
	C394.269531,1002.460754 386.588593,995.454529 384.048737,977.816101 
	C382.209625,965.043884 379.958130,952.324097 378.417755,939.517578 
	C376.662720,924.925964 382.754181,911.057556 400.445007,908.134460 
	C420.027710,904.898682 439.756744,902.535583 459.438507,899.916077 
	C479.447296,897.253235 499.426239,894.217102 519.509705,892.305420 
	C540.958923,890.263855 562.517944,889.387512 584.022766,887.911865 
	C590.296692,887.481384 596.567078,886.100220 602.808167,886.272705 
	C616.727417,886.657532 630.667786,887.329651 644.522766,888.675232 
	C656.693420,889.857300 668.712463,892.624878 680.885498,893.751892 
	C692.554016,894.832153 704.058838,893.435486 714.735352,887.753784 
	C728.031067,880.678223 733.624695,869.035217 729.747986,854.767334 
	C728.365295,849.678284 726.274780,844.693787 723.877319,839.982178 
	C707.554932,807.903992 693.939453,774.732178 683.132751,740.405151 
	C682.636719,738.829590 682.309875,737.200867 682.621582,734.499023 
	C688.283569,732.900330 693.228210,732.399414 698.172913,731.898560 
	C699.279907,732.915833 700.386902,733.933105 701.758301,736.206665 
	C703.282410,741.221680 704.641418,744.950500 705.786377,748.743835 
	C717.037659,786.019714 730.384888,822.479065 747.679871,857.430847 
	C751.501892,865.155029 755.128906,872.999207 758.371033,880.980957 
	C762.754211,891.771912 759.962708,905.889038 752.242981,912.367859 
	C746.317078,917.341125 739.398376,920.231201 731.786499,922.146973 
	C718.418518,925.511536 705.431030,922.065796 692.330627,921.002136 
	C676.170898,919.690063 660.067627,916.471191 643.930054,916.402405 
	C623.420471,916.314880 602.898926,918.528564 582.386597,919.814087 
	C571.797302,920.477600 561.209839,921.194519 550.634338,922.045837 
	C542.377014,922.710571 534.120789,923.465332 525.897095,924.454956 
	C511.444031,926.194092 496.995087,927.994873 482.583252,930.042908 
	C465.223297,932.509827 447.777802,934.631165 430.601593,938.064209 
	C412.745544,941.633057 405.445129,953.893311 408.353424,971.996094 
	C410.032379,982.447021 411.071289,993.000793 412.398315,1003.508240 
z"/>
<path fill="#E6DFC4" opacity="1.000000" stroke="none" 
	d="
M413.207825,1003.617798 
	C411.071289,993.000793 410.032379,982.447021 408.353424,971.996094 
	C405.445129,953.893311 412.745544,941.633057 430.601593,938.064209 
	C447.777802,934.631165 465.223297,932.509827 482.583252,930.042908 
	C496.995087,927.994873 511.444031,926.194092 525.897095,924.454956 
	C534.120789,923.465332 542.377014,922.710571 550.634338,922.045837 
	C561.209839,921.194519 571.797302,920.477600 582.386597,919.814087 
	C602.898926,918.528564 623.420471,916.314880 643.930054,916.402405 
	C660.067627,916.471191 676.170898,919.690063 692.330627,921.002136 
	C705.431030,922.065796 718.418518,925.511536 731.786499,922.146973 
	C739.398376,920.231201 746.317078,917.341125 752.242981,912.367859 
	C759.962708,905.889038 762.754211,891.771912 758.371033,880.980957 
	C755.128906,872.999207 751.501892,865.155029 747.679871,857.430847 
	C730.384888,822.479065 717.037659,786.019714 705.786377,748.743835 
	C704.641418,744.950500 703.282410,741.221680 702.073792,736.677856 
	C714.025391,736.012024 719.429138,745.188171 724.330811,753.473206 
	C729.342285,761.943909 732.833130,771.486389 735.878601,780.918396 
	C749.366272,822.690308 764.936218,863.580505 785.113281,902.644104 
	C787.360229,906.994385 789.182678,911.880859 789.800720,916.698425 
	C792.005920,933.885803 780.175964,947.852905 762.350891,952.138855 
	C750.229492,955.053345 738.455261,953.087219 726.881409,951.450867 
	C701.884705,947.916870 676.945679,945.049744 649.998047,946.091675 
	C645.111450,946.730164 641.895325,947.361633 637.680908,947.967773 
	C619.871155,949.238586 603.051453,950.437134 586.250549,951.859192 
	C570.436401,953.197815 554.609863,954.491699 538.847412,956.313049 
	C518.838257,958.625122 498.851501,961.202271 478.929688,964.166382 
	C470.140900,965.474121 461.516174,967.934998 452.853607,970.024231 
	C446.118164,971.648560 441.529419,976.163269 439.911621,982.609924 
	C438.488586,988.280701 438.604950,994.337769 438.041443,1000.224243 
	C430.033417,1001.391968 422.025360,1002.559692 413.207825,1003.617798 
z"/>
<path fill="#E6DFC4" opacity="1.000000" stroke="none" 
	d="
M764.133118,1198.800171 
	C754.787903,1201.119385 746.690125,1205.535034 738.606262,1210.205444 
	C728.282654,1216.169556 717.697937,1221.681641 706.200928,1226.913696 
	C693.608215,1221.179077 681.287842,1218.487183 668.765869,1218.238159 
	C655.202209,1217.968262 641.577942,1218.944946 628.033142,1220.036133 
	C615.176331,1221.072021 602.359924,1222.755249 589.575867,1224.516968 
	C567.628418,1227.541626 545.659180,1230.489380 523.819702,1234.182495 
	C512.129578,1236.159546 500.601837,1239.309570 489.175049,1242.545410 
	C483.024780,1244.287109 479.998840,1249.401978 477.698456,1255.398682 
	C474.718475,1263.167114 476.974152,1270.448242 478.015625,1277.931885 
	C470.016113,1278.523926 462.016632,1279.116089 453.058777,1278.791260 
	C450.559357,1265.733521 449.329742,1253.542847 447.399078,1241.464233 
	C444.927704,1226.002808 450.439728,1214.330200 465.246796,1210.800659 
	C484.818481,1206.135376 504.848022,1203.329712 524.739807,1200.087158 
	C541.378357,1197.374756 558.070862,1194.937134 574.796814,1192.833984 
	C589.889709,1190.936279 605.035950,1189.334839 620.202881,1188.186890 
	C638.617798,1186.792969 656.440063,1190.980835 674.210815,1195.093384 
	C685.940857,1197.808105 697.691040,1199.758179 709.515442,1195.791016 
	C722.052185,1191.584839 731.075928,1183.421265 733.660278,1170.303345 
	C735.044312,1163.278320 734.708618,1155.576294 733.524841,1148.449585 
	C730.491333,1130.187622 726.130798,1112.145874 723.105652,1093.882690 
	C720.784607,1079.870239 719.648804,1065.659180 718.060181,1051.528198 
	C716.434875,1037.070312 714.900146,1022.602234 713.519287,1008.083740 
	C713.712891,1008.028809 714.112366,1007.980591 714.112366,1007.980591 
	C734.221313,1010.429932 741.332397,1023.975708 743.810303,1041.131348 
	C745.975891,1056.124756 746.184082,1071.395020 748.184326,1086.419434 
	C751.357727,1110.255615 755.011414,1134.038330 759.037781,1157.745972 
	C761.302673,1171.081543 765.400940,1184.133423 764.133118,1198.800171 
z"/>
<path fill="#E6DFC4" opacity="1.000000" stroke="none" 
	d="
M2175.881348,957.650879 
	C2165.824219,956.910095 2156.894531,953.079651 2148.331299,946.045654 
	C2146.068604,936.425964 2146.145020,928.340881 2147.937256,920.047668 
	C2151.609131,903.057739 2161.704834,892.424561 2178.320312,887.961304 
	C2194.812012,883.531250 2211.529541,885.484131 2227.739746,888.591003 
	C2266.671387,896.052673 2304.279785,907.962036 2340.251709,924.937622 
	C2354.050049,931.449280 2368.363281,936.914307 2382.615723,942.405151 
	C2393.557861,946.620422 2404.443848,947.009460 2415.094727,940.587830 
	C2426.921143,933.457336 2433.922852,920.422302 2431.572510,907.935913 
	C2430.286621,901.102844 2428.875732,894.246033 2426.833252,887.611572 
	C2420.566650,867.254578 2416.127441,846.413269 2414.422607,825.320374 
	C2412.444580,800.845337 2412.729248,776.186584 2412.080322,751.606384 
	C2412.027832,749.623718 2412.300537,747.626526 2412.499512,745.643921 
	C2413.623779,734.456238 2414.771729,723.271057 2415.911377,712.084961 
	C2434.197266,715.321228 2449.815186,739.346313 2444.908447,758.906311 
	C2441.181152,773.765808 2442.091797,789.240417 2441.796143,804.532959 
	C2441.170166,836.917908 2445.021973,868.764771 2452.072266,900.276489 
	C2454.749756,912.243713 2457.754639,924.149475 2461.012939,935.972290 
	C2466.086182,954.381958 2445.694824,980.489929 2422.933350,974.479431 
	C2411.434570,971.442993 2399.826172,968.125122 2389.037354,963.235718 
	C2362.362305,951.147034 2335.638184,939.223328 2307.529053,930.898743 
	C2279.514404,922.602051 2251.328857,915.088684 2221.620850,915.854248 
	C2197.026611,916.488037 2182.449219,928.127747 2177.598877,952.099121 
	C2177.270996,953.718872 2176.593506,955.267944 2175.881348,957.650879 
z"/>
<path fill="#CABB80" opacity="1.000000" stroke="none" 
	d="
M2415.661621,711.677612 
	C2414.771729,723.271057 2413.623779,734.456238 2412.499512,745.643921 
	C2412.300537,747.626526 2412.027832,749.623718 2412.080322,751.606384 
	C2412.729248,776.186584 2412.444580,800.845337 2414.422607,825.320374 
	C2416.127441,846.413269 2420.566650,867.254578 2426.833252,887.611572 
	C2428.875732,894.246033 2430.286621,901.102844 2431.572510,907.935913 
	C2433.922852,920.422302 2426.921143,933.457336 2415.094727,940.587830 
	C2404.443848,947.009460 2393.557861,946.620422 2382.615723,942.405151 
	C2368.363281,936.914307 2354.050049,931.449280 2340.251709,924.937622 
	C2304.279785,907.962036 2266.671387,896.052673 2227.739746,888.591003 
	C2211.529541,885.484131 2194.812012,883.531250 2178.320312,887.961304 
	C2161.704834,892.424561 2151.609131,903.057739 2147.937256,920.047668 
	C2146.145020,928.340881 2146.068604,936.425964 2147.939697,945.489014 
	C2133.683105,943.289612 2119.064941,925.950073 2118.138428,911.208557 
	C2117.662598,903.639282 2117.453369,895.737427 2119.065186,888.413147 
	C2123.578125,867.905640 2140.926270,857.463562 2161.751221,856.058044 
	C2182.909912,854.630005 2203.303711,859.419189 2223.584717,864.341980 
	C2254.964844,871.958740 2285.014893,883.310791 2314.305908,896.947021 
	C2328.989990,903.783081 2344.213623,909.704773 2359.640625,914.641663 
	C2381.383789,921.599670 2407.451904,901.934082 2401.186279,874.582947 
	C2397.490723,858.450867 2392.949463,842.488953 2389.878418,826.244446 
	C2387.120850,811.659485 2385.368652,796.835632 2384.065430,782.038452 
	C2382.786865,767.522583 2382.222900,752.910217 2382.131592,738.335266 
	C2382.071777,728.769775 2383.408447,719.195618 2384.979004,708.678955 
	C2395.584229,704.019104 2404.643555,708.819641 2413.994629,710.003723 
	C2414.552490,710.330505 2415.024902,710.752686 2415.661621,711.677612 
z"/>
<path fill="#CABB80" opacity="1.000000" stroke="none" 
	d="
M1723.946167,1343.836304 
	C1723.946167,1347.819946 1723.946167,1351.803589 1723.946167,1356.379517 
	C1703.577393,1328.799316 1683.651978,1302.311890 1675.283569,1268.230469 
	C1656.424316,1191.425171 1632.188477,1116.133423 1606.027588,1041.505615 
	C1579.535278,965.932495 1551.524902,890.914612 1521.153687,816.806885 
	C1512.711182,796.206787 1503.197266,776.037842 1493.893433,755.800415 
	C1482.779175,731.625427 1471.362793,707.589478 1460.749023,682.768311 
	C1464.886108,682.728333 1468.351440,683.413269 1471.816895,684.098145 
	C1472.982910,685.089417 1474.148804,686.080688 1475.719971,688.247070 
	C1479.952881,696.021301 1484.213013,702.411011 1487.531738,709.257080 
	C1500.295898,735.587463 1513.526855,761.730957 1525.157837,788.562256 
	C1543.647217,831.214905 1561.789185,874.054138 1578.616333,917.382202 
	C1598.211060,967.835999 1616.710083,1018.731628 1634.784180,1069.754517 
	C1649.089600,1110.138428 1662.811035,1150.765991 1675.367310,1191.722290 
	C1687.907349,1232.625122 1698.340332,1274.170166 1710.463135,1315.207397 
	C1713.416748,1325.205566 1719.371338,1334.317139 1723.946167,1343.836304 
z"/>
<path fill="#E6DFC4" opacity="1.000000" stroke="none" 
	d="
M1755.328125,1420.183594 
	C1757.032471,1430.379761 1762.742798,1437.486816 1771.148193,1442.719482 
	C1774.452759,1444.776611 1777.828491,1446.719971 1781.565674,1449.240112 
	C1780.029297,1462.305664 1770.603638,1471.307373 1756.465210,1473.917969 
	C1747.327271,1475.605103 1738.197510,1477.307617 1728.916992,1474.348755 
	C1726.789185,1473.670288 1724.292358,1474.103760 1721.965454,1474.101440 
	C1700.337646,1474.080322 1678.706055,1473.817749 1657.083008,1474.130371 
	C1628.864502,1474.538208 1600.626465,1474.873413 1572.446167,1476.248779 
	C1550.993652,1477.295654 1529.617432,1479.907471 1508.208374,1481.836060 
	C1492.722900,1483.231079 1477.236450,1484.614868 1461.756470,1486.068237 
	C1454.511719,1486.748657 1447.253906,1487.385986 1440.050049,1488.387573 
	C1426.434326,1490.280396 1414.639038,1486.586670 1404.457642,1477.460815 
	C1399.113281,1472.670776 1395.446289,1466.877319 1394.658691,1459.010498 
	C1406.341553,1461.943237 1417.150269,1458.123047 1427.920532,1457.396729 
	C1444.399780,1456.285156 1460.771729,1453.662964 1477.221802,1452.007324 
	C1487.765381,1450.946289 1498.370117,1450.501953 1508.943359,1449.724609 
	C1525.119751,1448.535522 1541.284180,1446.403687 1557.468872,1446.245972 
	C1608.713135,1445.746460 1659.965332,1446.106689 1711.212158,1445.776855 
	C1718.382080,1445.730835 1725.799805,1444.516113 1732.642578,1442.373169 
	C1743.537842,1438.960693 1749.645874,1430.137939 1754.048218,1420.064209 
	C1754.048218,1420.064209 1754.904541,1420.115723 1755.328125,1420.183594 
z"/>
<path fill="#E6DFC4" opacity="1.000000" stroke="none" 
	d="
M1724.007812,1342.969971 
	C1719.371338,1334.317139 1713.416748,1325.205566 1710.463135,1315.207397 
	C1698.340332,1274.170166 1687.907349,1232.625122 1675.367310,1191.722290 
	C1662.811035,1150.765991 1649.089600,1110.138428 1634.784180,1069.754517 
	C1616.710083,1018.731628 1598.211060,967.835999 1578.616333,917.382202 
	C1561.789185,874.054138 1543.647217,831.214905 1525.157837,788.562256 
	C1513.526855,761.730957 1500.295898,735.587463 1487.531738,709.257080 
	C1484.213013,702.411011 1479.952881,696.021301 1476.054077,688.718811 
	C1485.642456,691.404541 1491.507446,699.505676 1497.063843,707.029358 
	C1505.314087,718.201111 1512.550171,730.257080 1519.072998,742.544495 
	C1539.985474,781.938538 1558.179565,822.640503 1574.922485,863.948486 
	C1593.761841,910.428711 1612.665649,956.913513 1630.018433,1003.958069 
	C1651.864136,1063.182739 1672.628662,1122.819580 1692.943237,1182.589966 
	C1703.294434,1213.046143 1711.641235,1244.183472 1721.437988,1275.509521 
	C1722.619019,1279.546265 1723.587891,1283.063721 1723.831665,1286.630615 
	C1724.599121,1297.858398 1725.427734,1309.100220 1725.575317,1320.345337 
	C1725.670532,1327.590210 1724.611328,1334.850220 1724.007812,1342.969971 
z"/>
<path fill="#CABB80" opacity="1.000000" stroke="none" 
	d="
M1753.599854,1419.532715 
	C1749.645874,1430.137939 1743.537842,1438.960693 1732.642578,1442.373169 
	C1725.799805,1444.516113 1718.382080,1445.730835 1711.212158,1445.776855 
	C1659.965332,1446.106689 1608.713135,1445.746460 1557.468872,1446.245972 
	C1541.284180,1446.403687 1525.119751,1448.535522 1508.943359,1449.724609 
	C1498.370117,1450.501953 1487.765381,1450.946289 1477.221802,1452.007324 
	C1460.771729,1453.662964 1444.399780,1456.285156 1427.920532,1457.396729 
	C1417.150269,1458.123047 1406.341553,1461.943237 1394.598633,1458.283569 
	C1393.218994,1458.053589 1392.704346,1457.699097 1392.046021,1455.956299 
	C1391.915283,1445.836060 1391.955444,1437.064575 1391.995605,1428.293091 
	C1408.102783,1426.318848 1424.201782,1424.272949 1440.320801,1422.401123 
	C1448.220947,1421.483887 1456.146606,1420.704346 1464.081909,1420.190796 
	C1477.664185,1419.311646 1491.271118,1418.814941 1504.853638,1417.939453 
	C1565.746582,1414.015015 1626.711792,1416.917480 1687.630981,1415.822998 
	C1704.441040,1415.520874 1717.793457,1408.522949 1724.311523,1389.338379 
	C1729.502197,1405.318359 1739.438599,1414.165039 1753.599854,1419.532715 
z"/>
<path fill="#CABB80" opacity="1.000000" stroke="none" 
	d="
M2882.129150,1019.840393 
	C2875.541016,1021.957275 2870.314209,1020.823242 2866.098145,1014.700256 
	C2861.604492,1008.174377 2857.247559,1001.266052 2854.456787,993.907959 
	C2844.777832,968.386047 2839.215820,941.851624 2835.781250,914.756836 
	C2833.187500,894.293579 2831.763672,873.851746 2832.009277,853.240479 
	C2832.325684,826.692749 2837.856689,802.048523 2855.242676,780.864258 
	C2860.659668,774.263611 2864.276611,766.185425 2870.149414,758.372681 
	C2880.948975,758.676880 2890.316406,759.392029 2899.684082,760.107239 
	C2899.684082,760.107239 2900.127930,760.857422 2900.240234,762.053711 
	C2900.465088,767.123596 2900.942139,771.027344 2900.624512,774.865295 
	C2899.484863,788.627197 2892.508057,799.756775 2884.609863,810.634277 
	C2871.959229,828.056335 2862.483887,847.126221 2862.330078,869.092834 
	C2862.168213,892.266907 2862.256836,915.578552 2864.552734,938.598999 
	C2867.306641,966.209595 2873.206299,993.422302 2882.129150,1019.840393 
z"/>
<path fill="#E6DFC4" opacity="1.000000" stroke="none" 
	d="
M2882.824219,1019.830811 
	C2873.206299,993.422302 2867.306641,966.209595 2864.552734,938.598999 
	C2862.256836,915.578552 2862.168213,892.266907 2862.330078,869.092834 
	C2862.483887,847.126221 2871.959229,828.056335 2884.609863,810.634277 
	C2892.508057,799.756775 2899.484863,788.627197 2900.624512,774.865295 
	C2900.942139,771.027344 2900.465088,767.123596 2900.427490,762.447266 
	C2921.500732,765.631409 2930.162842,783.108276 2930.293945,798.519287 
	C2930.413330,812.557922 2925.901611,824.184692 2917.984131,835.487549 
	C2910.797363,845.747742 2905.129883,857.078735 2898.886719,867.991577 
	C2893.423584,877.541321 2892.904053,888.394104 2892.292236,898.838989 
	C2891.378906,914.428101 2891.046143,930.193420 2892.318604,945.732117 
	C2893.880859,964.805847 2897.351318,983.723328 2900.041992,1003.570374 
	C2896.670166,1011.829102 2891.301758,1017.124451 2882.824219,1019.830811 
z"/>
<path fill="#CBBC82" opacity="1.000000" stroke="none" 
	d="
M1833.845703,1062.763184 
	C1840.188599,1065.514771 1846.652710,1068.751465 1852.837646,1072.454102 
	C1880.013672,1088.722900 1909.384155,1099.871826 1939.181519,1110.153687 
	C1958.285278,1116.745605 1977.388062,1123.567627 1993.782471,1135.919678 
	C2001.193359,1141.503296 2008.501831,1147.316040 2011.384277,1156.937256 
	C1990.003906,1146.111206 1967.248169,1139.756226 1945.230469,1131.531738 
	C1923.462524,1123.400757 1902.143799,1114.341064 1882.205566,1102.231812 
	C1875.791382,1098.336182 1868.910156,1095.209473 1862.242554,1091.731079 
	C1855.801636,1085.729004 1849.261108,1079.829102 1842.960815,1073.682861 
	C1839.699951,1070.501709 1836.865479,1066.883667 1833.845703,1062.763184 
z"/>
<path fill="#E6DFC2" opacity="1.000000" stroke="none" 
	d="
M818.660767,1379.398193 
	C819.277222,1367.895630 820.324829,1356.034180 821.598572,1344.197144 
	C822.944397,1331.689819 824.442322,1319.197754 826.004456,1306.715332 
	C826.620972,1301.789185 827.710449,1296.923462 828.374146,1292.001709 
	C829.743347,1281.848755 830.971008,1271.676880 832.427185,1260.576416 
	C840.356445,1259.037354 846.214600,1263.224365 852.081177,1267.381104 
	C854.168579,1268.860107 856.235901,1270.367310 858.990601,1271.895020 
	C855.580933,1291.555786 851.734985,1311.237671 847.330200,1330.793579 
	C843.686218,1346.972168 834.822937,1360.460693 824.063049,1372.812134 
	C822.332581,1374.798584 820.810059,1376.966187 818.660767,1379.398193 
z"/>
<path fill="#E6DFC4" opacity="1.000000" stroke="none" 
	d="
M1862.383179,1092.398926 
	C1868.910156,1095.209473 1875.791382,1098.336182 1882.205566,1102.231812 
	C1902.143799,1114.341064 1923.462524,1123.400757 1945.230469,1131.531738 
	C1967.248169,1139.756226 1990.003906,1146.111206 2011.483276,1157.633545 
	C2016.783447,1162.507202 2015.961548,1168.499878 2016.152344,1175.070068 
	C1984.057251,1164.867920 1951.758667,1154.341187 1921.938965,1137.849121 
	C1900.064331,1125.751099 1879.047729,1112.343994 1862.383179,1092.398926 
z"/>
<path fill="#D6CB9E" opacity="1.000000" stroke="none" 
	d="
M832.256470,1258.957275 
	C820.385254,1258.462280 809.846252,1262.641846 798.844543,1267.932373 
	C799.526001,1255.834229 800.925049,1243.653931 802.486511,1230.532471 
	C820.194336,1231.612183 830.272705,1241.347412 832.256470,1258.957275 
z"/>
<path fill="#D6CB9E" opacity="1.000000" stroke="none" 
	d="
M3324.300293,818.992737 
	C3314.192139,819.839539 3304.022217,819.898621 3292.916504,819.942383 
	C3293.279541,810.583313 3294.578613,801.239624 3295.873291,791.030762 
	C3313.104980,792.458130 3322.032227,801.281250 3324.300293,818.992737 
z"/>
<path fill="#D6CB9E" opacity="1.000000" stroke="none" 
	d="
M688.087891,1011.961670 
	C686.749390,1001.215942 685.410889,990.470276 684.079102,978.894958 
	C701.616577,979.602173 709.533325,991.146545 713.926147,1007.266846 
	C714.112366,1007.980591 713.712891,1008.028809 712.715210,1008.044006 
	C703.841003,1009.359985 695.964478,1010.660828 688.087891,1011.961670 
z"/>
<path fill="#D6CB9E" opacity="1.000000" stroke="none" 
	d="
M187.194397,1548.344604 
	C187.331223,1558.230835 186.677917,1568.129272 186.038910,1578.940918 
	C170.819489,1577.274292 162.535507,1567.385986 158.146637,1552.617920 
	C167.537872,1550.704590 176.971085,1549.530762 187.194397,1548.344604 
z"/>
<path fill="#D6CB9E" opacity="1.000000" stroke="none" 
	d="
M869.131287,1451.958496 
	C869.385254,1461.208984 868.731323,1470.450195 868.126587,1480.559204 
	C859.004150,1480.674072 853.210876,1474.430298 846.639099,1468.163208 
	C844.017944,1463.134521 841.966003,1458.469116 839.851929,1453.091064 
	C849.267639,1452.235474 858.745544,1452.092529 869.131287,1451.958496 
z"/>
<path fill="#D6CB9E" opacity="1.000000" stroke="none" 
	d="
M2899.685303,759.373535 
	C2890.316406,759.392029 2880.948975,758.676880 2870.656738,757.923462 
	C2870.328369,753.428040 2871.261230,748.982666 2871.417480,744.510132 
	C2871.550049,740.716187 2870.784912,736.890930 2870.515625,732.245972 
	C2885.908936,734.504456 2895.420410,743.771790 2899.685303,759.373535 
z"/>
<path fill="#D6CB9E" opacity="1.000000" stroke="none" 
	d="
M2649.079346,1486.210938 
	C2649.289062,1494.359619 2648.609375,1502.413086 2647.861328,1511.399658 
	C2633.245850,1508.886963 2623.634521,1500.291748 2619.828613,1484.839355 
	C2629.245361,1484.769409 2638.717773,1485.442505 2649.079346,1486.210938 
z"/>
<path fill="#D6CB9E" opacity="1.000000" stroke="none" 
	d="
M1391.136963,1428.223267 
	C1391.955444,1437.064575 1391.915283,1445.836060 1391.759033,1455.585449 
	C1377.281250,1453.738037 1369.000854,1444.355957 1364.271973,1430.421265 
	C1372.952148,1429.171143 1381.615234,1428.662231 1391.136963,1428.223267 
z"/>
<path fill="#D6CB9E" opacity="1.000000" stroke="none" 
	d="
M2413.937256,709.290161 
	C2404.643555,708.819641 2395.584229,704.019104 2385.085449,707.822510 
	C2384.869385,699.839539 2385.406006,691.766541 2385.967285,682.766418 
	C2399.908691,685.932190 2408.840088,695.224854 2413.937256,709.290161 
z"/>
<path fill="#D6CB9E" opacity="1.000000" stroke="none" 
	d="
M698.083008,731.188477 
	C693.228210,732.399414 688.283569,732.900330 682.583130,733.717651 
	C678.566467,725.049438 675.305481,716.064819 672.106262,706.255615 
	C680.651367,706.139404 686.602356,710.822144 690.931274,717.748535 
	C693.499512,721.857849 695.653076,726.226379 698.083008,731.188477 
z"/>
<path fill="#D6CB9E" opacity="1.000000" stroke="none" 
	d="
M1471.616943,683.449402 
	C1468.351440,683.413269 1464.886108,682.728333 1460.645630,682.052368 
	C1455.286255,674.478394 1450.702026,666.895447 1446.043213,658.594849 
	C1458.359253,662.194763 1464.332886,673.064575 1471.616943,683.449402 
z"/>
<path fill="#D6CB9E" opacity="1.000000" stroke="none" 
	d="
M2393.753662,1079.386597 
	C2392.448242,1080.005005 2390.916504,1079.997925 2388.615234,1079.989380 
	C2385.192383,1075.826660 2382.539307,1071.665283 2379.881104,1066.786255 
	C2384.426270,1070.299561 2388.977051,1074.530273 2393.753662,1079.386597 
z"/>
<path fill="#FFEDA6" opacity="1.000000" stroke="none" 
	d="
M638.679138,947.993042 
	C641.895325,947.361633 645.111450,946.730164 649.046204,946.084717 
	C649.795044,946.427246 649.825256,946.783691 649.908203,947.674561 
	C646.536377,948.867676 643.111755,949.526367 639.014648,949.606934 
	C638.454468,948.683533 638.566772,948.338257 638.679138,947.993042 
z"/>
<path fill="#FFEDA6" opacity="1.000000" stroke="none" 
	d="
M1195.531982,637.482910 
	C1193.641479,638.266785 1191.281372,638.610718 1188.461182,638.494751 
	C1190.354858,637.704285 1192.708740,637.373657 1195.531982,637.482910 
z"/>
<path fill="#FFEDA6" opacity="1.000000" stroke="none" 
	d="
M2799.687500,697.686035 
	C2798.873047,698.331238 2797.747559,698.577271 2796.311035,698.424194 
	C2797.125488,697.778992 2798.250732,697.532959 2799.687500,697.686035 
z"/>
<path fill="#CBBC82" opacity="1.000000" stroke="none" 
	d="
M1830.372070,1060.412720 
	C1831.245361,1060.238037 1832.354858,1060.641724 1833.724854,1061.594238 
	C1832.859741,1061.759277 1831.734131,1061.375122 1830.372070,1060.412720 
z"/>
<path fill="#CBBC82" opacity="1.000000" stroke="none" 
	d="
M1826.283813,1056.354736 
	C1826.761475,1056.078857 1827.288208,1056.446533 1827.911865,1057.418457 
	C1827.565552,1057.515747 1827.006958,1057.174194 1826.283813,1056.354736 
z"/>
<path fill="#CBBC82" opacity="1.000000" stroke="none" 
	d="
M1828.294189,1058.356323 
	C1828.796265,1058.053101 1829.325439,1058.414551 1829.927979,1059.403687 
	C1829.565674,1059.512695 1829.005493,1059.176025 1828.294189,1058.356323 
z"/>
<path fill="#D6CB9E" opacity="1.000000" stroke="none" 
	d="
M2377.763184,1063.628174 
	C2377.244873,1063.973877 2376.705566,1063.618286 2376.111328,1062.587158 
	C2376.469238,1062.475464 2377.031494,1062.813843 2377.763184,1063.628174 
z"/>
<path fill="#D6CB9E" opacity="1.000000" stroke="none" 
	d="
M2379.766113,1065.614014 
	C2379.374512,1065.741333 2378.820801,1065.379395 2378.081787,1064.543213 
	C2378.465576,1064.420898 2379.034668,1064.772827 2379.766113,1065.614014 
z"/>
<path fill="#CABB80" opacity="1.000000" stroke="none" 
	d="
M1180.141724,1071.702637 
	C1172.051758,1072.561035 1165.029663,1069.312134 1158.704590,1065.065796 
	C1152.121216,1060.645996 1149.826172,1053.110474 1150.284546,1045.788086 
	C1151.066040,1033.302856 1152.526123,1020.765747 1154.941650,1008.494507 
	C1162.958252,967.767273 1176.129639,928.516113 1190.514282,889.679749 
	C1193.497070,881.627014 1197.766602,874.000366 1201.981812,866.479370 
	C1203.688354,863.434570 1206.414551,860.469788 1209.409424,858.730469 
	C1218.479736,853.463135 1226.078979,855.863342 1231.775391,865.813904 
	C1235.557861,872.421387 1238.529541,879.492920 1241.260986,887.200989 
	C1229.746582,893.416199 1226.387695,904.319763 1222.389526,914.284180 
	C1208.825928,948.086670 1197.626221,982.707581 1189.071655,1018.121826 
	C1184.816528,1035.738037 1180.187988,1053.356445 1180.141724,1071.702637 
z"/>
<path fill="#E6DFC3" opacity="1.000000" stroke="none" 
	d="
M1181.061035,1071.803711 
	C1180.187988,1053.356445 1184.816528,1035.738037 1189.071655,1018.121826 
	C1197.626221,982.707581 1208.825928,948.086670 1222.389526,914.284180 
	C1226.387695,904.319763 1229.746582,893.416199 1241.351562,887.906860 
	C1248.013428,901.284729 1253.981689,914.800903 1259.470825,929.463013 
	C1255.962402,936.873413 1252.227905,942.900391 1250.025024,949.443176 
	C1239.980103,979.276733 1230.050781,1009.158203 1220.768921,1039.234985 
	C1217.578979,1049.571289 1216.392212,1060.525879 1214.290283,1071.197998 
	C1203.520386,1071.433594 1192.750488,1071.669312 1181.061035,1071.803711 
z"/>
<path fill="#FFFEFD" opacity="1.000000" stroke="none" 
	d="
M1215.104492,1071.348633 
	C1216.392212,1060.525879 1217.578979,1049.571289 1220.768921,1039.234985 
	C1230.050781,1009.158203 1239.980103,979.276733 1250.025024,949.443176 
	C1252.227905,942.900391 1255.962402,936.873413 1259.566650,930.189941 
	C1274.440430,963.841553 1285.589844,998.880676 1291.443848,1035.416016 
	C1293.961670,1051.130249 1284.324219,1064.198853 1268.468628,1067.605591 
	C1262.341553,1068.921997 1256.006226,1069.460449 1249.734253,1069.870361 
	C1238.475098,1070.605835 1227.191895,1070.976318 1215.104492,1071.348633 
z"/>
<path fill="#CABB80" opacity="1.000000" stroke="none" 
	d="
M688.051270,1012.863159 
	C695.964478,1010.660828 703.841003,1009.359985 712.521667,1008.098877 
	C714.900146,1022.602234 716.434875,1037.070312 718.060181,1051.528198 
	C719.648804,1065.659180 720.784607,1079.870239 723.105652,1093.882690 
	C726.130798,1112.145874 730.491333,1130.187622 733.524841,1148.449585 
	C734.708618,1155.576294 735.044312,1163.278320 733.660278,1170.303345 
	C731.075928,1183.421265 722.052185,1191.584839 709.515442,1195.791016 
	C697.691040,1199.758179 685.940857,1197.808105 674.210815,1195.093384 
	C656.440063,1190.980835 638.617798,1186.792969 620.202881,1188.186890 
	C605.035950,1189.334839 589.889709,1190.936279 574.796814,1192.833984 
	C558.070862,1194.937134 541.378357,1197.374756 524.739807,1200.087158 
	C504.848022,1203.329712 484.818481,1206.135376 465.246796,1210.800659 
	C450.439728,1214.330200 444.927704,1226.002808 447.399078,1241.464233 
	C449.329742,1253.542847 450.559357,1265.733521 452.177063,1278.677490 
	C447.408203,1278.598267 442.444763,1278.117310 437.745819,1276.736450 
	C431.271667,1274.833618 426.812408,1270.651245 425.558350,1263.598755 
	C423.937714,1254.485107 421.664001,1245.458130 420.576721,1236.286621 
	C419.211914,1224.773804 418.666534,1213.158203 417.953949,1201.575562 
	C417.446838,1193.332642 421.432739,1187.154053 428.625458,1183.929199 
	C435.204193,1180.979614 442.280121,1178.720093 449.368622,1177.412109 
	C464.981049,1174.531128 480.728088,1172.363159 496.441772,1170.051025 
	C514.118469,1167.450195 531.801941,1164.880981 549.516418,1162.556519 
	C558.382080,1161.393066 567.323853,1160.811523 576.229797,1159.952515 
	C582.493103,1159.348633 588.744385,1158.336182 595.018005,1158.177979 
	C611.734314,1157.756226 627.938232,1161.398804 644.100769,1165.093750 
	C656.176636,1167.854492 668.169189,1169.551392 680.483765,1166.040894 
	C697.144958,1161.291016 708.358337,1142.780396 704.939697,1125.621216 
	C700.541138,1103.543579 695.959106,1081.480835 692.453308,1059.254395 
	C690.083679,1044.231445 689.433838,1028.937378 688.051270,1012.863159 
z"/>
<path fill="#FFFEFD" opacity="1.000000" stroke="none" 
	d="
M478.917358,1277.998047 
	C476.974152,1270.448242 474.718475,1263.167114 477.698456,1255.398682 
	C479.998840,1249.401978 483.024780,1244.287109 489.175049,1242.545410 
	C500.601837,1239.309570 512.129578,1236.159546 523.819702,1234.182495 
	C545.659180,1230.489380 567.628418,1227.541626 589.575867,1224.516968 
	C602.359924,1222.755249 615.176331,1221.072021 628.033142,1220.036133 
	C641.577942,1218.944946 655.202209,1217.968262 668.765869,1218.238159 
	C681.287842,1218.487183 693.608215,1221.179077 705.519653,1227.062866 
	C674.466370,1242.448486 641.566650,1253.049805 607.632141,1259.490723 
	C572.181763,1266.219604 536.307434,1270.727661 500.596039,1276.056763 
	C493.723541,1277.082275 486.747406,1277.413086 478.917358,1277.998047 
z"/>
<path fill="#FFFFFF" opacity="1.000000" stroke="none" 
	d="
M637.680908,947.967773 
	C638.566772,948.338257 638.454468,948.683533 638.223267,949.560669 
	C629.899963,953.552979 621.185608,956.148987 613.585022,960.632812 
	C588.926270,975.179565 562.560547,984.032959 534.189697,987.646973 
	C505.000122,991.365234 475.898987,995.776733 446.753265,999.842712 
	C444.459686,1000.162659 442.119904,1000.151489 438.921509,1000.259216 
	C438.604950,994.337769 438.488586,988.280701 439.911621,982.609924 
	C441.529419,976.163269 446.118164,971.648560 452.853607,970.024231 
	C461.516174,967.934998 470.140900,965.474121 478.929688,964.166382 
	C498.851501,961.202271 518.838257,958.625122 538.847412,956.313049 
	C554.609863,954.491699 570.436401,953.197815 586.250549,951.859192 
	C603.051453,950.437134 619.871155,949.238586 637.680908,947.967773 
z"/>
</svg>