<svg version="1.1" id="Layer_1" xmlns="http://www.w3.org/2000/svg" xmlns:xlink="http://www.w3.org/1999/xlink" x="0px" y="0px"
	 width="100%" viewBox="0 0 600 300" enable-background="new 0 0 600 300" xml:space="preserve">
<path fill="#FFFFFF" opacity="1.000000" stroke="none" 
	d="
M351.000000,301.000000 
	C234.032333,301.000000 117.564674,301.000000 1.048507,301.000000 
	C1.048507,201.060120 1.048507,101.120201 1.048507,1.090144 
	C200.884338,1.090144 400.768738,1.090144 600.826538,1.090144 
	C600.826538,100.999763 600.826538,200.999847 600.826538,301.000000 
	C517.786804,301.000000 434.643402,301.000000 351.000000,301.000000 
M535.886047,120.493111 
	C535.585144,120.306053 535.284302,120.118988 534.677124,119.348595 
	C524.364441,106.883179 510.892914,99.795898 495.223083,96.946754 
	C479.392609,94.068398 463.470856,91.683739 447.569672,89.207207 
	C442.199585,88.370842 439.324341,92.235962 440.403687,97.573769 
	C441.336670,102.187675 442.352570,107.099564 441.727203,111.659676 
	C438.929260,132.063034 435.623993,152.398407 432.349792,172.733841 
	C431.416321,178.531570 431.828827,184.851837 426.806030,188.611450 
	C424.345703,179.466751 419.784821,171.415039 414.003174,163.259171 
	C414.622284,162.185608 414.982391,160.749756 415.899994,160.093765 
	C426.635590,152.419006 430.900177,141.755875 429.882599,128.976929 
	C429.324921,121.973145 428.490936,114.771362 422.013672,109.231010 
	C420.428131,107.399467 418.842560,105.567924 417.089600,103.884064 
	C417.089600,103.884064 417.290009,103.785767 417.183624,103.227562 
	C416.753387,102.881050 416.323120,102.534538 415.521423,101.628403 
	C408.536957,92.941406 399.569580,87.131363 388.520996,86.098808 
	C366.010468,83.995064 343.435883,82.540787 320.870270,81.089920 
	C315.568970,80.749062 313.578186,85.142067 315.301605,90.579651 
	C316.671631,94.902351 317.621796,99.504959 317.801483,104.021362 
	C318.032288,109.822014 317.315308,115.661308 316.989441,121.482986 
	C316.002411,139.115158 315.113770,156.754150 313.910706,174.371628 
	C313.708832,177.328064 312.131927,180.190613 311.190399,183.096558 
	C310.588257,182.982819 309.986145,182.869080 309.384003,182.755341 
	C308.367767,179.991699 307.308472,177.243011 306.342224,174.462006 
	C299.364166,154.377777 292.705627,134.175522 285.317505,114.243591 
	C281.404968,103.688148 277.381714,92.853050 268.319519,85.299248 
	C266.274170,83.594345 263.070160,82.371361 260.435974,82.435051 
	C247.639023,82.744484 234.859268,83.720673 222.062790,84.119003 
	C217.936096,84.247467 214.937759,85.515877 213.123596,89.177788 
	C211.649414,92.153419 210.207642,95.160660 209.003494,98.252045 
	C199.311584,123.134018 192.926895,148.917496 187.859299,175.086380 
	C187.046707,179.282669 184.682571,183.178513 183.025955,186.330841 
	C180.193558,167.636978 177.169571,148.969208 174.616989,130.237213 
	C173.495453,122.006744 170.322113,113.831635 173.806259,105.248917 
	C174.885315,102.590797 174.858093,98.725853 170.047943,97.235710 
	C168.702652,95.852150 167.357361,94.468590 165.757294,92.381500 
	C164.496552,89.260162 162.090897,88.330696 158.938858,88.803123 
	C146.507172,90.666374 134.057022,92.415932 121.650948,94.436340 
	C116.449860,95.283371 114.170418,100.043983 117.534218,104.006691 
	C123.666084,111.230301 123.132690,120.032913 124.558136,128.389343 
	C125.059776,131.330032 123.735229,133.590790 120.412468,134.054810 
	C118.287575,134.351532 116.160477,134.632446 113.933151,134.112411 
	C112.635735,127.502953 111.272293,121.014778 114.201698,114.314545 
	C115.624481,111.060303 114.660965,107.762848 110.064796,106.151802 
	C108.835762,104.916931 107.606728,103.682060 106.072533,101.808037 
	C104.752357,98.069099 101.872986,97.465843 98.420044,97.988075 
	C86.602310,99.775406 74.773842,101.494614 62.969028,103.363358 
	C56.182293,104.437721 54.676552,108.693092 58.200855,114.471733 
	C60.377987,118.041458 62.243507,122.139099 62.932312,126.221855 
	C66.445450,147.045349 69.697472,167.917526 72.646645,188.828278 
	C73.392456,194.116379 73.491989,199.768524 72.450691,204.965286 
	C71.207161,211.171295 71.535446,213.158859 77.956535,216.755859 
	C78.598511,217.562927 79.240486,218.370010 80.059502,219.847031 
	C82.341354,221.059830 84.766953,223.522873 86.881401,223.279770 
	C99.331047,221.848343 111.740242,219.966064 124.079018,217.764603 
	C126.193916,217.387238 129.001816,215.009033 129.472916,213.066147 
	C129.889801,211.346863 127.497536,208.946442 126.123489,206.215042 
	C125.489052,205.055222 124.854622,203.895416 124.190208,201.906601 
	C123.301933,195.721085 122.517441,189.518234 121.487411,183.356415 
	C120.844261,179.509033 122.089256,177.270996 126.049431,176.764557 
	C127.995872,176.515640 129.944595,176.284683 132.081787,176.847778 
	C132.588776,183.136993 135.344543,189.281204 132.639053,195.766006 
	C130.142548,201.749832 131.471207,204.238373 137.957687,207.749542 
	C138.595978,208.565750 139.234268,209.381958 140.045090,210.866592 
	C142.325714,212.056870 144.749512,214.479736 146.863373,214.234238 
	C159.128143,212.809738 171.319229,210.752274 183.536926,208.920151 
	C186.984436,208.403183 189.733658,207.280060 189.462082,203.019180 
	C189.462082,203.019180 189.916962,203.147949 190.184357,203.803314 
	C192.614899,204.840958 195.067917,206.812851 197.472107,206.755035 
	C208.058228,206.500397 218.625137,205.531189 229.210480,205.108017 
	C232.538559,204.974960 235.220535,203.806229 235.320358,200.679153 
	C235.392715,198.412735 233.427856,196.081284 232.164734,193.160583 
	C231.938721,192.549179 231.712723,191.937790 231.785492,190.502243 
	C231.671371,186.357895 233.064224,183.295212 237.694214,182.996353 
	C244.094360,182.583191 250.505997,182.348434 256.843933,182.732529 
	C253.019775,189.453690 253.418732,191.585403 259.414337,195.554092 
	C260.886719,196.821884 262.359100,198.089676 263.890167,200.107346 
	C266.057526,204.613373 270.167084,202.991348 273.532776,202.871368 
	C286.107483,202.423111 298.679413,201.789627 311.231415,200.922043 
	C313.219940,200.784622 315.100525,199.085281 317.673309,198.359604 
	C320.120575,199.542114 322.498657,201.554825 325.026917,201.765488 
	C336.882111,202.753326 348.779694,203.226715 360.659882,203.922577 
	C366.395508,204.258514 370.256714,200.086014 367.611725,195.215622 
	C363.967041,188.504272 365.134705,181.659393 365.225830,174.819687 
	C365.252563,172.814743 367.129456,170.834427 368.698914,169.268341 
	C372.615723,175.961060 376.399719,182.536987 374.479492,190.995697 
	C374.112183,192.613602 377.290741,195.036423 378.979309,197.742828 
	C380.293549,198.859848 381.607819,199.976868 383.037720,201.837021 
	C384.716125,202.894379 386.281311,204.502029 388.100311,204.876221 
	C390.638672,205.398453 393.375580,204.855148 396.011780,205.019852 
	C405.878906,205.636185 415.733643,206.510132 425.608276,206.891861 
	C427.373505,206.960098 429.211334,205.150421 431.663971,204.135712 
	C432.439178,204.427841 433.214417,204.719986 434.039581,205.756393 
	C436.110596,206.832352 438.079651,208.473343 440.273376,208.869064 
	C445.153564,209.749359 450.176971,209.804810 455.087250,210.554901 
	C470.633423,212.929703 485.906830,217.471100 501.914398,216.024658 
	C514.206604,214.913940 525.261780,210.925720 534.194641,202.184448 
	C549.742249,186.970322 555.779358,157.398651 547.389099,137.252136 
	C546.055298,134.049545 543.647522,131.294266 541.466492,127.711082 
	C540.074097,126.049988 538.681702,124.388893 537.078918,122.899300 
	C537.078918,122.899300 537.317810,122.770325 537.266785,122.161400 
	C536.832886,121.777382 536.398926,121.393356 535.990356,121.006180 
	C535.990356,121.006180 535.985718,121.031082 535.886047,120.493111 
z"/>
<path fill="#8B0865" opacity="1.000000" stroke="none" 
	d="
M259.135071,194.974304 
	C253.418732,191.585403 253.019775,189.453690 257.058655,182.117401 
	C257.197937,180.302505 257.122528,179.102737 257.003540,177.529144 
	C255.598679,176.104828 254.242859,174.160446 252.875183,174.152069 
	C245.245514,174.105392 237.564850,174.088226 229.995514,174.917709 
	C223.001022,175.684189 221.958038,179.028748 224.953339,185.264740 
	C226.236191,187.935532 226.947311,191.881561 225.862961,194.342621 
	C225.120087,196.028687 220.871643,196.652039 218.117157,196.884811 
	C207.384766,197.791733 196.623199,198.353317 185.679672,199.023834 
	C185.486862,199.004318 185.100266,199.032120 184.927078,198.755478 
	C183.670731,197.806885 182.587555,197.134949 182.755630,197.239212 
	C179.543533,198.446198 177.448990,199.659729 175.222763,199.992737 
	C167.423309,201.159393 159.531250,201.751297 151.768387,203.101868 
	C147.050293,203.922714 142.505020,205.737061 137.882111,207.105103 
	C131.471207,204.238373 130.142548,201.749832 132.639053,195.766006 
	C135.344543,189.281204 132.588776,183.136993 132.022278,176.087097 
	C131.603928,173.933060 131.245087,172.539673 130.801071,170.782166 
	C128.790756,169.282608 126.854195,167.153091 124.942352,167.175049 
	C113.575348,167.305695 112.380173,168.883148 113.930923,179.946030 
	C114.022453,180.598953 113.867958,181.311798 114.064148,181.920654 
	C115.825760,187.387741 114.207184,194.095596 120.137573,198.356812 
	C120.906227,199.667938 121.504608,200.721649 122.042023,202.162415 
	C121.660263,206.855270 119.264412,209.068954 115.039963,209.471649 
	C109.806335,209.970535 104.506027,210.124527 99.358856,211.090225 
	C92.139107,212.444778 85.033913,214.409912 77.879723,216.113876 
	C71.535446,213.158859 71.207161,211.171295 72.450691,204.965286 
	C73.491989,199.768524 73.392456,194.116379 72.646645,188.828278 
	C69.697472,167.917526 66.445450,147.045349 62.932312,126.221855 
	C62.243507,122.139099 60.377987,118.041458 58.200855,114.471733 
	C54.676552,108.693092 56.182293,104.437721 62.969028,103.363358 
	C74.773842,101.494614 86.602310,99.775406 98.420044,97.988075 
	C101.872986,97.465843 104.752357,98.069099 106.118103,102.574600 
	C103.123749,111.908691 104.010170,120.540565 106.157074,129.057831 
	C106.702354,131.221085 108.743088,133.007385 110.485176,135.055115 
	C111.927223,135.069031 112.980797,134.994736 114.034363,134.920441 
	C116.160477,134.632446 118.287575,134.351532 120.412468,134.054810 
	C123.735229,133.590790 125.059776,131.330032 124.558136,128.389343 
	C123.132690,120.032913 123.666084,111.230301 117.534218,104.006691 
	C114.170418,100.043983 116.449860,95.283371 121.650948,94.436340 
	C134.057022,92.415932 146.507172,90.666374 158.938858,88.803123 
	C162.090897,88.330696 164.496552,89.260162 165.856628,93.141296 
	C165.309906,98.286072 164.041992,102.689804 164.173523,107.051338 
	C164.342041,112.640007 165.606964,118.199265 166.452087,123.763206 
	C168.962250,140.288925 171.341660,156.837036 174.111618,173.319351 
	C175.041550,178.852783 174.356522,185.210678 180.129822,189.313919 
	C181.199692,188.764847 182.117691,187.989044 183.035706,187.213257 
	C184.682571,183.178513 187.046707,179.282669 187.859299,175.086380 
	C192.926895,148.917496 199.311584,123.134018 209.003494,98.252045 
	C210.207642,95.160660 211.649414,92.153419 213.123596,89.177788 
	C214.937759,85.515877 217.936096,84.247467 222.062790,84.119003 
	C234.859268,83.720673 247.639023,82.744484 260.435974,82.435051 
	C263.070160,82.371361 266.274170,83.594345 268.319519,85.299248 
	C277.381714,92.853050 281.404968,103.688148 285.317505,114.243591 
	C292.705627,134.175522 299.364166,154.377777 306.342224,174.462006 
	C307.308472,177.243011 308.367767,179.991699 309.384003,182.755341 
	C309.986145,182.869080 310.588257,182.982819 311.190399,183.096558 
	C312.131927,180.190613 313.708832,177.328064 313.910706,174.371628 
	C315.113770,156.754150 316.002411,139.115158 316.989441,121.482986 
	C317.315308,115.661308 318.032288,109.822014 317.801483,104.021362 
	C317.621796,99.504959 316.671631,94.902351 315.301605,90.579651 
	C313.578186,85.142067 315.568970,80.749062 320.870270,81.089920 
	C343.435883,82.540787 366.010468,83.995064 388.520996,86.098808 
	C399.569580,87.131363 408.536957,92.941406 415.744781,102.205795 
	C416.408752,103.117386 416.849396,103.451576 417.290009,103.785767 
	C417.290009,103.785767 417.089600,103.884064 417.127441,104.191299 
	C418.631958,109.378601 420.821625,114.171585 421.422119,119.156013 
	C422.889893,131.339355 419.772278,142.172760 409.706482,150.124939 
	C405.094879,153.768219 404.985016,154.067230 409.181976,159.279480 
	C410.229614,160.647064 411.149353,161.737015 412.114258,163.096863 
	C412.431671,163.589600 412.703918,163.812469 412.981873,164.024902 
	C412.987610,164.014465 412.960297,164.031677 412.982727,164.396759 
	C416.499786,173.147339 420.047577,181.511246 423.469147,189.926468 
	C425.526337,194.986023 422.903961,198.828735 417.397095,198.993439 
	C415.744293,199.042877 414.084351,198.948990 412.430695,198.862900 
	C401.231140,198.279907 390.032410,197.681381 378.833405,197.087875 
	C377.290741,195.036423 374.112183,192.613602 374.479492,190.995697 
	C376.399719,182.536987 372.615723,175.961060 368.358643,168.728531 
	C366.734406,167.012161 365.450470,165.835602 364.095581,164.315720 
	C362.462769,162.986206 360.970032,161.828018 359.284119,161.150314 
	C358.921021,161.004364 357.190521,162.623535 357.225677,163.376541 
	C357.576355,170.883057 355.311005,178.519409 358.798859,185.927704 
	C359.753967,187.956314 359.672546,191.400116 358.518127,193.202621 
	C357.586853,194.656693 354.301270,195.223831 352.099457,195.140900 
	C339.389832,194.662140 326.691864,193.873291 313.655518,193.107178 
	C311.964294,192.167618 310.607483,191.310349 309.409760,190.553589 
	C307.909027,191.353638 306.628754,192.592453 305.282654,192.668701 
	C289.905914,193.539566 274.519165,194.233292 259.135071,194.974304 
M238.887115,144.989761 
	C239.884476,144.966629 240.884705,144.983902 241.878738,144.913773 
	C247.971054,144.483963 249.393204,142.824982 247.946396,137.063431 
	C246.985321,133.236221 245.453613,129.552292 244.126465,125.102974 
	C243.101913,123.135468 242.077362,121.167961 240.995895,118.478630 
	C239.758621,115.591560 237.279266,113.161072 235.734406,117.238289 
	C232.794632,124.996994 231.025589,133.221191 229.203796,141.349228 
	C229.012238,142.203827 231.721329,143.708572 233.903961,145.034698 
	C235.280228,144.991745 236.656509,144.948792 238.887115,144.989761 
M363.860687,137.051682 
	C364.928345,137.000992 365.996002,136.950302 367.868378,137.058975 
	C377.031738,136.452438 381.044098,131.382355 379.024536,122.351006 
	C378.289307,121.322128 377.554047,120.293259 376.717194,118.548256 
	C373.498505,114.219482 368.619507,114.379852 364.083313,114.376694 
	C362.679901,114.375717 360.244019,116.494659 360.054199,117.885117 
	C359.340607,123.112129 359.128876,128.446106 359.290222,133.722855 
	C359.323944,134.826553 361.744995,135.857269 363.860687,137.051682 
z"/>
<path fill="#8B0764" opacity="1.000000" stroke="none" 
	d="
M426.962769,189.414642 
	C431.828827,184.851837 431.416321,178.531570 432.349792,172.733841 
	C435.623993,152.398407 438.929260,132.063034 441.727203,111.659676 
	C442.352570,107.099564 441.336670,102.187675 440.403687,97.573769 
	C439.324341,92.235962 442.199585,88.370842 447.569672,89.207207 
	C463.470856,91.683739 479.392609,94.068398 495.223083,96.946754 
	C510.892914,99.795898 524.364441,106.883179 534.892029,119.906815 
	C535.399841,120.653717 535.692810,120.842400 535.985718,121.031082 
	C535.985718,121.031082 535.990356,121.006180 535.980469,121.333511 
	C536.419678,122.030663 536.868774,122.400490 537.317810,122.770325 
	C537.317810,122.770325 537.078918,122.899300 537.097961,123.200951 
	C541.724548,135.047668 544.176086,146.774979 542.106934,159.371964 
	C539.227966,176.899521 532.338257,191.695251 516.323792,200.901031 
	C501.693970,209.310898 486.007233,209.021545 469.974823,206.552719 
	C456.604706,204.493835 443.163940,202.893723 429.517944,200.914291 
	C428.553528,200.546768 427.825623,200.355377 426.959717,199.810913 
	C423.979034,196.069519 424.780914,192.732391 426.962769,189.414642 
M481.341248,170.480759 
	C482.620178,170.521790 483.899078,170.562836 485.878479,170.666931 
	C488.727753,169.126083 492.489471,168.271637 494.259369,165.918839 
	C500.146423,158.092911 501.910889,149.224915 498.241791,139.090500 
	C497.492096,138.100922 496.742401,137.111343 495.744537,135.456589 
	C494.741364,134.606659 493.865814,133.476944 492.714508,132.951736 
	C484.643402,129.269760 481.229401,130.432205 480.571716,138.416885 
	C479.853638,147.134979 478.236633,155.800583 476.604767,164.411987 
	C475.884827,168.211227 477.137756,169.743179 481.341248,170.480759 
z"/>
<path fill="#C3B3BE" opacity="1.000000" stroke="none" 
	d="
M541.736267,128.332184 
	C543.647522,131.294266 546.055298,134.049545 547.389099,137.252136 
	C555.779358,157.398651 549.742249,186.970322 534.194641,202.184448 
	C525.261780,210.925720 514.206604,214.913940 501.914398,216.024658 
	C485.906830,217.471100 470.633423,212.929703 455.087250,210.554901 
	C450.176971,209.804810 445.153564,209.749359 440.273376,208.869064 
	C438.079651,208.473343 436.110596,206.832352 434.473114,205.331390 
	C441.171722,205.523590 447.462402,205.952042 453.696686,206.796555 
	C467.472382,208.662598 480.913910,213.055115 495.069794,212.036209 
	C509.127960,211.024338 521.657532,206.714432 531.553223,196.110977 
	C542.518311,184.361618 546.658875,169.871857 546.619751,154.506989 
	C546.597473,145.777954 543.466980,137.056854 541.736267,128.332184 
z"/>
<path fill="#805C74" opacity="1.000000" stroke="none" 
	d="
M541.601379,128.021637 
	C543.466980,137.056854 546.597473,145.777954 546.619751,154.506989 
	C546.658875,169.871857 542.518311,184.361618 531.553223,196.110977 
	C521.657532,206.714432 509.127960,211.024338 495.069794,212.036209 
	C480.913910,213.055115 467.472382,208.662598 453.696686,206.796555 
	C447.462402,205.952042 441.171722,205.523590 434.448120,204.959259 
	C433.214417,204.719986 432.439178,204.427841 431.278198,203.834900 
	C430.513123,202.719528 430.133789,201.904968 429.754486,201.090424 
	C443.163940,202.893723 456.604706,204.493835 469.974823,206.552719 
	C486.007233,209.021545 501.693970,209.310898 516.323792,200.901031 
	C532.338257,191.695251 539.227966,176.899521 542.106934,159.371964 
	C544.176086,146.774979 541.724548,135.047668 537.203186,123.115204 
	C538.681702,124.388893 540.074097,126.049988 541.601379,128.021637 
z"/>
<path fill="#805C75" opacity="1.000000" stroke="none" 
	d="
M185.872482,199.043365 
	C196.623199,198.353317 207.384766,197.791733 218.117157,196.884811 
	C220.871643,196.652039 225.120087,196.028687 225.862961,194.342621 
	C226.947311,191.881561 226.236191,187.935532 224.953339,185.264740 
	C221.958038,179.028748 223.001022,175.684189 229.995514,174.917709 
	C237.564850,174.088226 245.245514,174.105392 252.875183,174.152069 
	C254.242859,174.160446 255.598679,176.104828 256.531097,177.525803 
	C249.293472,177.997284 242.451675,177.744995 235.692642,178.377243 
	C233.074615,178.622116 229.488403,180.264038 228.398376,182.345673 
	C226.759430,185.475510 227.954498,189.173904 231.486694,191.326401 
	C231.712723,191.937790 231.938721,192.549179 232.078003,193.824127 
	C231.284515,199.888962 228.012482,200.989777 222.928802,201.103500 
	C211.915115,201.349884 200.919800,202.416656 189.916962,203.147949 
	C189.916962,203.147949 189.462082,203.019180 189.142212,202.681870 
	C187.839066,201.244156 186.855774,200.143768 185.872482,199.043365 
z"/>
<path fill="#C2B2BD" opacity="1.000000" stroke="none" 
	d="
M364.166504,164.659042 
	C365.450470,165.835602 366.734406,167.012161 368.088379,168.515778 
	C367.129456,170.834427 365.252563,172.814743 365.225830,174.819687 
	C365.134705,181.659393 363.967041,188.504272 367.611725,195.215622 
	C370.256714,200.086014 366.395508,204.258514 360.659882,203.922577 
	C348.779694,203.226715 336.882111,202.753326 325.026917,201.765488 
	C322.498657,201.554825 320.120575,199.542114 317.341187,197.986847 
	C317.009033,197.614090 316.997253,197.121140 317.465698,197.104263 
	C330.974243,197.903900 344.015717,198.699051 357.053680,199.547714 
	C362.058990,199.873520 365.836823,195.598648 363.447876,191.281631 
	C359.310181,183.804367 361.390869,176.031464 361.199097,168.378021 
	C361.168640,167.163910 363.127441,165.899963 364.166504,164.659042 
z"/>
<path fill="#C2B2BD" opacity="1.000000" stroke="none" 
	d="
M183.030823,186.772049 
	C182.117691,187.989044 181.199692,188.764847 180.141785,188.894424 
	C177.328827,171.288010 174.371277,154.366226 172.074768,137.355209 
	C170.308304,124.270432 165.369354,111.239204 170.345428,97.831970 
	C174.858093,98.725853 174.885315,102.590797 173.806259,105.248917 
	C170.322113,113.831635 173.495453,122.006744 174.616989,130.237213 
	C177.169571,148.969208 180.193558,167.636978 183.030823,186.772049 
z"/>
<path fill="#815C75" opacity="1.000000" stroke="none" 
	d="
M170.196686,97.533844 
	C165.369354,111.239204 170.308304,124.270432 172.074768,137.355209 
	C174.371277,154.366226 177.328827,171.288010 179.989914,188.667694 
	C174.356522,185.210678 175.041550,178.852783 174.111618,173.319351 
	C171.341660,156.837036 168.962250,140.288925 166.452087,123.763206 
	C165.606964,118.199265 164.342041,112.640007 164.173523,107.051338 
	C164.041992,102.689804 165.309906,98.286072 165.984009,93.493057 
	C167.357361,94.468590 168.702652,95.852150 170.196686,97.533844 
z"/>
<path fill="#846179" opacity="1.000000" stroke="none" 
	d="
M426.884399,189.013046 
	C424.780914,192.732391 423.979034,196.069519 426.862976,200.171570 
	C423.147797,201.530472 419.377319,202.790070 415.637543,202.704727 
	C404.725830,202.455704 393.826324,201.669510 382.922058,201.093887 
	C381.607819,199.976868 380.293549,198.859848 378.906372,197.415344 
	C390.032410,197.681381 401.231140,198.279907 412.430695,198.862900 
	C414.084351,198.948990 415.744293,199.042877 417.397095,198.993439 
	C422.903961,198.828735 425.526337,194.986023 423.469147,189.926468 
	C420.047577,181.511246 416.499786,173.147339 413.242554,164.384003 
	C413.653229,164.004196 413.826569,164.002243 413.999878,164.000275 
	C419.784821,171.415039 424.345703,179.466751 426.884399,189.013046 
z"/>
<path fill="#C3B3BE" opacity="1.000000" stroke="none" 
	d="
M414.001526,163.629730 
	C413.826569,164.002243 413.653229,164.004196 413.220093,164.018921 
	C412.960297,164.031677 412.987610,164.014465 412.926697,163.762909 
	C412.600220,163.283218 412.334656,163.055115 412.069092,162.826996 
	C411.149353,161.737015 410.229614,160.647064 409.330170,158.978806 
	C410.625854,157.110657 411.775726,155.659088 413.196594,154.556808 
	C423.705261,146.404221 426.863251,135.385376 425.369354,122.749947 
	C424.853363,118.385712 423.375336,114.135216 422.336761,109.832756 
	C428.490936,114.771362 429.324921,121.973145 429.882599,128.976929 
	C430.900177,141.755875 426.635590,152.419006 415.899994,160.093765 
	C414.982391,160.749756 414.622284,162.185608 414.001526,163.629730 
z"/>
<path fill="#C3B3BE" opacity="1.000000" stroke="none" 
	d="
M126.345490,206.846741 
	C127.497536,208.946442 129.889801,211.346863 129.472916,213.066147 
	C129.001816,215.009033 126.193916,217.387238 124.079018,217.764603 
	C111.740242,219.966064 99.331047,221.848343 86.881401,223.279770 
	C84.766953,223.522873 82.341354,221.059830 80.410423,219.472656 
	C82.563461,218.883575 84.372017,218.712387 86.166626,218.446899 
	C96.132210,216.972656 106.057976,215.090164 116.072632,214.143478 
	C121.341225,213.645447 125.041634,212.289169 126.345490,206.846741 
z"/>
<path fill="#805D75" opacity="1.000000" stroke="none" 
	d="
M422.175232,109.531883 
	C423.375336,114.135216 424.853363,118.385712 425.369354,122.749947 
	C426.863251,135.385376 423.705261,146.404221 413.196594,154.556808 
	C411.775726,155.659088 410.625854,157.110657 409.202301,158.701172 
	C404.985016,154.067230 405.094879,153.768219 409.706482,150.124939 
	C419.772278,142.172760 422.889893,131.339355 421.422119,119.156013 
	C420.821625,114.171585 418.631958,109.378601 417.211121,104.117455 
	C418.842560,105.567924 420.428131,107.399467 422.175232,109.531883 
z"/>
<path fill="#C3B3BE" opacity="1.000000" stroke="none" 
	d="
M185.679672,199.023834 
	C186.855774,200.143768 187.839066,201.244156 188.908340,202.647629 
	C189.733658,207.280060 186.984436,208.403183 183.536926,208.920151 
	C171.319229,210.752274 159.128143,212.809738 146.863373,214.234238 
	C144.749512,214.479736 142.325714,212.056870 140.383163,210.490448 
	C142.660889,209.743835 144.589462,209.296402 146.542007,209.015594 
	C157.633743,207.420410 168.729034,205.849411 179.828110,204.306091 
	C182.959045,203.870743 185.231522,202.679306 185.100266,199.032120 
	C185.100266,199.032120 185.486862,199.004318 185.679672,199.023834 
z"/>
<path fill="#7F5C74" opacity="1.000000" stroke="none" 
	d="
M126.234482,206.530884 
	C125.041634,212.289169 121.341225,213.645447 116.072632,214.143478 
	C106.057976,215.090164 96.132210,216.972656 86.166626,218.446899 
	C84.372017,218.712387 82.563461,218.883575 80.321899,219.137695 
	C79.240486,218.370010 78.598511,217.562927 77.918129,216.434875 
	C85.033913,214.409912 92.139107,212.444778 99.358856,211.090225 
	C104.506027,210.124527 109.806335,209.970535 115.039963,209.471649 
	C119.264412,209.068954 121.660263,206.855270 122.309021,202.297943 
	C123.164719,202.276138 123.692451,202.505859 124.220184,202.735596 
	C124.854622,203.895416 125.489052,205.055222 126.234482,206.530884 
z"/>
<path fill="#C2B2BD" opacity="1.000000" stroke="none" 
	d="
M316.997253,197.121140 
	C316.997253,197.121140 317.009033,197.614090 317.020020,197.861084 
	C315.100525,199.085281 313.219940,200.784622 311.231415,200.922043 
	C298.679413,201.789627 286.107483,202.423111 273.532776,202.871368 
	C270.167084,202.991348 266.057526,204.613373 264.296753,199.607330 
	C278.076630,198.401093 291.459991,197.835770 304.815704,196.883194 
	C307.903839,196.662933 310.897522,195.118683 314.064453,194.461060 
	C315.128601,195.532654 316.062927,196.326889 316.997253,197.121140 
z"/>
<path fill="#7F5B74" opacity="1.000000" stroke="none" 
	d="
M184.927078,198.755478 
	C185.231522,202.679306 182.959045,203.870743 179.828110,204.306091 
	C168.729034,205.849411 157.633743,207.420410 146.542007,209.015594 
	C144.589462,209.296402 142.660889,209.743835 140.296906,210.156219 
	C139.234268,209.381958 138.595978,208.565750 137.919891,207.427322 
	C142.505020,205.737061 147.050293,203.922714 151.768387,203.101868 
	C159.531250,201.751297 167.423309,201.159393 175.222763,199.992737 
	C177.448990,199.659729 179.543533,198.446198 182.755630,197.239212 
	C182.587555,197.134949 183.670731,197.806885 184.927078,198.755478 
z"/>
<path fill="#805D75" opacity="1.000000" stroke="none" 
	d="
M313.934662,194.183701 
	C310.897522,195.118683 307.903839,196.662933 304.815704,196.883194 
	C291.459991,197.835770 278.076630,198.401093 264.267395,199.232391 
	C262.359100,198.089676 260.886719,196.821884 259.274719,195.264191 
	C274.519165,194.233292 289.905914,193.539566 305.282654,192.668701 
	C306.628754,192.592453 307.909027,191.353638 309.409760,190.553589 
	C310.607483,191.310349 311.964294,192.167618 313.646820,193.355225 
	C313.972534,193.685547 313.934662,194.183701 313.934662,194.183701 
z"/>
<path fill="#C4B4BF" opacity="1.000000" stroke="none" 
	d="
M190.050659,203.475632 
	C200.919800,202.416656 211.915115,201.349884 222.928802,201.103500 
	C228.012482,200.989777 231.284515,199.888962 232.181351,194.133240 
	C233.427856,196.081284 235.392715,198.412735 235.320358,200.679153 
	C235.220535,203.806229 232.538559,204.974960 229.210480,205.108017 
	C218.625137,205.531189 208.058228,206.500397 197.472107,206.755035 
	C195.067917,206.812851 192.614899,204.840958 190.050659,203.475632 
z"/>
<path fill="#C3B3BE" opacity="1.000000" stroke="none" 
	d="
M382.979889,201.465454 
	C393.826324,201.669510 404.725830,202.455704 415.637543,202.704727 
	C419.377319,202.790070 423.147797,201.530472 427.000977,200.524658 
	C427.825623,200.355377 428.553528,200.546768 429.517944,200.914291 
	C430.133789,201.904968 430.513123,202.719528 430.954041,203.870956 
	C429.211334,205.150421 427.373505,206.960098 425.608276,206.891861 
	C415.733643,206.510132 405.878906,205.636185 396.011780,205.019852 
	C393.375580,204.855148 390.638672,205.398453 388.100311,204.876221 
	C386.281311,204.502029 384.716125,202.894379 382.979889,201.465454 
z"/>
<path fill="#C1B0BC" opacity="1.000000" stroke="none" 
	d="
M124.205200,202.321106 
	C123.692451,202.505859 123.164719,202.276138 122.369980,201.910889 
	C121.504608,200.721649 120.906227,199.667938 120.153992,197.936066 
	C119.012238,191.112793 117.967140,184.976151 117.057388,178.819489 
	C116.490204,174.981140 118.594070,172.890686 122.121964,172.226944 
	C125.008980,171.683807 127.962311,171.493195 130.886246,171.146301 
	C131.245087,172.539673 131.603928,173.933060 131.927521,175.686005 
	C129.944595,176.284683 127.995872,176.515640 126.049431,176.764557 
	C122.089256,177.270996 120.844261,179.509033 121.487411,183.356415 
	C122.517441,189.518234 123.301933,195.721085 124.205200,202.321106 
z"/>
<path fill="#C2B2BD" opacity="1.000000" stroke="none" 
	d="
M231.636093,190.914322 
	C227.954498,189.173904 226.759430,185.475510 228.398376,182.345673 
	C229.488403,180.264038 233.074615,178.622116 235.692642,178.377243 
	C242.451675,177.744995 249.293472,177.997284 256.574646,177.899612 
	C257.122528,179.102737 257.197937,180.302505 257.093048,181.769775 
	C250.505997,182.348434 244.094360,182.583191 237.694214,182.996353 
	C233.064224,183.295212 231.671371,186.357895 231.636093,190.914322 
z"/>
<path fill="#825D76" opacity="1.000000" stroke="none" 
	d="
M110.096695,134.966904 
	C108.743088,133.007385 106.702354,131.221085 106.157074,129.057831 
	C104.010170,120.540565 103.123749,111.908691 106.270691,102.894180 
	C107.606728,103.682060 108.835762,104.916931 110.152100,106.880997 
	C108.745483,114.041626 107.114258,120.426857 108.982307,127.122383 
	C109.685989,129.644531 109.744209,132.346771 110.096695,134.966904 
z"/>
<path fill="#C3B3BE" opacity="1.000000" stroke="none" 
	d="
M110.485168,135.055115 
	C109.744209,132.346771 109.685989,129.644531 108.982307,127.122383 
	C107.114258,120.426857 108.745483,114.041626 110.318207,107.176552 
	C114.660965,107.762848 115.624481,111.060303 114.201698,114.314545 
	C111.272293,121.014778 112.635735,127.502953 113.983757,134.516418 
	C112.980797,134.994736 111.927223,135.069031 110.485168,135.055115 
z"/>
<path fill="#805C74" opacity="1.000000" stroke="none" 
	d="
M537.292297,122.465866 
	C536.868774,122.400490 536.419678,122.030663 535.967834,121.335083 
	C536.398926,121.393356 536.832886,121.777382 537.292297,122.465866 
z"/>
<path fill="#805D75" opacity="1.000000" stroke="none" 
	d="
M417.236816,103.506668 
	C416.849396,103.451576 416.408752,103.117386 415.930511,102.485611 
	C416.323120,102.534538 416.753387,102.881050 417.236816,103.506668 
z"/>
<path fill="#805C74" opacity="1.000000" stroke="none" 
	d="
M535.935913,120.762100 
	C535.692810,120.842400 535.399841,120.653717 535.045166,120.198479 
	C535.284302,120.118988 535.585144,120.306053 535.935913,120.762100 
z"/>
<path fill="#805B74" opacity="1.000000" stroke="none" 
	d="
M314.064453,194.461060 
	C313.934662,194.183701 313.972534,193.685547 313.981262,193.437515 
	C326.691864,193.873291 339.389832,194.662140 352.099457,195.140900 
	C354.301270,195.223831 357.586853,194.656693 358.518127,193.202621 
	C359.672546,191.400116 359.753967,187.956314 358.798859,185.927704 
	C355.311005,178.519409 357.576355,170.883057 357.225677,163.376541 
	C357.190521,162.623535 358.921021,161.004364 359.284119,161.150314 
	C360.970032,161.828018 362.462769,162.986206 364.095581,164.315720 
	C363.127441,165.899963 361.168640,167.163910 361.199097,168.378021 
	C361.390869,176.031464 359.310181,183.804367 363.447876,191.281631 
	C365.836823,195.598648 362.058990,199.873520 357.053680,199.547714 
	C344.015717,198.699051 330.974243,197.903900 317.465698,197.104263 
	C316.062927,196.326889 315.128601,195.532654 314.064453,194.461060 
z"/>
<path fill="#7F5A73" opacity="1.000000" stroke="none" 
	d="
M130.801071,170.782166 
	C127.962311,171.493195 125.008980,171.683807 122.121964,172.226944 
	C118.594070,172.890686 116.490204,174.981140 117.057388,178.819489 
	C117.967140,184.976151 119.012238,191.112793 119.983704,197.678635 
	C114.207184,194.095596 115.825760,187.387741 114.064148,181.920654 
	C113.867958,181.311798 114.022453,180.598953 113.930923,179.946030 
	C112.380173,168.883148 113.575348,167.305695 124.942352,167.175049 
	C126.854195,167.153091 128.790756,169.282608 130.801071,170.782166 
z"/>
<path fill="#7F5B73" opacity="1.000000" stroke="none" 
	d="
M233.084656,144.911682 
	C231.721329,143.708572 229.012238,142.203827 229.203796,141.349228 
	C231.025589,133.221191 232.794632,124.996994 235.734406,117.238289 
	C237.279266,113.161072 239.758621,115.591560 240.862000,119.140984 
	C238.180283,128.172791 235.632462,136.542236 233.084656,144.911682 
z"/>
<path fill="#FBF8FA" opacity="1.000000" stroke="none" 
	d="
M378.987244,123.009026 
	C381.044098,131.382355 377.031738,136.452438 367.469849,136.551453 
	C367.083649,135.216904 367.041473,134.384918 367.116547,133.563614 
	C368.110413,122.688385 368.114563,122.688766 378.987244,123.009026 
z"/>
<path fill="#7F5873" opacity="1.000000" stroke="none" 
	d="
M363.065918,136.921600 
	C361.744995,135.857269 359.323944,134.826553 359.290222,133.722855 
	C359.128876,128.446106 359.340607,123.112129 360.054199,117.885117 
	C360.244019,116.494659 362.679901,114.375717 364.083313,114.376694 
	C368.619507,114.379852 373.498505,114.219482 376.364532,118.844376 
	C374.549500,118.900406 373.086182,118.665749 371.624878,118.419281 
	C366.212372,117.506371 363.735413,119.159012 363.273712,124.550064 
	C362.922577,128.649765 363.115204,132.796051 363.065918,136.921600 
z"/>
<path fill="#FBF8FA" opacity="1.000000" stroke="none" 
	d="
M244.177307,125.804230 
	C245.453613,129.552292 246.985321,133.236221 247.946396,137.063431 
	C249.393204,142.824982 247.971054,144.483963 241.878738,144.913773 
	C240.884705,144.983902 239.884476,144.966629 238.424896,144.545624 
	C240.034210,138.002411 242.105759,131.903320 244.177307,125.804230 
z"/>
<path fill="#C2B1BD" opacity="1.000000" stroke="none" 
	d="
M363.463287,136.986633 
	C363.115204,132.796051 362.922577,128.649765 363.273712,124.550064 
	C363.735413,119.159012 366.212372,117.506371 371.624878,118.419281 
	C373.086182,118.665749 374.549500,118.900406 376.415344,119.202438 
	C377.554047,120.293259 378.289307,121.322128 379.005890,122.680016 
	C368.114563,122.688766 368.110413,122.688385 367.116547,133.563614 
	C367.041473,134.384918 367.083649,135.216904 367.067505,136.471771 
	C365.996002,136.950302 364.928345,137.000992 363.463287,136.986633 
z"/>
<path fill="#C2B1BD" opacity="1.000000" stroke="none" 
	d="
M244.151886,125.453598 
	C242.105759,131.903320 240.034210,138.002411 237.997726,144.503662 
	C236.656509,144.948792 235.280228,144.991745 233.494308,144.973190 
	C235.632462,136.542236 238.180283,128.172791 240.890442,119.501892 
	C242.077362,121.167961 243.101913,123.135468 244.151886,125.453598 
z"/>
<path fill="#846179" opacity="1.000000" stroke="none" 
	d="
M412.114258,163.096863 
	C412.334656,163.055115 412.600220,163.283218 412.920959,163.773346 
	C412.703918,163.812469 412.431671,163.589600 412.114258,163.096863 
z"/>
<path fill="#FCFAFC" opacity="1.000000" stroke="none" 
	d="
M498.317444,139.730408 
	C501.910889,149.224915 500.146423,158.092911 494.259369,165.918839 
	C492.489471,168.271637 488.727753,169.126083 485.537781,170.254120 
	C486.434723,162.220093 487.731110,154.607834 488.893402,146.975143 
	C490.056274,139.338730 490.838135,138.682205 498.317444,139.730408 
z"/>
<path fill="#7F5A73" opacity="1.000000" stroke="none" 
	d="
M480.654236,170.099701 
	C477.137756,169.743179 475.884827,168.211227 476.604767,164.411987 
	C478.236633,155.800583 479.853638,147.134979 480.571716,138.416885 
	C481.229401,130.432205 484.643402,129.269760 492.714508,132.951736 
	C493.865814,133.476944 494.741364,134.606659 495.462524,135.756104 
	C486.841309,133.980942 486.124084,134.265686 484.688171,142.622269 
	C483.120972,151.743164 481.980652,160.937424 480.654236,170.099701 
z"/>
<path fill="#C2B0BC" opacity="1.000000" stroke="none" 
	d="
M480.997742,170.290222 
	C481.980652,160.937424 483.120972,151.743164 484.688171,142.622269 
	C486.124084,134.265686 486.841309,133.980942 495.586609,136.088699 
	C496.742401,137.111343 497.492096,138.100922 498.279602,139.410461 
	C490.838135,138.682205 490.056274,139.338730 488.893402,146.975143 
	C487.731110,154.607834 486.434723,162.220093 485.187561,170.222595 
	C483.899078,170.562836 482.620178,170.521790 480.997742,170.290222 
z"/>
</svg>