<svg version="1.1" id="Layer_1" xmlns="http://www.w3.org/2000/svg" xmlns:xlink="http://www.w3.org/1999/xlink" x="0px" y="0px"
	 width="100%" viewBox="0 0 600 300" enable-background="new 0 0 600 300" xml:space="preserve">
<path fill="#FEFFFF" opacity="1.000000" stroke="none" 
	d="
M398.000000,301.000000 
	C265.370026,301.000000 133.240036,301.000000 1.055030,301.000000 
	C1.055030,201.064468 1.055030,101.128906 1.055030,1.096667 
	C200.880005,1.096667 400.760071,1.096667 600.820068,1.096667 
	C600.820068,100.999741 600.820068,200.999847 600.820068,301.000000 
	C533.462219,301.000000 465.981110,301.000000 398.000000,301.000000 
M70.147247,211.142868 
	C69.135460,209.983154 68.123680,208.823441 67.043709,207.392685 
	C67.043709,207.392685 66.869339,207.174301 66.931374,206.305313 
	C65.399773,199.236435 63.761398,192.187805 62.414543,185.083893 
	C62.093304,183.389511 62.745388,181.510605 63.446110,180.207596 
	C68.896217,186.861023 74.346321,193.514465 80.000374,200.817749 
	C80.762703,201.680740 81.464890,202.607117 82.297005,203.396545 
	C88.109810,208.911118 92.205627,207.775757 94.259567,199.938599 
	C95.344421,195.799179 95.884346,191.516693 96.974472,187.378952 
	C97.645782,184.830887 98.890800,182.433945 99.993378,180.778839 
	C100.320724,186.420532 100.815788,192.059464 100.908958,197.705017 
	C100.960197,200.810059 101.519859,203.249619 104.964447,204.933762 
	C106.253845,206.041473 107.543243,207.149170 109.022446,208.963074 
	C110.723129,209.581482 112.589912,211.001022 114.097572,210.688446 
	C123.968788,208.641830 133.793442,206.340240 143.550552,203.803680 
	C145.171356,203.382324 147.365356,201.515854 147.527557,200.112930 
	C147.706284,198.566757 145.847290,196.785004 144.350830,194.617691 
	C143.411819,192.338913 142.162064,190.136002 141.584335,187.769043 
	C137.892044,172.641617 134.202682,157.510330 130.824280,142.310974 
	C129.432083,136.047546 127.488205,129.452911 128.228271,123.301636 
	C128.918488,117.564697 127.125000,114.599129 122.720810,111.229507 
	C121.050034,107.520584 118.390007,106.900024 114.555656,107.922684 
	C106.385727,110.101662 98.149689,112.090759 89.854210,113.715996 
	C85.848061,114.500877 83.635628,116.343590 82.862831,120.289284 
	C81.329788,128.116562 79.718224,135.929306 78.036140,143.725861 
	C77.683388,145.360855 76.886269,146.900009 75.964203,149.364624 
	C74.026100,147.299316 72.753296,146.063660 71.618034,144.712448 
	C66.481415,138.598709 61.617691,132.230530 56.136208,126.446274 
	C54.381344,124.594482 50.810604,123.023834 48.445389,123.442314 
	C38.821869,125.145027 29.333944,127.628624 19.815975,129.907639 
	C14.493026,131.182190 13.453439,134.744217 16.576784,139.135513 
	C18.443277,141.759720 20.233963,144.734253 20.977291,147.812454 
	C25.540092,166.707428 29.855059,185.663422 34.071926,204.639236 
	C34.584412,206.945404 34.521278,209.645584 33.838272,211.893814 
	C32.565144,216.084518 33.759296,218.658035 37.898849,220.821579 
	C38.851585,221.690796 39.804321,222.560013 40.983311,224.060349 
	C42.581501,224.899368 44.360523,226.685394 45.747921,226.420486 
	C53.532646,224.934006 61.266201,223.111557 68.913673,221.024399 
	C70.721107,220.531113 73.306770,218.679123 73.424667,217.275009 
	C73.570847,215.534042 71.521362,213.608734 70.147247,211.142868 
M516.018555,202.982254 
	C518.811646,206.288040 521.830444,205.784866 524.400696,202.981689 
	C528.274536,198.756821 531.828125,194.238388 535.339355,190.666550 
	C533.325317,195.230637 531.587219,199.944656 529.213196,204.313095 
	C527.180847,208.052628 527.632935,210.400253 532.127625,213.685364 
	C533.044922,214.509384 533.962219,215.333405 535.046387,216.857498 
	C536.649292,217.886307 538.125916,219.424332 539.876343,219.858597 
	C549.025696,222.128494 558.269470,224.015808 567.429626,226.244858 
	C572.720520,227.532333 575.538269,224.762527 574.654663,219.258804 
	C574.166687,216.219131 573.928467,212.923752 574.563965,209.954742 
	C578.306946,192.466797 582.172180,175.000076 586.397034,157.623672 
	C587.416443,153.430725 589.850708,149.556305 591.818054,145.627396 
	C593.360107,142.547775 594.417419,139.747513 589.980042,137.239182 
	C588.701599,136.138962 587.423157,135.038742 586.091248,133.183044 
	C584.433777,132.075348 582.916870,130.423615 581.094849,129.952866 
	C572.592285,127.756058 563.959229,126.060608 555.469421,123.819908 
	C551.552917,122.786255 549.060608,124.202934 546.870728,127.055283 
	C542.415039,132.859070 537.921143,138.634735 533.556580,144.506439 
	C532.502319,145.924728 531.890686,147.671997 531.075500,149.267990 
	C530.450195,148.742264 529.824829,148.216537 529.199524,147.690811 
	C527.754578,140.900146 526.361084,134.097977 524.849182,127.322266 
	C523.516296,121.348587 520.368286,116.257637 514.456177,114.510925 
	C505.255524,111.792610 495.772278,110.023857 486.396088,107.908928 
	C480.748322,106.635002 478.251526,109.346413 479.256348,114.985535 
	C479.793518,118.000175 480.064941,121.299728 479.425934,124.247330 
	C475.662354,141.607452 471.788849,158.949951 467.499298,176.185623 
	C466.382538,180.673019 463.783752,184.827744 461.618103,189.007019 
	C459.732697,192.645416 460.040436,195.351379 464.279205,197.668640 
	C465.501801,198.803238 466.724396,199.937820 468.100555,201.777679 
	C468.838043,202.395950 469.485260,203.358414 470.326965,203.579071 
	C478.420715,205.700974 486.503723,207.902542 494.683655,209.639297 
	C498.456299,210.440308 501.561737,206.864685 500.479065,203.117371 
	C497.870758,194.089478 501.980530,186.153046 504.459045,178.588760 
	C505.323914,182.988632 505.826172,187.505524 507.193573,191.743210 
	C507.977783,194.173401 510.166626,196.150360 511.936646,198.937225 
	C513.228149,200.054367 514.519653,201.171494 516.018555,202.982254 
M213.873428,134.294464 
	C212.914932,133.492676 211.956436,132.690887 210.677505,131.321014 
	C209.948563,130.246857 209.219604,129.172714 209.441406,128.005585 
	C211.910507,128.142853 214.385071,128.217041 216.847504,128.431091 
	C221.416550,128.828262 223.564896,125.949814 221.897141,121.798073 
	C220.173874,117.508209 218.770813,113.087372 216.977661,108.829109 
	C216.265091,107.136940 214.880753,105.727654 213.347397,103.738831 
	C212.181351,102.577927 211.015305,101.417023 209.378220,99.736809 
	C207.185654,98.719437 204.877380,96.628777 202.818451,96.850769 
	C182.320221,99.060852 161.862427,101.646683 141.394913,104.140419 
	C135.687500,104.835823 134.302353,108.197121 137.147156,113.300880 
	C138.724609,116.130920 140.178253,119.294632 140.609100,122.454987 
	C142.923676,139.432892 145.117920,156.434647 146.858978,173.478714 
	C147.381073,178.589767 146.500854,183.884903 145.907669,189.054916 
	C145.502701,192.584641 146.528915,194.882278 150.092972,196.636719 
	C151.038025,197.455475 151.983078,198.274231 153.084946,199.851669 
	C155.919617,200.526520 158.841629,202.030991 161.574982,201.743271 
	C181.160370,199.681732 200.701477,197.203644 220.270172,194.976822 
	C226.204529,194.301514 227.759430,192.813095 228.019196,186.859299 
	C228.088867,185.262314 228.543335,183.682114 229.021988,182.721939 
	C230.314423,183.827454 231.606842,184.932983 233.063538,186.659332 
	C234.004562,187.497253 234.945587,188.335159 236.033783,189.889206 
	C238.246994,190.870117 240.410156,192.507507 242.684906,192.680878 
	C246.262344,192.953537 249.909897,192.108109 253.536652,191.969727 
	C263.633148,191.584473 273.786774,191.857590 283.820770,190.877411 
	C297.930389,189.499161 310.377563,183.913727 317.898773,171.328247 
	C327.458435,155.331726 326.672699,138.543930 319.274750,121.838654 
	C318.919434,121.036346 317.935638,120.512352 316.955475,119.254257 
	C315.615204,117.514694 314.274902,115.775139 312.988556,114.000359 
	C312.988556,114.000359 312.951813,114.052933 312.883942,113.481697 
	C312.593628,113.242790 312.303284,113.003891 311.701263,112.197708 
	C301.529419,98.195724 287.193665,92.870491 270.536652,92.912773 
	C257.583313,92.945648 244.629547,93.451370 231.679749,93.865425 
	C226.733322,94.023582 225.115219,97.158333 227.171585,101.745407 
	C228.304016,104.271484 229.776840,106.931480 229.889587,109.582420 
	C230.723267,129.182907 231.341980,148.794327 231.780334,168.407852 
	C231.844025,171.257401 230.587830,174.136459 229.358597,176.494080 
	C229.525574,174.576172 229.804077,172.659897 229.832306,170.739960 
	C229.870682,168.128113 231.267776,164.895752 226.934189,163.275513 
	C225.728500,162.135681 224.522827,160.995850 223.096039,159.179504 
	C221.764755,158.370041 220.433472,157.560577 219.072189,155.897903 
	C218.652878,150.986282 218.552094,146.016617 217.672531,141.188843 
	C217.265854,138.956680 215.339508,137.001389 213.873428,134.294464 
M428.850311,106.311424 
	C427.690521,105.139626 426.530731,103.967827 425.116211,102.085793 
	C423.192505,101.065331 421.367035,99.535896 419.322510,99.141159 
	C416.084656,98.516029 412.671570,98.862495 409.383575,98.419777 
	C402.301147,97.466171 395.258423,96.221703 388.185394,95.192841 
	C382.927673,94.428024 380.360687,97.273613 381.392059,101.956230 
	C382.266266,105.925247 383.191437,110.118706 382.801758,114.085915 
	C381.664337,125.665894 380.253723,137.247513 378.254883,148.707199 
	C375.757233,163.026718 377.675568,175.579178 390.192871,185.420151 
	C390.498444,185.567017 390.803986,185.713882 391.035858,186.002457 
	C391.035858,186.002457 391.120850,185.862961 391.347412,186.502151 
	C395.238953,188.893982 399.130463,191.285828 403.296783,194.382324 
	C413.363098,199.607834 424.202209,200.325470 435.266388,200.043823 
	C450.165405,199.664566 462.645721,189.452591 464.871368,174.704895 
	C466.450439,164.241806 466.770020,153.594742 468.066132,143.080872 
	C469.084839,134.817612 468.253204,126.106400 473.608459,118.736732 
	C475.794189,115.728760 475.176270,113.068565 471.031311,111.231049 
	C470.007050,110.205421 468.982758,109.179802 467.679718,107.475685 
	C465.483215,106.340111 463.391724,104.574547 461.070435,104.187790 
	C454.270233,103.054771 447.355774,102.625748 440.529663,101.624161 
	C434.700195,100.768829 433.795532,101.177788 431.782562,106.981613 
	C431.517456,106.994217 431.252197,107.002335 430.383484,106.961220 
	C429.982208,106.929802 429.580933,106.898376 428.850311,106.311424 
M374.044189,101.209503 
	C372.850708,100.036301 371.657257,98.863098 370.141937,97.013695 
	C368.504883,96.074158 366.912750,94.417572 365.223480,94.311729 
	C354.451630,93.636841 343.660950,93.218651 332.871094,92.894592 
	C327.709351,92.739555 326.070526,95.821129 327.774628,100.801605 
	C328.926483,104.167961 329.880432,107.848564 329.777924,111.355133 
	C329.321198,126.982445 328.643341,142.610062 327.633911,158.210953 
	C327.254700,164.071182 326.447693,170.093063 324.571838,175.611649 
	C322.842285,180.699936 322.498260,181.934372 327.410400,185.470657 
	C328.555145,186.389084 329.699860,187.307510 331.031982,188.974472 
	C332.732880,189.667099 334.393646,190.814850 336.141998,190.968964 
	C341.907501,191.477142 347.707550,191.578857 353.488861,191.927246 
	C358.274994,192.215683 363.049408,192.841354 367.836365,192.933075 
	C372.542572,193.023224 374.383270,189.672836 372.749329,185.259384 
	C371.797852,182.689423 370.960815,179.852524 371.036835,177.162979 
	C371.551758,158.940063 372.162659,140.715820 373.131592,122.512718 
	C373.360962,118.203697 374.966675,113.944389 376.136719,109.716873 
	C376.983185,106.658585 378.596100,103.588173 374.044189,101.209503 
z"/>
<path fill="#0EC0DF" opacity="1.000000" stroke="none" 
	d="
M511.723114,198.331360 
	C510.166626,196.150360 507.977783,194.173401 507.193573,191.743210 
	C505.826172,187.505524 505.323914,182.988632 504.311829,177.829773 
	C503.694031,174.402695 503.223450,171.734573 502.784515,168.692368 
	C501.878296,166.433151 500.940430,164.548035 500.002594,162.662918 
	C499.463806,162.850372 498.925018,163.037811 498.386261,163.225250 
	C497.183502,168.843552 495.642090,174.416122 494.875092,180.093292 
	C494.137329,185.554260 493.912781,191.128082 494.001251,196.643677 
	C494.074951,201.238327 491.434570,203.508499 486.688202,202.355286 
	C479.157715,200.525620 471.592621,198.838394 464.042145,197.090927 
	C460.040436,195.351379 459.732697,192.645416 461.618103,189.007019 
	C463.783752,184.827744 466.382538,180.673019 467.499298,176.185623 
	C471.788849,158.949951 475.662354,141.607452 479.425934,124.247330 
	C480.064941,121.299728 479.793518,118.000175 479.256348,114.985535 
	C478.251526,109.346413 480.748322,106.635002 486.396088,107.908928 
	C495.772278,110.023857 505.255524,111.792610 514.456177,114.510925 
	C520.368286,116.257637 523.516296,121.348587 524.849182,127.322266 
	C526.361084,134.097977 527.754578,140.900146 529.199524,147.690811 
	C529.824829,148.216537 530.450195,148.742264 531.075500,149.267990 
	C531.890686,147.671997 532.502319,145.924728 533.556580,144.506439 
	C537.921143,138.634735 542.415039,132.859070 546.870728,127.055283 
	C549.060608,124.202934 551.552917,122.786255 555.469421,123.819908 
	C563.959229,126.060608 572.592285,127.756058 581.094849,129.952866 
	C582.916870,130.423615 584.433777,132.075348 586.132874,133.871796 
	C585.898193,135.766113 585.821167,137.064651 585.309875,138.160629 
	C583.461304,142.123123 580.693970,145.825714 579.664978,149.971786 
	C575.801208,165.539856 572.256653,181.197952 569.091125,196.922668 
	C567.979492,202.444870 568.070679,208.254898 568.044373,213.935486 
	C568.023315,218.485977 565.307129,220.490128 560.480286,219.357986 
	C551.006287,217.135880 541.476807,215.150497 531.970276,213.067139 
	C527.632935,210.400253 527.180847,208.052628 529.213196,204.313095 
	C531.587219,199.944656 533.325317,195.230637 535.612915,189.981766 
	C536.557373,185.895401 537.228271,182.493835 538.069946,178.754456 
	C538.762756,176.413788 539.284851,174.410934 539.807007,172.408066 
	C539.434021,172.131714 539.061096,171.855362 538.688171,171.579025 
	C537.434814,172.547241 535.938110,173.318466 534.968628,174.516449 
	C529.656982,181.080231 524.678162,187.926559 519.127991,194.276398 
	C517.389221,196.265656 514.231384,197.014664 511.723114,198.331360 
z"/>
<path fill="#11BFDE" opacity="1.000000" stroke="none" 
	d="
M79.796425,200.167908 
	C74.346321,193.514465 68.896217,186.861023 63.079781,179.672577 
	C61.705837,177.826752 60.860474,176.329910 59.638844,175.264481 
	C58.676083,174.424820 57.249794,174.116638 56.029388,173.572388 
	C55.982071,174.776642 55.667923,176.042969 55.931244,177.174957 
	C57.500393,183.920471 58.835060,190.756927 61.008022,197.311005 
	C62.183601,200.856781 64.866447,203.902817 66.869339,207.174301 
	C66.869339,207.174301 67.043709,207.392685 67.024063,207.947174 
	C67.358643,213.308609 63.840870,214.095688 60.350426,214.909302 
	C52.802006,216.668839 45.253284,218.427094 37.704689,220.185883 
	C33.759296,218.658035 32.565144,216.084518 33.838272,211.893814 
	C34.521278,209.645584 34.584412,206.945404 34.071926,204.639236 
	C29.855059,185.663422 25.540092,166.707428 20.977291,147.812454 
	C20.233963,144.734253 18.443277,141.759720 16.576784,139.135513 
	C13.453439,134.744217 14.493026,131.182190 19.815975,129.907639 
	C29.333944,127.628624 38.821869,125.145027 48.445389,123.442314 
	C50.810604,123.023834 54.381344,124.594482 56.136208,126.446274 
	C61.617691,132.230530 66.481415,138.598709 71.618034,144.712448 
	C72.753296,146.063660 74.026100,147.299316 75.964203,149.364624 
	C76.886269,146.900009 77.683388,145.360855 78.036140,143.725861 
	C79.718224,135.929306 81.329788,128.116562 82.862831,120.289284 
	C83.635628,116.343590 85.848061,114.500877 89.854210,113.715996 
	C98.149689,112.090759 106.385727,110.101662 114.555656,107.922684 
	C118.390007,106.900024 121.050034,107.520584 122.716217,111.881775 
	C122.473679,116.403069 121.400421,120.441315 122.143852,124.111557 
	C125.199432,139.196533 128.573914,154.228134 132.315979,169.157837 
	C134.054001,176.091965 134.529434,183.496292 139.867279,189.357956 
	C142.768951,192.544388 141.128845,196.068207 136.685898,197.142044 
	C126.083900,199.704498 115.405998,201.952866 104.758743,204.328079 
	C101.519859,203.249619 100.960197,200.810059 100.908958,197.705017 
	C100.815788,192.059464 100.320724,186.420532 99.962357,179.993988 
	C98.568237,174.166229 97.205139,169.123322 95.842049,164.080414 
	C95.326790,164.142319 94.811539,164.204224 94.296280,164.266113 
	C93.862930,165.792374 93.342896,167.300049 93.010750,168.848022 
	C91.275642,176.934540 89.654167,185.045959 87.857262,193.118454 
	C86.917336,197.341019 84.896637,200.580872 79.796425,200.167908 
z"/>
<path fill="#0DC0DF" opacity="1.000000" stroke="none" 
	d="
M229.942398,177.001862 
	C230.587830,174.136459 231.844025,171.257401 231.780334,168.407852 
	C231.341980,148.794327 230.723267,129.182907 229.889587,109.582420 
	C229.776840,106.931480 228.304016,104.271484 227.171585,101.745407 
	C225.115219,97.158333 226.733322,94.023582 231.679749,93.865425 
	C244.629547,93.451370 257.583313,92.945648 270.536652,92.912773 
	C287.193665,92.870491 301.529419,98.195724 311.893372,112.774612 
	C312.374268,113.585327 312.663025,113.819130 312.951813,114.052933 
	C312.951813,114.052933 312.988556,114.000359 312.932312,114.409729 
	C313.687225,117.344109 314.538879,119.856941 315.303406,122.396004 
	C323.089050,148.253052 313.484558,175.613663 285.320770,182.099030 
	C275.280609,184.411011 264.626709,184.107376 254.243027,184.860565 
	C247.137344,185.375977 240.014465,185.654236 232.899277,186.038498 
	C231.606842,184.932983 230.314423,183.827454 228.983917,182.033997 
	C229.278046,179.897995 229.610214,178.449921 229.942398,177.001862 
M277.992920,125.008186 
	C277.992920,125.008186 277.975128,125.037933 277.708130,124.343338 
	C277.055328,123.849579 276.466858,123.214127 275.739777,122.883987 
	C268.535736,119.612930 264.930878,121.818863 265.105530,129.556946 
	C265.262054,136.492081 265.545685,143.433456 266.134430,150.341309 
	C266.239685,151.576340 268.104584,152.661407 269.901703,153.928360 
	C270.645966,153.852036 271.390259,153.775711 272.838165,153.772354 
	C277.648926,152.995056 281.107788,149.945221 281.597137,145.487122 
	C282.189301,140.092651 281.207123,134.525360 280.825073,128.423080 
	C280.241425,127.596535 279.657776,126.769989 278.845703,125.485191 
	C278.552490,125.328178 278.259308,125.171158 277.992920,125.008186 
z"/>
<path fill="#0EC0DF" opacity="1.000000" stroke="none" 
	d="
M432.179626,106.962051 
	C433.795532,101.177788 434.700195,100.768829 440.529663,101.624161 
	C447.355774,102.625748 454.270233,103.054771 461.070435,104.187790 
	C463.391724,104.574547 465.483215,106.340111 467.783081,108.173965 
	C466.255829,112.971115 463.708710,116.952003 463.163086,121.190529 
	C461.386810,134.989319 460.456573,148.894531 458.975769,162.734695 
	C457.979919,172.042664 455.079193,180.447845 447.263641,186.596054 
	C436.637207,194.955475 424.366425,193.916916 412.394196,192.370117 
	C405.143890,191.433411 398.201538,188.112640 391.120850,185.862961 
	C391.120850,185.862961 391.035858,186.002457 390.976624,185.691986 
	C390.616425,185.228378 390.315460,185.075241 390.014465,184.922104 
	C377.675568,175.579178 375.757233,163.026718 378.254883,148.707199 
	C380.253723,137.247513 381.664337,125.665894 382.801758,114.085915 
	C383.191437,110.118706 382.266266,105.925247 381.392059,101.956230 
	C380.360687,97.273613 382.927673,94.428024 388.185394,95.192841 
	C395.258423,96.221703 402.301147,97.466171 409.383575,98.419777 
	C412.671570,98.862495 416.084656,98.516029 419.322510,99.141159 
	C421.367035,99.535896 423.192505,101.065331 425.151794,102.837784 
	C423.770874,107.414711 421.669708,111.134438 421.062744,115.083794 
	C419.023621,128.351578 417.697479,141.728516 415.690765,155.002029 
	C415.128143,158.723602 415.830078,161.121964 419.396912,162.931335 
	C420.424469,163.122391 421.115936,163.214523 422.113464,163.493988 
	C427.138672,164.179733 429.453033,162.011292 429.954834,157.326904 
	C431.117889,146.470200 432.558929,135.642761 433.671875,124.781387 
	C434.285980,118.788254 436.068817,112.612404 432.179626,106.962051 
z"/>
<path fill="#0EC0DF" opacity="1.000000" stroke="none" 
	d="
M219.102188,156.751099 
	C220.433472,157.560577 221.764755,158.370041 223.121124,159.954437 
	C222.425369,167.981415 221.630692,175.227173 221.015289,182.488144 
	C220.714645,186.035248 218.432510,187.502197 215.454468,187.830292 
	C204.752213,189.009308 193.997986,189.746384 183.316742,191.078278 
	C172.153076,192.470291 161.050949,194.355835 149.921921,196.025635 
	C146.528915,194.882278 145.502701,192.584641 145.907669,189.054916 
	C146.500854,183.884903 147.381073,178.589767 146.858978,173.478714 
	C145.117920,156.434647 142.923676,139.432892 140.609100,122.454987 
	C140.178253,119.294632 138.724609,116.130920 137.147156,113.300880 
	C134.302353,108.197121 135.687500,104.835823 141.394913,104.140419 
	C161.862427,101.646683 182.320221,99.060852 202.818451,96.850769 
	C204.877380,96.628777 207.185654,98.719437 209.639435,100.370575 
	C211.448929,105.356819 213.124008,109.670128 214.485977,114.080154 
	C215.068573,115.966629 215.896729,118.979271 215.015640,119.834801 
	C213.685242,121.126610 210.969528,121.291985 208.818375,121.386642 
	C199.110703,121.813766 189.386902,121.906242 179.685547,122.428185 
	C176.333618,122.608528 175.662094,125.262238 175.958725,128.273865 
	C176.220459,130.931152 176.063324,133.759979 180.393860,133.384537 
	C181.480392,133.266449 182.203094,133.181198 183.377045,133.115540 
	C190.877930,132.403519 198.119308,132.439133 204.605316,128.065521 
	C206.137314,128.099640 207.313980,128.099106 208.490662,128.098557 
	C209.219604,129.172714 209.948563,130.246857 210.785339,132.074158 
	C211.282669,137.433350 211.758743,142.034103 212.039093,146.646774 
	C212.366257,152.029587 210.463669,153.004379 205.225967,152.741821 
	C198.032089,152.381195 190.761917,152.901703 183.576294,153.587723 
	C182.230865,153.716202 180.194763,156.356903 180.129059,157.908218 
	C180.024872,160.368073 178.274887,164.313919 183.529373,164.910065 
	C184.610748,164.951279 185.335464,164.918396 186.496994,164.952637 
	C195.271469,163.307068 203.609116,161.594406 212.292755,159.830124 
	C214.793228,158.769379 216.947708,157.760239 219.102188,156.751099 
z"/>
<path fill="#0EC0DF" opacity="1.000000" stroke="none" 
	d="
M327.253632,184.859589 
	C322.498260,181.934372 322.842285,180.699936 324.571838,175.611649 
	C326.447693,170.093063 327.254700,164.071182 327.633911,158.210953 
	C328.643341,142.610062 329.321198,126.982445 329.777924,111.355133 
	C329.880432,107.848564 328.926483,104.167961 327.774628,100.801605 
	C326.070526,95.821129 327.709351,92.739555 332.871094,92.894592 
	C343.660950,93.218651 354.451630,93.636841 365.223480,94.311729 
	C366.912750,94.417572 368.504883,96.074158 370.196045,97.769470 
	C367.771515,106.194298 365.855316,113.844879 365.855194,122.107216 
	C365.855042,133.840256 364.499939,145.567368 364.230103,157.308655 
	C364.075897,164.018906 363.959869,170.997894 365.589661,177.407578 
	C367.290649,184.097214 366.466675,186.310547 359.366058,186.020828 
	C348.663940,185.584167 337.957977,185.241943 327.253632,184.859589 
z"/>
<path fill="#74ABC9" opacity="1.000000" stroke="none" 
	d="
M104.861595,204.630920 
	C115.405998,201.952866 126.083900,199.704498 136.685898,197.142044 
	C141.128845,196.068207 142.768951,192.544388 139.867279,189.357956 
	C134.529434,183.496292 134.054001,176.091965 132.315979,169.157837 
	C128.573914,154.228134 125.199432,139.196533 122.143852,124.111557 
	C121.400421,120.441315 122.473679,116.403069 122.889755,112.174286 
	C127.125000,114.599129 128.918488,117.564697 128.228271,123.301636 
	C127.488205,129.452911 129.432083,136.047546 130.824280,142.310974 
	C134.202682,157.510330 137.892044,172.641617 141.584335,187.769043 
	C142.162064,190.136002 143.411819,192.338913 144.589966,195.214417 
	C144.102417,199.218750 141.755386,200.368179 138.529999,201.085922 
	C128.591141,203.297653 118.726265,205.841843 108.832649,208.256866 
	C107.543243,207.149170 106.253845,206.041473 104.861595,204.630920 
z"/>
<path fill="#71A9C8" opacity="1.000000" stroke="none" 
	d="
M391.234131,186.182556 
	C398.201538,188.112640 405.143890,191.433411 412.394196,192.370117 
	C424.366425,193.916916 436.637207,194.955475 447.263641,186.596054 
	C455.079193,180.447845 457.979919,172.042664 458.975769,162.734695 
	C460.456573,148.894531 461.386810,134.989319 463.163086,121.190529 
	C463.708710,116.952003 466.255829,112.971115 467.922455,108.513214 
	C468.982758,109.179802 470.007050,110.205421 471.056152,111.914749 
	C469.374878,117.705132 466.831726,122.699142 466.126221,127.940506 
	C464.314697,141.399002 463.637878,155.008392 461.902832,168.479584 
	C460.314087,180.814758 454.633301,191.118408 441.986725,194.590927 
	C434.501984,196.646072 426.275177,196.502853 418.391602,196.421692 
	C413.259521,196.368835 408.144623,194.650101 403.022003,193.677658 
	C399.130463,191.285828 395.238953,188.893982 391.234131,186.182556 
z"/>
<path fill="#BED6E5" opacity="1.000000" stroke="none" 
	d="
M317.244537,119.858742 
	C317.935638,120.512352 318.919434,121.036346 319.274750,121.838654 
	C326.672699,138.543930 327.458435,155.331726 317.898773,171.328247 
	C310.377563,183.913727 297.930389,189.499161 283.820770,190.877411 
	C273.786774,191.857590 263.633148,191.584473 253.536652,191.969727 
	C249.909897,192.108109 246.262344,192.953537 242.684906,192.680878 
	C240.410156,192.507507 238.246994,190.870117 236.421478,189.482285 
	C248.401047,188.725952 259.995148,188.434265 271.583679,187.996170 
	C275.704620,187.840378 279.861572,187.620087 283.917664,186.931747 
	C307.342224,182.956421 321.284943,166.818359 320.874603,143.194763 
	C320.739166,135.397430 318.514130,127.636383 317.244537,119.858742 
z"/>
<path fill="#70A8C7" opacity="1.000000" stroke="none" 
	d="
M317.100006,119.556503 
	C318.514130,127.636383 320.739166,135.397430 320.874603,143.194763 
	C321.284943,166.818359 307.342224,182.956421 283.917664,186.931747 
	C279.861572,187.620087 275.704620,187.840378 271.583679,187.996170 
	C259.995148,188.434265 248.401047,188.725952 236.347885,189.124222 
	C234.945587,188.335159 234.004562,187.497253 232.981415,186.348907 
	C240.014465,185.654236 247.137344,185.375977 254.243027,184.860565 
	C264.626709,184.107376 275.280609,184.411011 285.320770,182.099030 
	C313.484558,175.613663 323.089050,148.253052 315.303406,122.396004 
	C314.538879,119.856941 313.687225,117.344109 312.905334,114.427338 
	C314.274902,115.775139 315.615204,117.514694 317.100006,119.556503 
z"/>
<path fill="#BDD6E5" opacity="1.000000" stroke="none" 
	d="
M403.159393,194.029999 
	C408.144623,194.650101 413.259521,196.368835 418.391602,196.421692 
	C426.275177,196.502853 434.501984,196.646072 441.986725,194.590927 
	C454.633301,191.118408 460.314087,180.814758 461.902832,168.479584 
	C463.637878,155.008392 464.314697,141.399002 466.126221,127.940506 
	C466.831726,122.699142 469.374878,117.705132 471.171021,112.214340 
	C475.176270,113.068565 475.794189,115.728760 473.608459,118.736732 
	C468.253204,126.106400 469.084839,134.817612 468.066132,143.080872 
	C466.770020,153.594742 466.450439,164.241806 464.871368,174.704895 
	C462.645721,189.452591 450.165405,199.664566 435.266388,200.043823 
	C424.202209,200.325470 413.363098,199.607834 403.159393,194.029999 
z"/>
<path fill="#6FA8C8" opacity="1.000000" stroke="none" 
	d="
M532.048950,213.376251 
	C541.476807,215.150497 551.006287,217.135880 560.480286,219.357986 
	C565.307129,220.490128 568.023315,218.485977 568.044373,213.935486 
	C568.070679,208.254898 567.979492,202.444870 569.091125,196.922668 
	C572.256653,181.197952 575.801208,165.539856 579.664978,149.971786 
	C580.693970,145.825714 583.461304,142.123123 585.309875,138.160629 
	C585.821167,137.064651 585.898193,135.766113 586.159607,134.249512 
	C587.423157,135.038742 588.701599,136.138962 590.054688,137.878662 
	C588.058960,142.575317 585.158142,146.421204 584.063049,150.726440 
	C579.490601,168.702850 575.365051,186.795883 571.320190,204.900772 
	C570.589966,208.169388 571.074829,211.698563 570.873535,215.100021 
	C570.734863,217.443542 571.156982,220.463394 569.883423,221.898712 
	C568.811218,223.107101 565.548340,222.986938 563.439697,222.554871 
	C553.883850,220.596832 544.393494,218.319702 534.879517,216.157440 
	C533.962219,215.333405 533.044922,214.509384 532.048950,213.376251 
z"/>
<path fill="#BBD5E4" opacity="1.000000" stroke="none" 
	d="
M534.962952,216.507477 
	C544.393494,218.319702 553.883850,220.596832 563.439697,222.554871 
	C565.548340,222.986938 568.811218,223.107101 569.883423,221.898712 
	C571.156982,220.463394 570.734863,217.443542 570.873535,215.100021 
	C571.074829,211.698563 570.589966,208.169388 571.320190,204.900772 
	C575.365051,186.795883 579.490601,168.702850 584.063049,150.726440 
	C585.158142,146.421204 588.058960,142.575317 590.256958,138.145035 
	C594.417419,139.747513 593.360107,142.547775 591.818054,145.627396 
	C589.850708,149.556305 587.416443,153.430725 586.397034,157.623672 
	C582.172180,175.000076 578.306946,192.466797 574.563965,209.954742 
	C573.928467,212.923752 574.166687,216.219131 574.654663,219.258804 
	C575.538269,224.762527 572.720520,227.532333 567.429626,226.244858 
	C558.269470,224.015808 549.025696,222.128494 539.876343,219.858597 
	C538.125916,219.424332 536.649292,217.886307 534.962952,216.507477 
z"/>
<path fill="#72A9C8" opacity="1.000000" stroke="none" 
	d="
M327.332031,185.165131 
	C337.957977,185.241943 348.663940,185.584167 359.366058,186.020828 
	C366.466675,186.310547 367.290649,184.097214 365.589661,177.407578 
	C363.959869,170.997894 364.075897,164.018906 364.230103,157.308655 
	C364.499939,145.567368 365.855042,133.840256 365.855194,122.107216 
	C365.855316,113.844879 367.771515,106.194298 370.356964,98.107567 
	C371.657257,98.863098 372.850708,100.036301 374.065796,101.905792 
	C369.966156,109.798828 369.899231,117.664154 369.789093,125.674896 
	C369.670837,134.276688 367.927948,142.898911 368.287415,151.453674 
	C368.733734,162.074768 365.027802,172.834961 369.776520,183.406265 
	C371.605957,187.478790 368.434448,189.734467 363.643890,189.455521 
	C352.723969,188.819748 341.779236,188.609238 330.844604,188.225922 
	C329.699860,187.307510 328.555145,186.389084 327.332031,185.165131 
z"/>
<path fill="#BDD6E5" opacity="1.000000" stroke="none" 
	d="
M330.938293,188.600204 
	C341.779236,188.609238 352.723969,188.819748 363.643890,189.455521 
	C368.434448,189.734467 371.605957,187.478790 369.776520,183.406265 
	C365.027802,172.834961 368.733734,162.074768 368.287415,151.453674 
	C367.927948,142.898911 369.670837,134.276688 369.789093,125.674896 
	C369.899231,117.664154 369.966156,109.798828 374.176819,102.214920 
	C378.596100,103.588173 376.983185,106.658585 376.136719,109.716873 
	C374.966675,113.944389 373.360962,118.203697 373.131592,122.512718 
	C372.162659,140.715820 371.551758,158.940063 371.036835,177.162979 
	C370.960815,179.852524 371.797852,182.689423 372.749329,185.259384 
	C374.383270,189.672836 372.542572,193.023224 367.836365,192.933075 
	C363.049408,192.841354 358.274994,192.215683 353.488861,191.927246 
	C347.707550,191.578857 341.907501,191.477142 336.141998,190.968964 
	C334.393646,190.814850 332.732880,189.667099 330.938293,188.600204 
z"/>
<path fill="#72A9C8" opacity="1.000000" stroke="none" 
	d="
M150.007446,196.331177 
	C161.050949,194.355835 172.153076,192.470291 183.316742,191.078278 
	C193.997986,189.746384 204.752213,189.009308 215.454468,187.830292 
	C218.432510,187.502197 220.714645,186.035248 221.015289,182.488144 
	C221.630692,175.227173 222.425369,167.981415 223.231689,160.292694 
	C224.522827,160.995850 225.728500,162.135681 226.976852,164.008698 
	C226.329636,170.648514 225.444794,176.540558 225.001175,182.465652 
	C224.492905,189.254379 223.438538,190.536499 216.894455,191.062424 
	C212.935669,191.380585 208.972855,191.713791 205.035721,192.224365 
	C187.661789,194.477386 170.296524,196.797302 152.928131,199.092987 
	C151.983078,198.274231 151.038025,197.455475 150.007446,196.331177 
z"/>
<path fill="#BDD6E5" opacity="1.000000" stroke="none" 
	d="
M153.006531,199.472321 
	C170.296524,196.797302 187.661789,194.477386 205.035721,192.224365 
	C208.972855,191.713791 212.935669,191.380585 216.894455,191.062424 
	C223.438538,190.536499 224.492905,189.254379 225.001175,182.465652 
	C225.444794,176.540558 226.329636,170.648514 227.076721,164.321747 
	C231.267776,164.895752 229.870682,168.128113 229.832306,170.739960 
	C229.804077,172.659897 229.525574,174.576172 229.650497,176.747971 
	C229.610214,178.449921 229.278046,179.897995 228.883499,181.720123 
	C228.543335,183.682114 228.088867,185.262314 228.019196,186.859299 
	C227.759430,192.813095 226.204529,194.301514 220.270172,194.976822 
	C200.701477,197.203644 181.160370,199.681732 161.574982,201.743271 
	C158.841629,202.030991 155.919617,200.526520 153.006531,199.472321 
z"/>
<path fill="#F7FDFE" opacity="1.000000" stroke="none" 
	d="
M431.981079,106.971832 
	C436.068817,112.612404 434.285980,118.788254 433.671875,124.781387 
	C432.558929,135.642761 431.117889,146.470200 429.954834,157.326904 
	C429.453033,162.011292 427.138672,164.179733 422.216980,163.070526 
	C422.275757,161.676758 422.680756,160.910904 422.776428,160.108200 
	C423.884674,150.810303 424.712646,141.471649 426.107147,132.217972 
	C426.952423,126.608833 427.992340,120.842171 430.217957,115.696991 
	C431.583557,112.539909 432.555023,110.092781 430.986816,107.005966 
	C431.252197,107.002335 431.517456,106.994217 431.981079,106.971832 
z"/>
<path fill="#90BBD4" opacity="1.000000" stroke="none" 
	d="
M79.898399,200.492828 
	C84.896637,200.580872 86.917336,197.341019 87.857262,193.118454 
	C89.654167,185.045959 91.275642,176.934540 93.010750,168.848022 
	C93.342896,167.300049 93.862930,165.792374 94.296280,164.266113 
	C94.811539,164.204224 95.326790,164.142319 95.842049,164.080414 
	C97.205139,169.123322 98.568237,174.166229 99.904785,179.589142 
	C98.890800,182.433945 97.645782,184.830887 96.974472,187.378952 
	C95.884346,191.516693 95.344421,195.799179 94.259567,199.938599 
	C92.205627,207.775757 88.109810,208.911118 82.297005,203.396545 
	C81.464890,202.607117 80.762703,201.680740 79.898399,200.492828 
z"/>
<path fill="#74ABC9" opacity="1.000000" stroke="none" 
	d="
M464.160675,197.379791 
	C471.592621,198.838394 479.157715,200.525620 486.688202,202.355286 
	C491.434570,203.508499 494.074951,201.238327 494.001251,196.643677 
	C493.912781,191.128082 494.137329,185.554260 494.875092,180.093292 
	C495.642090,174.416122 497.183502,168.843552 498.386261,163.225250 
	C498.925018,163.037811 499.463806,162.850372 500.002594,162.662918 
	C500.940430,164.548035 501.878296,166.433151 502.437378,168.764343 
	C500.063202,177.143188 498.012848,185.062943 496.131134,193.022552 
	C495.845673,194.230011 496.452484,195.622345 496.456696,196.929794 
	C496.465271,199.594040 497.338379,203.687073 496.043640,204.587997 
	C494.108215,205.934769 490.541321,205.455505 487.789673,205.007797 
	C481.138092,203.925522 474.556671,202.412048 467.946960,201.072418 
	C466.724396,199.937820 465.501801,198.803238 464.160675,197.379791 
z"/>
<path fill="#70AAC9" opacity="1.000000" stroke="none" 
	d="
M419.060852,162.832382 
	C415.830078,161.121964 415.128143,158.723602 415.690765,155.002029 
	C417.697479,141.728516 419.023621,128.351578 421.062744,115.083794 
	C421.669708,111.134438 423.770874,107.414711 425.279175,103.192902 
	C426.530731,103.967827 427.690521,105.139626 428.930481,106.964661 
	C427.154785,112.798172 425.125366,117.925423 423.519196,123.181999 
	C422.762726,125.657707 422.796844,128.379395 422.511444,130.993835 
	C421.353088,141.605804 420.209747,152.219391 419.060852,162.832382 
z"/>
<path fill="#C1D9E7" opacity="1.000000" stroke="none" 
	d="
M468.023743,201.425049 
	C474.556671,202.412048 481.138092,203.925522 487.789673,205.007797 
	C490.541321,205.455505 494.108215,205.934769 496.043640,204.587997 
	C497.338379,203.687073 496.465271,199.594040 496.456696,196.929794 
	C496.452484,195.622345 495.845673,194.230011 496.131134,193.022552 
	C498.012848,185.062943 500.063202,177.143188 502.405731,169.138458 
	C503.223450,171.734573 503.694031,174.402695 504.138855,177.475449 
	C501.980530,186.153046 497.870758,194.089478 500.479065,203.117371 
	C501.561737,206.864685 498.456299,210.440308 494.683655,209.639297 
	C486.503723,207.902542 478.420715,205.700974 470.326965,203.579071 
	C469.485260,203.358414 468.838043,202.395950 468.023743,201.425049 
z"/>
<path fill="#70AAC9" opacity="1.000000" stroke="none" 
	d="
M180.030045,133.417374 
	C176.063324,133.759979 176.220459,130.931152 175.958725,128.273865 
	C175.662094,125.262238 176.333618,122.608528 179.685547,122.428185 
	C189.386902,121.906242 199.110703,121.813766 208.818375,121.386642 
	C210.969528,121.291985 213.685242,121.126610 215.015640,119.834801 
	C215.896729,118.979271 215.068573,115.966629 214.485977,114.080154 
	C213.124008,109.670128 211.448929,105.356819 209.874954,100.630226 
	C211.015305,101.417023 212.181351,102.577927 213.614319,104.349487 
	C215.264313,109.009445 216.793121,113.017120 217.966919,117.126198 
	C218.524857,119.079346 219.310410,122.057343 218.370651,123.079170 
	C217.129364,124.428871 214.312683,124.661835 212.143387,124.768410 
	C202.808792,125.227005 193.432709,125.111008 184.133682,125.918091 
	C178.853409,126.376373 178.390182,127.962555 180.030045,133.417374 
z"/>
<path fill="#BCD6E5" opacity="1.000000" stroke="none" 
	d="
M180.393860,133.384537 
	C178.390182,127.962555 178.853409,126.376373 184.133682,125.918091 
	C193.432709,125.111008 202.808792,125.227005 212.143387,124.768410 
	C214.312683,124.661835 217.129364,124.428871 218.370651,123.079170 
	C219.310410,122.057343 218.524857,119.079346 217.966919,117.126198 
	C216.793121,113.017120 215.264313,109.009445 213.841736,104.574860 
	C214.880753,105.727654 216.265091,107.136940 216.977661,108.829109 
	C218.770813,113.087372 220.173874,117.508209 221.897141,121.798073 
	C223.564896,125.949814 221.416550,128.828262 216.847504,128.431091 
	C214.385071,128.217041 211.910507,128.142853 208.966034,128.052063 
	C207.313980,128.099106 206.137314,128.099640 204.120850,128.062592 
	C197.772598,128.366364 192.227753,128.450867 186.780075,129.221909 
	C185.341370,129.425537 184.202408,131.746964 182.925812,133.095947 
	C182.203094,133.181198 181.480392,133.266449 180.393860,133.384537 
z"/>
<path fill="#BCD6E5" opacity="1.000000" stroke="none" 
	d="
M419.396912,162.931335 
	C420.209747,152.219391 421.353088,141.605804 422.511444,130.993835 
	C422.796844,128.379395 422.762726,125.657707 423.519196,123.181999 
	C425.125366,117.925423 427.154785,112.798172 429.095154,107.242424 
	C429.580933,106.898376 429.982208,106.929802 430.685150,106.983597 
	C432.555023,110.092781 431.583557,112.539909 430.217957,115.696991 
	C427.992340,120.842171 426.952423,126.608833 426.107147,132.217972 
	C424.712646,141.471649 423.884674,150.810303 422.776428,160.108200 
	C422.680756,160.910904 422.275757,161.676758 421.910919,162.883194 
	C421.115936,163.214523 420.424469,163.122391 419.396912,162.931335 
z"/>
<path fill="#71A9C8" opacity="1.000000" stroke="none" 
	d="
M183.172699,164.835968 
	C178.274887,164.313919 180.024872,160.368073 180.129059,157.908218 
	C180.194763,156.356903 182.230865,153.716202 183.576294,153.587723 
	C190.761917,152.901703 198.032089,152.381195 205.225967,152.741821 
	C210.463669,153.004379 212.366257,152.029587 212.039093,146.646774 
	C211.758743,142.034103 211.282669,137.433350 210.945557,132.358200 
	C211.956436,132.690887 212.914932,133.492676 213.962112,135.056061 
	C214.616501,140.411530 215.072754,145.022278 215.778229,149.594589 
	C216.507004,154.317856 214.455200,156.219666 209.641312,156.040604 
	C203.075531,155.796417 196.439758,155.675659 189.922653,156.353867 
	C182.808594,157.094162 182.852722,157.518158 183.172699,164.835968 
z"/>
<path fill="#BCD6E5" opacity="1.000000" stroke="none" 
	d="
M183.529373,164.910065 
	C182.852722,157.518158 182.808594,157.094162 189.922653,156.353867 
	C196.439758,155.675659 203.075531,155.796417 209.641312,156.040604 
	C214.455200,156.219666 216.507004,154.317856 215.778229,149.594589 
	C215.072754,145.022278 214.616501,140.411530 214.076477,135.369110 
	C215.339508,137.001389 217.265854,138.956680 217.672531,141.188843 
	C218.552094,146.016617 218.652878,150.986282 219.087189,156.324493 
	C216.947708,157.760239 214.793228,158.769379 212.049744,159.557343 
	C203.696884,156.824478 196.244339,159.810440 188.714981,160.848923 
	C187.664444,160.993820 186.937119,163.482056 186.060165,164.885529 
	C185.335464,164.918396 184.610748,164.951279 183.529373,164.910065 
z"/>
<path fill="#71A9C8" opacity="1.000000" stroke="none" 
	d="
M511.829895,198.634308 
	C514.231384,197.014664 517.389221,196.265656 519.127991,194.276398 
	C524.678162,187.926559 529.656982,181.080231 534.968628,174.516449 
	C535.938110,173.318466 537.434814,172.547241 538.688171,171.579025 
	C539.061096,171.855362 539.434021,172.131714 539.807007,172.408066 
	C539.284851,174.410934 538.762756,176.413788 537.778809,178.895370 
	C533.320496,184.580795 529.593811,190.029327 525.226196,194.903534 
	C522.605042,197.828659 518.983276,199.857178 515.811157,202.288635 
	C514.519653,201.171494 513.228149,200.054367 511.829895,198.634308 
z"/>
<path fill="#BDD6E5" opacity="1.000000" stroke="none" 
	d="
M108.927551,208.609970 
	C118.726265,205.841843 128.591141,203.297653 138.529999,201.085922 
	C141.755386,200.368179 144.102417,199.218750 144.852509,195.458511 
	C145.847290,196.785004 147.706284,198.566757 147.527557,200.112930 
	C147.365356,201.515854 145.171356,203.382324 143.550552,203.803680 
	C133.793442,206.340240 123.968788,208.641830 114.097572,210.688446 
	C112.589912,211.001022 110.723129,209.581482 108.927551,208.609970 
z"/>
<path fill="#72A9C8" opacity="1.000000" stroke="none" 
	d="
M66.900360,206.739807 
	C64.866447,203.902817 62.183601,200.856781 61.008022,197.311005 
	C58.835060,190.756927 57.500393,183.920471 55.931244,177.174957 
	C55.667923,176.042969 55.982071,174.776642 56.029388,173.572388 
	C57.249794,174.116638 58.676083,174.424820 59.638844,175.264481 
	C60.860474,176.329910 61.705837,177.826752 62.831619,179.427063 
	C62.745388,181.510605 62.093304,183.389511 62.414543,185.083893 
	C63.761398,192.187805 65.399773,199.236435 66.900360,206.739807 
z"/>
<path fill="#72A9C8" opacity="1.000000" stroke="none" 
	d="
M37.801765,220.503723 
	C45.253284,218.427094 52.802006,216.668839 60.350426,214.909302 
	C63.840870,214.095688 67.358643,213.308609 67.058151,208.082703 
	C68.123680,208.823441 69.135460,209.983154 70.166229,211.856674 
	C70.332413,215.868668 68.400742,217.323746 65.474808,217.964951 
	C57.232243,219.771255 48.995869,221.605804 40.757057,223.429230 
	C39.804321,222.560013 38.851585,221.690796 37.801765,220.503723 
z"/>
<path fill="#BDD6E5" opacity="1.000000" stroke="none" 
	d="
M40.870182,223.744781 
	C48.995869,221.605804 57.232243,219.771255 65.474808,217.964951 
	C68.400742,217.323746 70.332413,215.868668 70.302765,212.166763 
	C71.521362,213.608734 73.570847,215.534042 73.424667,217.275009 
	C73.306770,218.679123 70.721107,220.531113 68.913673,221.024399 
	C61.266201,223.111557 53.532646,224.934006 45.747921,226.420486 
	C44.360523,226.685394 42.581501,224.899368 40.870182,223.744781 
z"/>
<path fill="#BBD5E4" opacity="1.000000" stroke="none" 
	d="
M515.914856,202.635452 
	C518.983276,199.857178 522.605042,197.828659 525.226196,194.903534 
	C529.593811,190.029327 533.320496,184.580795 537.608093,179.233185 
	C537.228271,182.493835 536.557373,185.895401 535.702148,189.570862 
	C531.828125,194.238388 528.274536,198.756821 524.400696,202.981689 
	C521.830444,205.784866 518.811646,206.288040 515.914856,202.635452 
z"/>
<path fill="#71A9C8" opacity="1.000000" stroke="none" 
	d="
M390.103668,185.171127 
	C390.315460,185.075241 390.616425,185.228378 391.013489,185.621124 
	C390.803986,185.713882 390.498444,185.567017 390.103668,185.171127 
z"/>
<path fill="#70A8C7" opacity="1.000000" stroke="none" 
	d="
M312.917877,113.767319 
	C312.663025,113.819130 312.374268,113.585327 312.049225,113.058258 
	C312.303284,113.003891 312.593628,113.242790 312.917877,113.767319 
z"/>
<path fill="#F9FDFE" opacity="1.000000" stroke="none" 
	d="
M280.906250,129.032867 
	C281.207123,134.525360 282.189301,140.092651 281.597137,145.487122 
	C281.107788,149.945221 277.648926,152.995056 272.470154,153.289078 
	C272.064301,146.323456 272.092926,139.839767 271.960297,133.359360 
	C271.895081,130.172729 273.244415,128.727463 276.421082,128.917374 
	C277.913116,129.006577 279.411011,128.997437 280.906250,129.032867 
z"/>
<path fill="#6FA8C8" opacity="1.000000" stroke="none" 
	d="
M269.157013,153.815720 
	C268.104584,152.661407 266.239685,151.576340 266.134430,150.341309 
	C265.545685,143.433456 265.262054,136.492081 265.105530,129.556946 
	C264.930878,121.818863 268.535736,119.612930 275.739777,122.883987 
	C276.466858,123.214127 277.055328,123.849579 277.407349,124.707016 
	C268.920105,124.934410 268.908752,124.934486 268.964569,132.898972 
	C269.013458,139.871338 269.091736,146.843475 269.157013,153.815720 
z"/>
<path fill="#BBD5E4" opacity="1.000000" stroke="none" 
	d="
M269.529358,153.872040 
	C269.091736,146.843475 269.013458,139.871338 268.964569,132.898972 
	C268.908752,124.934486 268.920105,124.934410 277.540863,125.054314 
	C277.975128,125.037933 277.992920,125.008186 278.076447,125.252060 
	C278.464691,125.645111 278.769379,125.794289 279.074097,125.943451 
	C279.657776,126.769989 280.241425,127.596535 280.865662,128.727982 
	C279.411011,128.997437 277.913116,129.006577 276.421082,128.917374 
	C273.244415,128.727463 271.895081,130.172729 271.960297,133.359360 
	C272.092926,139.839767 272.064301,146.323456 272.118347,153.252594 
	C271.390259,153.775711 270.645966,153.852036 269.529358,153.872040 
z"/>
<path fill="#6FA8C8" opacity="1.000000" stroke="none" 
	d="
M278.959900,125.714325 
	C278.769379,125.794289 278.464691,125.645111 278.063049,125.255035 
	C278.259308,125.171158 278.552490,125.328178 278.959900,125.714325 
z"/>
<path fill="#F4FBFD" opacity="1.000000" stroke="none" 
	d="
M186.496994,164.952637 
	C186.937119,163.482056 187.664444,160.993820 188.714981,160.848923 
	C196.244339,159.810440 203.696884,156.824478 211.703735,159.608948 
	C203.609116,161.594406 195.271469,163.307068 186.496994,164.952637 
z"/>
<path fill="#F4FBFD" opacity="1.000000" stroke="none" 
	d="
M183.377045,133.115524 
	C184.202408,131.746964 185.341370,129.425537 186.780075,129.221909 
	C192.227753,128.450867 197.772598,128.366364 203.765533,128.027954 
	C198.119308,132.439133 190.877930,132.403519 183.377045,133.115524 
z"/>
</svg>